G04 #@! TF.GenerationSoftware,KiCad,Pcbnew,5.1.9-73d0e3b20d~88~ubuntu20.04.1*
G04 #@! TF.CreationDate,2021-02-03T01:27:43+08:00*
G04 #@! TF.ProjectId,ic7000_drive,69633730-3030-45f6-9472-6976652e6b69,B*
G04 #@! TF.SameCoordinates,Original*
G04 #@! TF.FileFunction,Copper,L1,Top*
G04 #@! TF.FilePolarity,Positive*
%FSLAX46Y46*%
G04 Gerber Fmt 4.6, Leading zero omitted, Abs format (unit mm)*
G04 Created by KiCad (PCBNEW 5.1.9-73d0e3b20d~88~ubuntu20.04.1) date 2021-02-03 01:27:43*
%MOMM*%
%LPD*%
G01*
G04 APERTURE LIST*
G04 #@! TA.AperFunction,SMDPad,CuDef*
%ADD10R,9.601200X7.493000*%
G04 #@! TD*
G04 #@! TA.AperFunction,SMDPad,CuDef*
%ADD11R,5.688800X2.775699*%
G04 #@! TD*
G04 #@! TA.AperFunction,ComponentPad*
%ADD12O,1.600000X1.600000*%
G04 #@! TD*
G04 #@! TA.AperFunction,ComponentPad*
%ADD13C,1.600000*%
G04 #@! TD*
G04 #@! TA.AperFunction,ComponentPad*
%ADD14O,1.000000X1.000000*%
G04 #@! TD*
G04 #@! TA.AperFunction,ComponentPad*
%ADD15R,1.000000X1.000000*%
G04 #@! TD*
G04 #@! TA.AperFunction,ViaPad*
%ADD16C,0.800000*%
G04 #@! TD*
G04 #@! TA.AperFunction,Conductor*
%ADD17C,1.000000*%
G04 #@! TD*
G04 #@! TA.AperFunction,Conductor*
%ADD18C,0.500000*%
G04 #@! TD*
G04 #@! TA.AperFunction,Conductor*
%ADD19C,1.500000*%
G04 #@! TD*
G04 #@! TA.AperFunction,Conductor*
%ADD20C,0.254000*%
G04 #@! TD*
G04 #@! TA.AperFunction,Conductor*
%ADD21C,0.100000*%
G04 #@! TD*
G04 APERTURE END LIST*
D10*
X124000000Y-66100000D03*
D11*
X124000000Y-59962349D03*
X124000000Y-72237651D03*
G04 #@! TA.AperFunction,SMDPad,CuDef*
G36*
G01*
X118137500Y-71806250D02*
X118137500Y-70893750D01*
G75*
G02*
X118381250Y-70650000I243750J0D01*
G01*
X118868750Y-70650000D01*
G75*
G02*
X119112500Y-70893750I0J-243750D01*
G01*
X119112500Y-71806250D01*
G75*
G02*
X118868750Y-72050000I-243750J0D01*
G01*
X118381250Y-72050000D01*
G75*
G02*
X118137500Y-71806250I0J243750D01*
G01*
G37*
G04 #@! TD.AperFunction*
G04 #@! TA.AperFunction,SMDPad,CuDef*
G36*
G01*
X116262500Y-71806250D02*
X116262500Y-70893750D01*
G75*
G02*
X116506250Y-70650000I243750J0D01*
G01*
X116993750Y-70650000D01*
G75*
G02*
X117237500Y-70893750I0J-243750D01*
G01*
X117237500Y-71806250D01*
G75*
G02*
X116993750Y-72050000I-243750J0D01*
G01*
X116506250Y-72050000D01*
G75*
G02*
X116262500Y-71806250I0J243750D01*
G01*
G37*
G04 #@! TD.AperFunction*
D12*
X130800000Y-58760000D03*
D13*
X130800000Y-74000000D03*
D14*
X111910000Y-73900000D03*
X110640000Y-73900000D03*
X109370000Y-73900000D03*
D15*
X108100000Y-73900000D03*
D14*
X136920000Y-58400000D03*
X135650000Y-58400000D03*
X134380000Y-58400000D03*
D15*
X133110000Y-58400000D03*
D14*
X136920000Y-73900000D03*
X135650000Y-73900000D03*
X134380000Y-73900000D03*
D15*
X133110000Y-73900000D03*
D14*
X119440000Y-58400000D03*
X118170000Y-58400000D03*
X116900000Y-58400000D03*
D15*
X115630000Y-58400000D03*
X115610000Y-73900000D03*
D14*
X116880000Y-73900000D03*
X118150000Y-73900000D03*
X119420000Y-73900000D03*
G04 #@! TA.AperFunction,SMDPad,CuDef*
G36*
G01*
X112475000Y-70875000D02*
X112475000Y-72125000D01*
G75*
G02*
X112225000Y-72375000I-250000J0D01*
G01*
X111475000Y-72375000D01*
G75*
G02*
X111225000Y-72125000I0J250000D01*
G01*
X111225000Y-70875000D01*
G75*
G02*
X111475000Y-70625000I250000J0D01*
G01*
X112225000Y-70625000D01*
G75*
G02*
X112475000Y-70875000I0J-250000D01*
G01*
G37*
G04 #@! TD.AperFunction*
G04 #@! TA.AperFunction,SMDPad,CuDef*
G36*
G01*
X115275000Y-70875000D02*
X115275000Y-72125000D01*
G75*
G02*
X115025000Y-72375000I-250000J0D01*
G01*
X114275000Y-72375000D01*
G75*
G02*
X114025000Y-72125000I0J250000D01*
G01*
X114025000Y-70875000D01*
G75*
G02*
X114275000Y-70625000I250000J0D01*
G01*
X115025000Y-70625000D01*
G75*
G02*
X115275000Y-70875000I0J-250000D01*
G01*
G37*
G04 #@! TD.AperFunction*
G04 #@! TA.AperFunction,SMDPad,CuDef*
G36*
G01*
X127950000Y-57093750D02*
X127950000Y-58006250D01*
G75*
G02*
X127706250Y-58250000I-243750J0D01*
G01*
X127218750Y-58250000D01*
G75*
G02*
X126975000Y-58006250I0J243750D01*
G01*
X126975000Y-57093750D01*
G75*
G02*
X127218750Y-56850000I243750J0D01*
G01*
X127706250Y-56850000D01*
G75*
G02*
X127950000Y-57093750I0J-243750D01*
G01*
G37*
G04 #@! TD.AperFunction*
G04 #@! TA.AperFunction,SMDPad,CuDef*
G36*
G01*
X129825000Y-57093750D02*
X129825000Y-58006250D01*
G75*
G02*
X129581250Y-58250000I-243750J0D01*
G01*
X129093750Y-58250000D01*
G75*
G02*
X128850000Y-58006250I0J243750D01*
G01*
X128850000Y-57093750D01*
G75*
G02*
X129093750Y-56850000I243750J0D01*
G01*
X129581250Y-56850000D01*
G75*
G02*
X129825000Y-57093750I0J-243750D01*
G01*
G37*
G04 #@! TD.AperFunction*
D16*
X107500000Y-59000000D03*
X108450000Y-59000000D03*
X109400000Y-59000000D03*
X110350000Y-59000000D03*
X111300000Y-59000000D03*
X112250000Y-59000000D03*
X133700000Y-60150000D03*
X134800000Y-60150000D03*
X135950000Y-60150000D03*
X137050000Y-60150000D03*
X138100000Y-60150000D03*
X135150000Y-72050000D03*
X136200000Y-72050000D03*
X137250000Y-72050000D03*
X138250000Y-72050000D03*
X139250000Y-72050000D03*
X105950000Y-72000000D03*
X109950000Y-72000000D03*
X108950000Y-72000000D03*
X107950000Y-72000000D03*
X106950000Y-72000000D03*
D17*
X129640000Y-57550000D02*
X130850000Y-58760000D01*
X129337500Y-57550000D02*
X129640000Y-57550000D01*
D18*
X111850000Y-69800000D02*
X111850000Y-71500000D01*
X110450000Y-71500000D02*
X111850000Y-71500000D01*
X111850000Y-71500000D02*
X111850000Y-72850000D01*
D17*
X114650000Y-71500000D02*
X115800000Y-71500000D01*
X115800000Y-71500000D02*
X116900000Y-72600000D01*
X118625000Y-71350000D02*
X120250000Y-71350000D01*
X120250000Y-71350000D02*
X121100000Y-72200000D01*
D19*
X130800000Y-74000000D02*
X128600000Y-74000000D01*
X128600000Y-74000000D02*
X126900000Y-72300000D01*
D20*
X112385641Y-57070833D02*
X112547069Y-57120752D01*
X112695844Y-57200853D01*
X112826389Y-57308134D01*
X112933804Y-57438566D01*
X113014061Y-57587261D01*
X113064148Y-57748636D01*
X113082847Y-57922792D01*
X113105693Y-60215001D01*
X113106638Y-60229246D01*
X113134054Y-60452039D01*
X113140689Y-60479764D01*
X113217109Y-60690828D01*
X113229762Y-60716375D01*
X113351335Y-60905075D01*
X113369367Y-60927155D01*
X113529968Y-61083984D01*
X113540727Y-61093369D01*
X114014702Y-61462016D01*
X114026155Y-61469956D01*
X114212840Y-61584735D01*
X114238004Y-61596626D01*
X114445209Y-61667984D01*
X114472359Y-61674108D01*
X114690131Y-61698617D01*
X114704045Y-61699414D01*
X118851606Y-61708862D01*
X119027090Y-61726459D01*
X119189867Y-61775971D01*
X119339935Y-61856133D01*
X119471591Y-61963900D01*
X119579825Y-62095168D01*
X119660522Y-62244949D01*
X119710615Y-62407547D01*
X119728839Y-62582971D01*
X119729756Y-62739738D01*
X119700000Y-62736807D01*
X119667581Y-62740000D01*
X119570617Y-62749550D01*
X119446207Y-62787290D01*
X119331550Y-62848575D01*
X119231052Y-62931052D01*
X119148575Y-63031550D01*
X119087290Y-63146207D01*
X119049550Y-63270617D01*
X119036807Y-63400000D01*
X119040000Y-63432419D01*
X119040001Y-68867571D01*
X119036807Y-68900000D01*
X119049550Y-69029383D01*
X119087290Y-69153793D01*
X119148575Y-69268450D01*
X119231052Y-69368948D01*
X119331550Y-69451425D01*
X119446207Y-69512710D01*
X119570617Y-69550450D01*
X119651392Y-69558406D01*
X119621112Y-69615573D01*
X119512556Y-69748646D01*
X119380033Y-69857876D01*
X119228678Y-69939027D01*
X119064362Y-69988954D01*
X118887180Y-70006339D01*
X115927786Y-70004012D01*
X115923136Y-70003996D01*
X115263301Y-70000004D01*
X115349340Y-69871237D01*
X115464119Y-69594136D01*
X115522633Y-69299966D01*
X115522633Y-69000034D01*
X115464119Y-68705864D01*
X115349340Y-68428763D01*
X115182706Y-68179378D01*
X114970622Y-67967294D01*
X114721237Y-67800660D01*
X114444136Y-67685881D01*
X114149966Y-67627367D01*
X113850034Y-67627367D01*
X113555864Y-67685881D01*
X113278763Y-67800660D01*
X113029378Y-67967294D01*
X112817294Y-68179378D01*
X112650660Y-68428763D01*
X112535881Y-68705864D01*
X112477367Y-69000034D01*
X112477367Y-69299966D01*
X112535881Y-69594136D01*
X112650660Y-69871237D01*
X112726443Y-69984654D01*
X111808028Y-69979097D01*
X111795520Y-69979639D01*
X111599427Y-69997844D01*
X111574871Y-70002597D01*
X111386148Y-70058880D01*
X111363000Y-70068354D01*
X111188968Y-70160532D01*
X111168127Y-70174357D01*
X111015534Y-70298853D01*
X110997806Y-70316496D01*
X110872571Y-70468483D01*
X110858644Y-70489258D01*
X110765624Y-70662842D01*
X110756039Y-70685942D01*
X110698841Y-70874389D01*
X110693968Y-70898922D01*
X110674812Y-71094924D01*
X110674210Y-71107429D01*
X110674923Y-71701707D01*
X110675550Y-71714160D01*
X110695014Y-71909300D01*
X110699904Y-71933720D01*
X110757077Y-72121309D01*
X110766639Y-72144307D01*
X110859324Y-72317131D01*
X110873190Y-72337819D01*
X110997821Y-72489231D01*
X111015459Y-72506816D01*
X111167243Y-72630993D01*
X111187973Y-72644797D01*
X111361074Y-72736963D01*
X111384100Y-72746456D01*
X111571859Y-72803067D01*
X111596294Y-72807884D01*
X111791492Y-72826763D01*
X111803946Y-72827353D01*
X112174392Y-72826688D01*
X112352655Y-72844105D01*
X112517935Y-72894469D01*
X112670043Y-72976417D01*
X112803022Y-73086741D01*
X112911646Y-73221105D01*
X112991660Y-73374245D01*
X113039921Y-73540145D01*
X113055077Y-73718623D01*
X113036982Y-74967884D01*
X113018043Y-75139350D01*
X112986792Y-75240000D01*
X105032279Y-75240000D01*
X104934576Y-75230420D01*
X104871643Y-75211420D01*
X104813594Y-75180554D01*
X104762657Y-75139011D01*
X104720752Y-75088356D01*
X104689485Y-75030529D01*
X104670044Y-74967728D01*
X104660000Y-74872165D01*
X104660000Y-74400000D01*
X107170934Y-74400000D01*
X107179178Y-74483707D01*
X107203595Y-74564196D01*
X107243245Y-74638376D01*
X107296605Y-74703395D01*
X107361624Y-74756755D01*
X107435804Y-74796405D01*
X107516293Y-74820822D01*
X107600000Y-74829066D01*
X107866250Y-74827000D01*
X107973000Y-74720250D01*
X107973000Y-74027000D01*
X108227000Y-74027000D01*
X108227000Y-74720250D01*
X108333750Y-74827000D01*
X108600000Y-74829066D01*
X108683707Y-74820822D01*
X108764196Y-74796405D01*
X108838376Y-74756755D01*
X108903395Y-74703395D01*
X108906382Y-74699755D01*
X108933001Y-74717542D01*
X109100916Y-74787087D01*
X109243000Y-74710359D01*
X109243000Y-74027000D01*
X109497000Y-74027000D01*
X109497000Y-74710359D01*
X109639084Y-74787087D01*
X109806999Y-74717542D01*
X109958097Y-74616579D01*
X110005000Y-74569675D01*
X110051903Y-74616579D01*
X110203001Y-74717542D01*
X110370916Y-74787087D01*
X110513000Y-74710359D01*
X110513000Y-74027000D01*
X110767000Y-74027000D01*
X110767000Y-74710359D01*
X110909084Y-74787087D01*
X111076999Y-74717542D01*
X111228097Y-74616579D01*
X111275000Y-74569675D01*
X111321903Y-74616579D01*
X111473001Y-74717542D01*
X111640916Y-74787087D01*
X111783000Y-74710359D01*
X111783000Y-74027000D01*
X112037000Y-74027000D01*
X112037000Y-74710359D01*
X112179084Y-74787087D01*
X112346999Y-74717542D01*
X112498097Y-74616579D01*
X112626594Y-74488078D01*
X112727553Y-74336978D01*
X112797094Y-74169085D01*
X112721517Y-74027000D01*
X112037000Y-74027000D01*
X111783000Y-74027000D01*
X110767000Y-74027000D01*
X110513000Y-74027000D01*
X109497000Y-74027000D01*
X109243000Y-74027000D01*
X108227000Y-74027000D01*
X107973000Y-74027000D01*
X107279750Y-74027000D01*
X107173000Y-74133750D01*
X107170934Y-74400000D01*
X104660000Y-74400000D01*
X104660000Y-73400000D01*
X107170934Y-73400000D01*
X107173000Y-73666250D01*
X107279750Y-73773000D01*
X107973000Y-73773000D01*
X107973000Y-73079750D01*
X108227000Y-73079750D01*
X108227000Y-73773000D01*
X109243000Y-73773000D01*
X109243000Y-73089641D01*
X109497000Y-73089641D01*
X109497000Y-73773000D01*
X110513000Y-73773000D01*
X110513000Y-73089641D01*
X110767000Y-73089641D01*
X110767000Y-73773000D01*
X111783000Y-73773000D01*
X111783000Y-73089641D01*
X112037000Y-73089641D01*
X112037000Y-73773000D01*
X112721517Y-73773000D01*
X112797094Y-73630915D01*
X112727553Y-73463022D01*
X112626594Y-73311922D01*
X112498097Y-73183421D01*
X112346999Y-73082458D01*
X112179084Y-73012913D01*
X112037000Y-73089641D01*
X111783000Y-73089641D01*
X111640916Y-73012913D01*
X111473001Y-73082458D01*
X111321903Y-73183421D01*
X111275000Y-73230325D01*
X111228097Y-73183421D01*
X111076999Y-73082458D01*
X110909084Y-73012913D01*
X110767000Y-73089641D01*
X110513000Y-73089641D01*
X110370916Y-73012913D01*
X110203001Y-73082458D01*
X110051903Y-73183421D01*
X110005000Y-73230325D01*
X109958097Y-73183421D01*
X109806999Y-73082458D01*
X109639084Y-73012913D01*
X109497000Y-73089641D01*
X109243000Y-73089641D01*
X109100916Y-73012913D01*
X108933001Y-73082458D01*
X108906382Y-73100245D01*
X108903395Y-73096605D01*
X108838376Y-73043245D01*
X108764196Y-73003595D01*
X108683707Y-72979178D01*
X108600000Y-72970934D01*
X108333750Y-72973000D01*
X108227000Y-73079750D01*
X107973000Y-73079750D01*
X107866250Y-72973000D01*
X107600000Y-72970934D01*
X107516293Y-72979178D01*
X107435804Y-73003595D01*
X107361624Y-73043245D01*
X107296605Y-73096605D01*
X107243245Y-73161624D01*
X107203595Y-73235804D01*
X107179178Y-73316293D01*
X107170934Y-73400000D01*
X104660000Y-73400000D01*
X104660000Y-67100346D01*
X104699626Y-67074019D01*
X104706719Y-67068149D01*
X104706723Y-67068147D01*
X104706726Y-67068144D01*
X104781478Y-67005419D01*
X104823321Y-66962690D01*
X104865774Y-66920533D01*
X104871598Y-66913391D01*
X104871601Y-66913388D01*
X104871604Y-66913384D01*
X104932744Y-66837341D01*
X104965487Y-66787305D01*
X104998951Y-66737693D01*
X105003277Y-66729557D01*
X105048487Y-66643077D01*
X105070890Y-66587626D01*
X105094075Y-66532473D01*
X105096738Y-66523651D01*
X105124290Y-66430040D01*
X105135495Y-66371305D01*
X105147529Y-66312678D01*
X105148428Y-66303507D01*
X105157272Y-66206324D01*
X105156854Y-66146509D01*
X105157272Y-66086693D01*
X105156373Y-66077522D01*
X105146173Y-65980473D01*
X105141135Y-65955926D01*
X106029534Y-65955926D01*
X106029534Y-66344074D01*
X106105258Y-66724764D01*
X106253796Y-67083366D01*
X106469439Y-67406099D01*
X106743901Y-67680561D01*
X107066634Y-67896204D01*
X107425236Y-68044742D01*
X107805926Y-68120466D01*
X108194074Y-68120466D01*
X108574764Y-68044742D01*
X108933366Y-67896204D01*
X109256099Y-67680561D01*
X109530561Y-67406099D01*
X109746204Y-67083366D01*
X109894742Y-66724764D01*
X109970466Y-66344074D01*
X109970466Y-65955926D01*
X109894742Y-65575236D01*
X109746204Y-65216634D01*
X109530561Y-64893901D01*
X109256099Y-64619439D01*
X108933366Y-64403796D01*
X108574764Y-64255258D01*
X108194074Y-64179534D01*
X107805926Y-64179534D01*
X107425236Y-64255258D01*
X107066634Y-64403796D01*
X106743901Y-64619439D01*
X106469439Y-64893901D01*
X106253796Y-65216634D01*
X106105258Y-65575236D01*
X106029534Y-65955926D01*
X105141135Y-65955926D01*
X105134140Y-65921854D01*
X105122936Y-65863116D01*
X105120272Y-65854294D01*
X105091416Y-65761075D01*
X105068238Y-65705937D01*
X105045825Y-65650463D01*
X105041498Y-65642327D01*
X104995085Y-65556489D01*
X104961645Y-65506913D01*
X104928881Y-65456844D01*
X104923057Y-65449703D01*
X104860855Y-65374514D01*
X104818406Y-65332361D01*
X104776561Y-65289629D01*
X104769460Y-65283755D01*
X104693839Y-65222079D01*
X104660000Y-65199596D01*
X104660000Y-60173380D01*
X107773381Y-57060000D01*
X112283753Y-57060000D01*
X112385641Y-57070833D01*
G04 #@! TA.AperFunction,Conductor*
D21*
G36*
X112385641Y-57070833D02*
G01*
X112547069Y-57120752D01*
X112695844Y-57200853D01*
X112826389Y-57308134D01*
X112933804Y-57438566D01*
X113014061Y-57587261D01*
X113064148Y-57748636D01*
X113082847Y-57922792D01*
X113105693Y-60215001D01*
X113106638Y-60229246D01*
X113134054Y-60452039D01*
X113140689Y-60479764D01*
X113217109Y-60690828D01*
X113229762Y-60716375D01*
X113351335Y-60905075D01*
X113369367Y-60927155D01*
X113529968Y-61083984D01*
X113540727Y-61093369D01*
X114014702Y-61462016D01*
X114026155Y-61469956D01*
X114212840Y-61584735D01*
X114238004Y-61596626D01*
X114445209Y-61667984D01*
X114472359Y-61674108D01*
X114690131Y-61698617D01*
X114704045Y-61699414D01*
X118851606Y-61708862D01*
X119027090Y-61726459D01*
X119189867Y-61775971D01*
X119339935Y-61856133D01*
X119471591Y-61963900D01*
X119579825Y-62095168D01*
X119660522Y-62244949D01*
X119710615Y-62407547D01*
X119728839Y-62582971D01*
X119729756Y-62739738D01*
X119700000Y-62736807D01*
X119667581Y-62740000D01*
X119570617Y-62749550D01*
X119446207Y-62787290D01*
X119331550Y-62848575D01*
X119231052Y-62931052D01*
X119148575Y-63031550D01*
X119087290Y-63146207D01*
X119049550Y-63270617D01*
X119036807Y-63400000D01*
X119040000Y-63432419D01*
X119040001Y-68867571D01*
X119036807Y-68900000D01*
X119049550Y-69029383D01*
X119087290Y-69153793D01*
X119148575Y-69268450D01*
X119231052Y-69368948D01*
X119331550Y-69451425D01*
X119446207Y-69512710D01*
X119570617Y-69550450D01*
X119651392Y-69558406D01*
X119621112Y-69615573D01*
X119512556Y-69748646D01*
X119380033Y-69857876D01*
X119228678Y-69939027D01*
X119064362Y-69988954D01*
X118887180Y-70006339D01*
X115927786Y-70004012D01*
X115923136Y-70003996D01*
X115263301Y-70000004D01*
X115349340Y-69871237D01*
X115464119Y-69594136D01*
X115522633Y-69299966D01*
X115522633Y-69000034D01*
X115464119Y-68705864D01*
X115349340Y-68428763D01*
X115182706Y-68179378D01*
X114970622Y-67967294D01*
X114721237Y-67800660D01*
X114444136Y-67685881D01*
X114149966Y-67627367D01*
X113850034Y-67627367D01*
X113555864Y-67685881D01*
X113278763Y-67800660D01*
X113029378Y-67967294D01*
X112817294Y-68179378D01*
X112650660Y-68428763D01*
X112535881Y-68705864D01*
X112477367Y-69000034D01*
X112477367Y-69299966D01*
X112535881Y-69594136D01*
X112650660Y-69871237D01*
X112726443Y-69984654D01*
X111808028Y-69979097D01*
X111795520Y-69979639D01*
X111599427Y-69997844D01*
X111574871Y-70002597D01*
X111386148Y-70058880D01*
X111363000Y-70068354D01*
X111188968Y-70160532D01*
X111168127Y-70174357D01*
X111015534Y-70298853D01*
X110997806Y-70316496D01*
X110872571Y-70468483D01*
X110858644Y-70489258D01*
X110765624Y-70662842D01*
X110756039Y-70685942D01*
X110698841Y-70874389D01*
X110693968Y-70898922D01*
X110674812Y-71094924D01*
X110674210Y-71107429D01*
X110674923Y-71701707D01*
X110675550Y-71714160D01*
X110695014Y-71909300D01*
X110699904Y-71933720D01*
X110757077Y-72121309D01*
X110766639Y-72144307D01*
X110859324Y-72317131D01*
X110873190Y-72337819D01*
X110997821Y-72489231D01*
X111015459Y-72506816D01*
X111167243Y-72630993D01*
X111187973Y-72644797D01*
X111361074Y-72736963D01*
X111384100Y-72746456D01*
X111571859Y-72803067D01*
X111596294Y-72807884D01*
X111791492Y-72826763D01*
X111803946Y-72827353D01*
X112174392Y-72826688D01*
X112352655Y-72844105D01*
X112517935Y-72894469D01*
X112670043Y-72976417D01*
X112803022Y-73086741D01*
X112911646Y-73221105D01*
X112991660Y-73374245D01*
X113039921Y-73540145D01*
X113055077Y-73718623D01*
X113036982Y-74967884D01*
X113018043Y-75139350D01*
X112986792Y-75240000D01*
X105032279Y-75240000D01*
X104934576Y-75230420D01*
X104871643Y-75211420D01*
X104813594Y-75180554D01*
X104762657Y-75139011D01*
X104720752Y-75088356D01*
X104689485Y-75030529D01*
X104670044Y-74967728D01*
X104660000Y-74872165D01*
X104660000Y-74400000D01*
X107170934Y-74400000D01*
X107179178Y-74483707D01*
X107203595Y-74564196D01*
X107243245Y-74638376D01*
X107296605Y-74703395D01*
X107361624Y-74756755D01*
X107435804Y-74796405D01*
X107516293Y-74820822D01*
X107600000Y-74829066D01*
X107866250Y-74827000D01*
X107973000Y-74720250D01*
X107973000Y-74027000D01*
X108227000Y-74027000D01*
X108227000Y-74720250D01*
X108333750Y-74827000D01*
X108600000Y-74829066D01*
X108683707Y-74820822D01*
X108764196Y-74796405D01*
X108838376Y-74756755D01*
X108903395Y-74703395D01*
X108906382Y-74699755D01*
X108933001Y-74717542D01*
X109100916Y-74787087D01*
X109243000Y-74710359D01*
X109243000Y-74027000D01*
X109497000Y-74027000D01*
X109497000Y-74710359D01*
X109639084Y-74787087D01*
X109806999Y-74717542D01*
X109958097Y-74616579D01*
X110005000Y-74569675D01*
X110051903Y-74616579D01*
X110203001Y-74717542D01*
X110370916Y-74787087D01*
X110513000Y-74710359D01*
X110513000Y-74027000D01*
X110767000Y-74027000D01*
X110767000Y-74710359D01*
X110909084Y-74787087D01*
X111076999Y-74717542D01*
X111228097Y-74616579D01*
X111275000Y-74569675D01*
X111321903Y-74616579D01*
X111473001Y-74717542D01*
X111640916Y-74787087D01*
X111783000Y-74710359D01*
X111783000Y-74027000D01*
X112037000Y-74027000D01*
X112037000Y-74710359D01*
X112179084Y-74787087D01*
X112346999Y-74717542D01*
X112498097Y-74616579D01*
X112626594Y-74488078D01*
X112727553Y-74336978D01*
X112797094Y-74169085D01*
X112721517Y-74027000D01*
X112037000Y-74027000D01*
X111783000Y-74027000D01*
X110767000Y-74027000D01*
X110513000Y-74027000D01*
X109497000Y-74027000D01*
X109243000Y-74027000D01*
X108227000Y-74027000D01*
X107973000Y-74027000D01*
X107279750Y-74027000D01*
X107173000Y-74133750D01*
X107170934Y-74400000D01*
X104660000Y-74400000D01*
X104660000Y-73400000D01*
X107170934Y-73400000D01*
X107173000Y-73666250D01*
X107279750Y-73773000D01*
X107973000Y-73773000D01*
X107973000Y-73079750D01*
X108227000Y-73079750D01*
X108227000Y-73773000D01*
X109243000Y-73773000D01*
X109243000Y-73089641D01*
X109497000Y-73089641D01*
X109497000Y-73773000D01*
X110513000Y-73773000D01*
X110513000Y-73089641D01*
X110767000Y-73089641D01*
X110767000Y-73773000D01*
X111783000Y-73773000D01*
X111783000Y-73089641D01*
X112037000Y-73089641D01*
X112037000Y-73773000D01*
X112721517Y-73773000D01*
X112797094Y-73630915D01*
X112727553Y-73463022D01*
X112626594Y-73311922D01*
X112498097Y-73183421D01*
X112346999Y-73082458D01*
X112179084Y-73012913D01*
X112037000Y-73089641D01*
X111783000Y-73089641D01*
X111640916Y-73012913D01*
X111473001Y-73082458D01*
X111321903Y-73183421D01*
X111275000Y-73230325D01*
X111228097Y-73183421D01*
X111076999Y-73082458D01*
X110909084Y-73012913D01*
X110767000Y-73089641D01*
X110513000Y-73089641D01*
X110370916Y-73012913D01*
X110203001Y-73082458D01*
X110051903Y-73183421D01*
X110005000Y-73230325D01*
X109958097Y-73183421D01*
X109806999Y-73082458D01*
X109639084Y-73012913D01*
X109497000Y-73089641D01*
X109243000Y-73089641D01*
X109100916Y-73012913D01*
X108933001Y-73082458D01*
X108906382Y-73100245D01*
X108903395Y-73096605D01*
X108838376Y-73043245D01*
X108764196Y-73003595D01*
X108683707Y-72979178D01*
X108600000Y-72970934D01*
X108333750Y-72973000D01*
X108227000Y-73079750D01*
X107973000Y-73079750D01*
X107866250Y-72973000D01*
X107600000Y-72970934D01*
X107516293Y-72979178D01*
X107435804Y-73003595D01*
X107361624Y-73043245D01*
X107296605Y-73096605D01*
X107243245Y-73161624D01*
X107203595Y-73235804D01*
X107179178Y-73316293D01*
X107170934Y-73400000D01*
X104660000Y-73400000D01*
X104660000Y-67100346D01*
X104699626Y-67074019D01*
X104706719Y-67068149D01*
X104706723Y-67068147D01*
X104706726Y-67068144D01*
X104781478Y-67005419D01*
X104823321Y-66962690D01*
X104865774Y-66920533D01*
X104871598Y-66913391D01*
X104871601Y-66913388D01*
X104871604Y-66913384D01*
X104932744Y-66837341D01*
X104965487Y-66787305D01*
X104998951Y-66737693D01*
X105003277Y-66729557D01*
X105048487Y-66643077D01*
X105070890Y-66587626D01*
X105094075Y-66532473D01*
X105096738Y-66523651D01*
X105124290Y-66430040D01*
X105135495Y-66371305D01*
X105147529Y-66312678D01*
X105148428Y-66303507D01*
X105157272Y-66206324D01*
X105156854Y-66146509D01*
X105157272Y-66086693D01*
X105156373Y-66077522D01*
X105146173Y-65980473D01*
X105141135Y-65955926D01*
X106029534Y-65955926D01*
X106029534Y-66344074D01*
X106105258Y-66724764D01*
X106253796Y-67083366D01*
X106469439Y-67406099D01*
X106743901Y-67680561D01*
X107066634Y-67896204D01*
X107425236Y-68044742D01*
X107805926Y-68120466D01*
X108194074Y-68120466D01*
X108574764Y-68044742D01*
X108933366Y-67896204D01*
X109256099Y-67680561D01*
X109530561Y-67406099D01*
X109746204Y-67083366D01*
X109894742Y-66724764D01*
X109970466Y-66344074D01*
X109970466Y-65955926D01*
X109894742Y-65575236D01*
X109746204Y-65216634D01*
X109530561Y-64893901D01*
X109256099Y-64619439D01*
X108933366Y-64403796D01*
X108574764Y-64255258D01*
X108194074Y-64179534D01*
X107805926Y-64179534D01*
X107425236Y-64255258D01*
X107066634Y-64403796D01*
X106743901Y-64619439D01*
X106469439Y-64893901D01*
X106253796Y-65216634D01*
X106105258Y-65575236D01*
X106029534Y-65955926D01*
X105141135Y-65955926D01*
X105134140Y-65921854D01*
X105122936Y-65863116D01*
X105120272Y-65854294D01*
X105091416Y-65761075D01*
X105068238Y-65705937D01*
X105045825Y-65650463D01*
X105041498Y-65642327D01*
X104995085Y-65556489D01*
X104961645Y-65506913D01*
X104928881Y-65456844D01*
X104923057Y-65449703D01*
X104860855Y-65374514D01*
X104818406Y-65332361D01*
X104776561Y-65289629D01*
X104769460Y-65283755D01*
X104693839Y-65222079D01*
X104660000Y-65199596D01*
X104660000Y-60173380D01*
X107773381Y-57060000D01*
X112283753Y-57060000D01*
X112385641Y-57070833D01*
G37*
G04 #@! TD.AperFunction*
D20*
X143065424Y-57069580D02*
X143128356Y-57088580D01*
X143186405Y-57119445D01*
X143237343Y-57160989D01*
X143279248Y-57211644D01*
X143310515Y-57269471D01*
X143329956Y-57332272D01*
X143340000Y-57427835D01*
X143340000Y-58232418D01*
X143340001Y-58232428D01*
X143340000Y-62832418D01*
X143340001Y-62832428D01*
X143340000Y-65199654D01*
X143300374Y-65225982D01*
X143293274Y-65231856D01*
X143218522Y-65294581D01*
X143176695Y-65337294D01*
X143134226Y-65379467D01*
X143128402Y-65386609D01*
X143067256Y-65462659D01*
X143034535Y-65512661D01*
X143001049Y-65562306D01*
X142996723Y-65570443D01*
X142951513Y-65656922D01*
X142929104Y-65712388D01*
X142905925Y-65767527D01*
X142903262Y-65776349D01*
X142875710Y-65869961D01*
X142864508Y-65928682D01*
X142852471Y-65987322D01*
X142851572Y-65996493D01*
X142842728Y-66093675D01*
X142843146Y-66153492D01*
X142842728Y-66213308D01*
X142843627Y-66222479D01*
X142853827Y-66319527D01*
X142865861Y-66378152D01*
X142877064Y-66436884D01*
X142879728Y-66445706D01*
X142908584Y-66538925D01*
X142931767Y-66594075D01*
X142954175Y-66649537D01*
X142958502Y-66657673D01*
X143004914Y-66743511D01*
X143038362Y-66793098D01*
X143071119Y-66843156D01*
X143076943Y-66850297D01*
X143139145Y-66925486D01*
X143181594Y-66967639D01*
X143223439Y-67010371D01*
X143230540Y-67016245D01*
X143306160Y-67077921D01*
X143340001Y-67100405D01*
X143340000Y-69632418D01*
X143340001Y-69632428D01*
X143340000Y-74167581D01*
X143340000Y-74867721D01*
X143330420Y-74965424D01*
X143311420Y-75028357D01*
X143304996Y-75040439D01*
X143019897Y-75205163D01*
X142945483Y-75240000D01*
X133312430Y-75240000D01*
X133185441Y-75136672D01*
X133076000Y-75004203D01*
X132994651Y-74852860D01*
X132960945Y-74742305D01*
X132983000Y-74720250D01*
X132983000Y-74027000D01*
X133237000Y-74027000D01*
X133237000Y-74720250D01*
X133343750Y-74827000D01*
X133610000Y-74829066D01*
X133693707Y-74820822D01*
X133774196Y-74796405D01*
X133848376Y-74756755D01*
X133913395Y-74703395D01*
X133916382Y-74699755D01*
X133943001Y-74717542D01*
X134110916Y-74787087D01*
X134253000Y-74710359D01*
X134253000Y-74027000D01*
X134507000Y-74027000D01*
X134507000Y-74710359D01*
X134649084Y-74787087D01*
X134816999Y-74717542D01*
X134968097Y-74616579D01*
X135015000Y-74569675D01*
X135061903Y-74616579D01*
X135213001Y-74717542D01*
X135380916Y-74787087D01*
X135523000Y-74710359D01*
X135523000Y-74027000D01*
X135777000Y-74027000D01*
X135777000Y-74710359D01*
X135919084Y-74787087D01*
X136086999Y-74717542D01*
X136238097Y-74616579D01*
X136285000Y-74569675D01*
X136331903Y-74616579D01*
X136483001Y-74717542D01*
X136650916Y-74787087D01*
X136793000Y-74710359D01*
X136793000Y-74027000D01*
X137047000Y-74027000D01*
X137047000Y-74710359D01*
X137189084Y-74787087D01*
X137356999Y-74717542D01*
X137508097Y-74616579D01*
X137636594Y-74488078D01*
X137737553Y-74336978D01*
X137807094Y-74169085D01*
X137731517Y-74027000D01*
X137047000Y-74027000D01*
X136793000Y-74027000D01*
X135777000Y-74027000D01*
X135523000Y-74027000D01*
X134507000Y-74027000D01*
X134253000Y-74027000D01*
X133237000Y-74027000D01*
X132983000Y-74027000D01*
X132963000Y-74027000D01*
X132963000Y-73773000D01*
X132983000Y-73773000D01*
X132983000Y-73079750D01*
X133237000Y-73079750D01*
X133237000Y-73773000D01*
X134253000Y-73773000D01*
X134253000Y-73089641D01*
X134507000Y-73089641D01*
X134507000Y-73773000D01*
X135523000Y-73773000D01*
X135523000Y-73089641D01*
X135777000Y-73089641D01*
X135777000Y-73773000D01*
X136793000Y-73773000D01*
X136793000Y-73089641D01*
X137047000Y-73089641D01*
X137047000Y-73773000D01*
X137731517Y-73773000D01*
X137807094Y-73630915D01*
X137737553Y-73463022D01*
X137636594Y-73311922D01*
X137508097Y-73183421D01*
X137356999Y-73082458D01*
X137189084Y-73012913D01*
X137047000Y-73089641D01*
X136793000Y-73089641D01*
X136650916Y-73012913D01*
X136483001Y-73082458D01*
X136331903Y-73183421D01*
X136285000Y-73230325D01*
X136238097Y-73183421D01*
X136086999Y-73082458D01*
X135919084Y-73012913D01*
X135777000Y-73089641D01*
X135523000Y-73089641D01*
X135380916Y-73012913D01*
X135213001Y-73082458D01*
X135061903Y-73183421D01*
X135015000Y-73230325D01*
X134968097Y-73183421D01*
X134816999Y-73082458D01*
X134649084Y-73012913D01*
X134507000Y-73089641D01*
X134253000Y-73089641D01*
X134110916Y-73012913D01*
X133943001Y-73082458D01*
X133916382Y-73100245D01*
X133913395Y-73096605D01*
X133848376Y-73043245D01*
X133774196Y-73003595D01*
X133693707Y-72979178D01*
X133610000Y-72970934D01*
X133343750Y-72973000D01*
X133237000Y-73079750D01*
X132983000Y-73079750D01*
X132927000Y-73023750D01*
X132927000Y-72500000D01*
X132926218Y-72485929D01*
X132906251Y-72306821D01*
X132900054Y-72279370D01*
X132841133Y-72109056D01*
X132829042Y-72083645D01*
X132734061Y-71930488D01*
X132716670Y-71908361D01*
X132590291Y-71779882D01*
X132568457Y-71762131D01*
X132416888Y-71664637D01*
X132391677Y-71652128D01*
X132222357Y-71590408D01*
X132195013Y-71583759D01*
X132016259Y-71560841D01*
X132002203Y-71559827D01*
X130184388Y-71529853D01*
X130002864Y-71508384D01*
X129835499Y-71452885D01*
X129677111Y-71361634D01*
X128905907Y-70806500D01*
X128777521Y-70694279D01*
X128676203Y-70564717D01*
X128600998Y-70418433D01*
X128554589Y-70260641D01*
X128538034Y-70090934D01*
X128536269Y-69468626D01*
X128568450Y-69451425D01*
X128668948Y-69368948D01*
X128751425Y-69268450D01*
X128812710Y-69153793D01*
X128850450Y-69029383D01*
X128863193Y-68900000D01*
X128860000Y-68867581D01*
X128860000Y-66099258D01*
X137542748Y-66099258D01*
X137543166Y-66159075D01*
X137542748Y-66218892D01*
X137543647Y-66228064D01*
X137570167Y-66480389D01*
X137582205Y-66539031D01*
X137593405Y-66597747D01*
X137596068Y-66606569D01*
X137671095Y-66848938D01*
X137694265Y-66904056D01*
X137716683Y-66959545D01*
X137721009Y-66967681D01*
X137841682Y-67190862D01*
X137875150Y-67240480D01*
X137907889Y-67290511D01*
X137913713Y-67297652D01*
X138075438Y-67493143D01*
X138117872Y-67535282D01*
X138159735Y-67578031D01*
X138166836Y-67583904D01*
X138166839Y-67583907D01*
X138166843Y-67583909D01*
X138363450Y-67744260D01*
X138413238Y-67777339D01*
X138462634Y-67811161D01*
X138470741Y-67815544D01*
X138694759Y-67934656D01*
X138750062Y-67957450D01*
X138805044Y-67981016D01*
X138813847Y-67983741D01*
X139056733Y-68057073D01*
X139115418Y-68068693D01*
X139173926Y-68081129D01*
X139183089Y-68082092D01*
X139183091Y-68082092D01*
X139435596Y-68106850D01*
X139435598Y-68106850D01*
X139467581Y-68110000D01*
X140532419Y-68110000D01*
X140565683Y-68106724D01*
X140582555Y-68106724D01*
X140591720Y-68105760D01*
X140843853Y-68077479D01*
X140902354Y-68065044D01*
X140961046Y-68053423D01*
X140969849Y-68050698D01*
X141211688Y-67973982D01*
X141266685Y-67950410D01*
X141321974Y-67927622D01*
X141330080Y-67923239D01*
X141552414Y-67801011D01*
X141601794Y-67767199D01*
X141651598Y-67734110D01*
X141658699Y-67728236D01*
X141853056Y-67565150D01*
X141894899Y-67522420D01*
X141937352Y-67480264D01*
X141943176Y-67473122D01*
X142102156Y-67275392D01*
X142134916Y-67225330D01*
X142168362Y-67175744D01*
X142172688Y-67167607D01*
X142290234Y-66942764D01*
X142312653Y-66887274D01*
X142335823Y-66832155D01*
X142338487Y-66823333D01*
X142410121Y-66579940D01*
X142421333Y-66521166D01*
X142433358Y-66462585D01*
X142434257Y-66453414D01*
X142457252Y-66200742D01*
X142456834Y-66140925D01*
X142457252Y-66081108D01*
X142456353Y-66071936D01*
X142429833Y-65819611D01*
X142417794Y-65760962D01*
X142406595Y-65702253D01*
X142403932Y-65693431D01*
X142328906Y-65451062D01*
X142305716Y-65395898D01*
X142283317Y-65340456D01*
X142278991Y-65332319D01*
X142158318Y-65109138D01*
X142124865Y-65059543D01*
X142092111Y-65009489D01*
X142086287Y-65002348D01*
X141924562Y-64806857D01*
X141882128Y-64764718D01*
X141840265Y-64721969D01*
X141833164Y-64716095D01*
X141636549Y-64555740D01*
X141586733Y-64522642D01*
X141537366Y-64488839D01*
X141529259Y-64484456D01*
X141305241Y-64365344D01*
X141249950Y-64342555D01*
X141194956Y-64318984D01*
X141186153Y-64316259D01*
X140943267Y-64242927D01*
X140884582Y-64231307D01*
X140826074Y-64218871D01*
X140816911Y-64217908D01*
X140816909Y-64217908D01*
X140564404Y-64193150D01*
X140564402Y-64193150D01*
X140532419Y-64190000D01*
X139467581Y-64190000D01*
X139434309Y-64193277D01*
X139417445Y-64193277D01*
X139408280Y-64194240D01*
X139156146Y-64222521D01*
X139097638Y-64234957D01*
X139038953Y-64246577D01*
X139030150Y-64249302D01*
X138788312Y-64326018D01*
X138733315Y-64349590D01*
X138678026Y-64372378D01*
X138669920Y-64376761D01*
X138447587Y-64498989D01*
X138398224Y-64532789D01*
X138348402Y-64565890D01*
X138341302Y-64571764D01*
X138146944Y-64734850D01*
X138105118Y-64777563D01*
X138062648Y-64819736D01*
X138056824Y-64826878D01*
X137897844Y-65024608D01*
X137865084Y-65074670D01*
X137831638Y-65124256D01*
X137827312Y-65132393D01*
X137709767Y-65357236D01*
X137687371Y-65412668D01*
X137664177Y-65467844D01*
X137661514Y-65476666D01*
X137589879Y-65720060D01*
X137578666Y-65778841D01*
X137566642Y-65837415D01*
X137565743Y-65846587D01*
X137542748Y-66099258D01*
X128860000Y-66099258D01*
X128860000Y-63432419D01*
X128863193Y-63400000D01*
X128850450Y-63270617D01*
X128812710Y-63146207D01*
X128751425Y-63031550D01*
X128725561Y-63000034D01*
X132477367Y-63000034D01*
X132477367Y-63299966D01*
X132535881Y-63594136D01*
X132650660Y-63871237D01*
X132817294Y-64120622D01*
X133029378Y-64332706D01*
X133278763Y-64499340D01*
X133555864Y-64614119D01*
X133850034Y-64672633D01*
X134149966Y-64672633D01*
X134444136Y-64614119D01*
X134721237Y-64499340D01*
X134970622Y-64332706D01*
X135182706Y-64120622D01*
X135349340Y-63871237D01*
X135464119Y-63594136D01*
X135522633Y-63299966D01*
X135522633Y-63000034D01*
X135464119Y-62705864D01*
X135349340Y-62428763D01*
X135182706Y-62179378D01*
X134970622Y-61967294D01*
X134721237Y-61800660D01*
X134444136Y-61685881D01*
X134149966Y-61627367D01*
X133850034Y-61627367D01*
X133555864Y-61685881D01*
X133278763Y-61800660D01*
X133029378Y-61967294D01*
X132817294Y-62179378D01*
X132650660Y-62428763D01*
X132535881Y-62705864D01*
X132477367Y-63000034D01*
X128725561Y-63000034D01*
X128668948Y-62931052D01*
X128568450Y-62848575D01*
X128517419Y-62821298D01*
X128515831Y-62261352D01*
X128536421Y-62066901D01*
X128596136Y-61887992D01*
X128692912Y-61726106D01*
X128826980Y-61583759D01*
X129697667Y-60839898D01*
X129827729Y-60747313D01*
X129966959Y-60681447D01*
X130115589Y-60641091D01*
X130274615Y-60627000D01*
X131500000Y-60627000D01*
X131512448Y-60626388D01*
X131707538Y-60607173D01*
X131731956Y-60602317D01*
X131919549Y-60545412D01*
X131942550Y-60535884D01*
X132115437Y-60443474D01*
X132136138Y-60429642D01*
X132287675Y-60305279D01*
X132305279Y-60287675D01*
X132429642Y-60136138D01*
X132443474Y-60115437D01*
X132535884Y-59942550D01*
X132545412Y-59919549D01*
X132602317Y-59731956D01*
X132607173Y-59707538D01*
X132626388Y-59512448D01*
X132627000Y-59500000D01*
X132627000Y-59328934D01*
X132876250Y-59327000D01*
X132983000Y-59220250D01*
X132983000Y-58527000D01*
X133237000Y-58527000D01*
X133237000Y-59220250D01*
X133343750Y-59327000D01*
X133610000Y-59329066D01*
X133693707Y-59320822D01*
X133774196Y-59296405D01*
X133848376Y-59256755D01*
X133913395Y-59203395D01*
X133916382Y-59199755D01*
X133943001Y-59217542D01*
X134110916Y-59287087D01*
X134253000Y-59210359D01*
X134253000Y-58527000D01*
X134507000Y-58527000D01*
X134507000Y-59210359D01*
X134649084Y-59287087D01*
X134816999Y-59217542D01*
X134968097Y-59116579D01*
X135015000Y-59069675D01*
X135061903Y-59116579D01*
X135213001Y-59217542D01*
X135380916Y-59287087D01*
X135523000Y-59210359D01*
X135523000Y-58527000D01*
X135777000Y-58527000D01*
X135777000Y-59210359D01*
X135919084Y-59287087D01*
X136086999Y-59217542D01*
X136238097Y-59116579D01*
X136285000Y-59069675D01*
X136331903Y-59116579D01*
X136483001Y-59217542D01*
X136650916Y-59287087D01*
X136793000Y-59210359D01*
X136793000Y-58527000D01*
X137047000Y-58527000D01*
X137047000Y-59210359D01*
X137189084Y-59287087D01*
X137356999Y-59217542D01*
X137508097Y-59116579D01*
X137636594Y-58988078D01*
X137737553Y-58836978D01*
X137807094Y-58669085D01*
X137731517Y-58527000D01*
X137047000Y-58527000D01*
X136793000Y-58527000D01*
X135777000Y-58527000D01*
X135523000Y-58527000D01*
X134507000Y-58527000D01*
X134253000Y-58527000D01*
X133237000Y-58527000D01*
X132983000Y-58527000D01*
X132963000Y-58527000D01*
X132963000Y-58273000D01*
X132983000Y-58273000D01*
X132983000Y-57579750D01*
X133237000Y-57579750D01*
X133237000Y-58273000D01*
X134253000Y-58273000D01*
X134253000Y-57589641D01*
X134507000Y-57589641D01*
X134507000Y-58273000D01*
X135523000Y-58273000D01*
X135523000Y-57589641D01*
X135777000Y-57589641D01*
X135777000Y-58273000D01*
X136793000Y-58273000D01*
X136793000Y-57589641D01*
X137047000Y-57589641D01*
X137047000Y-58273000D01*
X137731517Y-58273000D01*
X137807094Y-58130915D01*
X137737553Y-57963022D01*
X137636594Y-57811922D01*
X137508097Y-57683421D01*
X137356999Y-57582458D01*
X137189084Y-57512913D01*
X137047000Y-57589641D01*
X136793000Y-57589641D01*
X136650916Y-57512913D01*
X136483001Y-57582458D01*
X136331903Y-57683421D01*
X136285000Y-57730325D01*
X136238097Y-57683421D01*
X136086999Y-57582458D01*
X135919084Y-57512913D01*
X135777000Y-57589641D01*
X135523000Y-57589641D01*
X135380916Y-57512913D01*
X135213001Y-57582458D01*
X135061903Y-57683421D01*
X135015000Y-57730325D01*
X134968097Y-57683421D01*
X134816999Y-57582458D01*
X134649084Y-57512913D01*
X134507000Y-57589641D01*
X134253000Y-57589641D01*
X134110916Y-57512913D01*
X133943001Y-57582458D01*
X133916382Y-57600245D01*
X133913395Y-57596605D01*
X133848376Y-57543245D01*
X133774196Y-57503595D01*
X133693707Y-57479178D01*
X133610000Y-57470934D01*
X133343750Y-57473000D01*
X133237000Y-57579750D01*
X132983000Y-57579750D01*
X132876250Y-57473000D01*
X132627680Y-57471071D01*
X132644939Y-57330300D01*
X132694899Y-57199938D01*
X132774238Y-57086412D01*
X132805605Y-57060000D01*
X142967721Y-57060000D01*
X143065424Y-57069580D01*
G04 #@! TA.AperFunction,Conductor*
D21*
G36*
X143065424Y-57069580D02*
G01*
X143128356Y-57088580D01*
X143186405Y-57119445D01*
X143237343Y-57160989D01*
X143279248Y-57211644D01*
X143310515Y-57269471D01*
X143329956Y-57332272D01*
X143340000Y-57427835D01*
X143340000Y-58232418D01*
X143340001Y-58232428D01*
X143340000Y-62832418D01*
X143340001Y-62832428D01*
X143340000Y-65199654D01*
X143300374Y-65225982D01*
X143293274Y-65231856D01*
X143218522Y-65294581D01*
X143176695Y-65337294D01*
X143134226Y-65379467D01*
X143128402Y-65386609D01*
X143067256Y-65462659D01*
X143034535Y-65512661D01*
X143001049Y-65562306D01*
X142996723Y-65570443D01*
X142951513Y-65656922D01*
X142929104Y-65712388D01*
X142905925Y-65767527D01*
X142903262Y-65776349D01*
X142875710Y-65869961D01*
X142864508Y-65928682D01*
X142852471Y-65987322D01*
X142851572Y-65996493D01*
X142842728Y-66093675D01*
X142843146Y-66153492D01*
X142842728Y-66213308D01*
X142843627Y-66222479D01*
X142853827Y-66319527D01*
X142865861Y-66378152D01*
X142877064Y-66436884D01*
X142879728Y-66445706D01*
X142908584Y-66538925D01*
X142931767Y-66594075D01*
X142954175Y-66649537D01*
X142958502Y-66657673D01*
X143004914Y-66743511D01*
X143038362Y-66793098D01*
X143071119Y-66843156D01*
X143076943Y-66850297D01*
X143139145Y-66925486D01*
X143181594Y-66967639D01*
X143223439Y-67010371D01*
X143230540Y-67016245D01*
X143306160Y-67077921D01*
X143340001Y-67100405D01*
X143340000Y-69632418D01*
X143340001Y-69632428D01*
X143340000Y-74167581D01*
X143340000Y-74867721D01*
X143330420Y-74965424D01*
X143311420Y-75028357D01*
X143304996Y-75040439D01*
X143019897Y-75205163D01*
X142945483Y-75240000D01*
X133312430Y-75240000D01*
X133185441Y-75136672D01*
X133076000Y-75004203D01*
X132994651Y-74852860D01*
X132960945Y-74742305D01*
X132983000Y-74720250D01*
X132983000Y-74027000D01*
X133237000Y-74027000D01*
X133237000Y-74720250D01*
X133343750Y-74827000D01*
X133610000Y-74829066D01*
X133693707Y-74820822D01*
X133774196Y-74796405D01*
X133848376Y-74756755D01*
X133913395Y-74703395D01*
X133916382Y-74699755D01*
X133943001Y-74717542D01*
X134110916Y-74787087D01*
X134253000Y-74710359D01*
X134253000Y-74027000D01*
X134507000Y-74027000D01*
X134507000Y-74710359D01*
X134649084Y-74787087D01*
X134816999Y-74717542D01*
X134968097Y-74616579D01*
X135015000Y-74569675D01*
X135061903Y-74616579D01*
X135213001Y-74717542D01*
X135380916Y-74787087D01*
X135523000Y-74710359D01*
X135523000Y-74027000D01*
X135777000Y-74027000D01*
X135777000Y-74710359D01*
X135919084Y-74787087D01*
X136086999Y-74717542D01*
X136238097Y-74616579D01*
X136285000Y-74569675D01*
X136331903Y-74616579D01*
X136483001Y-74717542D01*
X136650916Y-74787087D01*
X136793000Y-74710359D01*
X136793000Y-74027000D01*
X137047000Y-74027000D01*
X137047000Y-74710359D01*
X137189084Y-74787087D01*
X137356999Y-74717542D01*
X137508097Y-74616579D01*
X137636594Y-74488078D01*
X137737553Y-74336978D01*
X137807094Y-74169085D01*
X137731517Y-74027000D01*
X137047000Y-74027000D01*
X136793000Y-74027000D01*
X135777000Y-74027000D01*
X135523000Y-74027000D01*
X134507000Y-74027000D01*
X134253000Y-74027000D01*
X133237000Y-74027000D01*
X132983000Y-74027000D01*
X132963000Y-74027000D01*
X132963000Y-73773000D01*
X132983000Y-73773000D01*
X132983000Y-73079750D01*
X133237000Y-73079750D01*
X133237000Y-73773000D01*
X134253000Y-73773000D01*
X134253000Y-73089641D01*
X134507000Y-73089641D01*
X134507000Y-73773000D01*
X135523000Y-73773000D01*
X135523000Y-73089641D01*
X135777000Y-73089641D01*
X135777000Y-73773000D01*
X136793000Y-73773000D01*
X136793000Y-73089641D01*
X137047000Y-73089641D01*
X137047000Y-73773000D01*
X137731517Y-73773000D01*
X137807094Y-73630915D01*
X137737553Y-73463022D01*
X137636594Y-73311922D01*
X137508097Y-73183421D01*
X137356999Y-73082458D01*
X137189084Y-73012913D01*
X137047000Y-73089641D01*
X136793000Y-73089641D01*
X136650916Y-73012913D01*
X136483001Y-73082458D01*
X136331903Y-73183421D01*
X136285000Y-73230325D01*
X136238097Y-73183421D01*
X136086999Y-73082458D01*
X135919084Y-73012913D01*
X135777000Y-73089641D01*
X135523000Y-73089641D01*
X135380916Y-73012913D01*
X135213001Y-73082458D01*
X135061903Y-73183421D01*
X135015000Y-73230325D01*
X134968097Y-73183421D01*
X134816999Y-73082458D01*
X134649084Y-73012913D01*
X134507000Y-73089641D01*
X134253000Y-73089641D01*
X134110916Y-73012913D01*
X133943001Y-73082458D01*
X133916382Y-73100245D01*
X133913395Y-73096605D01*
X133848376Y-73043245D01*
X133774196Y-73003595D01*
X133693707Y-72979178D01*
X133610000Y-72970934D01*
X133343750Y-72973000D01*
X133237000Y-73079750D01*
X132983000Y-73079750D01*
X132927000Y-73023750D01*
X132927000Y-72500000D01*
X132926218Y-72485929D01*
X132906251Y-72306821D01*
X132900054Y-72279370D01*
X132841133Y-72109056D01*
X132829042Y-72083645D01*
X132734061Y-71930488D01*
X132716670Y-71908361D01*
X132590291Y-71779882D01*
X132568457Y-71762131D01*
X132416888Y-71664637D01*
X132391677Y-71652128D01*
X132222357Y-71590408D01*
X132195013Y-71583759D01*
X132016259Y-71560841D01*
X132002203Y-71559827D01*
X130184388Y-71529853D01*
X130002864Y-71508384D01*
X129835499Y-71452885D01*
X129677111Y-71361634D01*
X128905907Y-70806500D01*
X128777521Y-70694279D01*
X128676203Y-70564717D01*
X128600998Y-70418433D01*
X128554589Y-70260641D01*
X128538034Y-70090934D01*
X128536269Y-69468626D01*
X128568450Y-69451425D01*
X128668948Y-69368948D01*
X128751425Y-69268450D01*
X128812710Y-69153793D01*
X128850450Y-69029383D01*
X128863193Y-68900000D01*
X128860000Y-68867581D01*
X128860000Y-66099258D01*
X137542748Y-66099258D01*
X137543166Y-66159075D01*
X137542748Y-66218892D01*
X137543647Y-66228064D01*
X137570167Y-66480389D01*
X137582205Y-66539031D01*
X137593405Y-66597747D01*
X137596068Y-66606569D01*
X137671095Y-66848938D01*
X137694265Y-66904056D01*
X137716683Y-66959545D01*
X137721009Y-66967681D01*
X137841682Y-67190862D01*
X137875150Y-67240480D01*
X137907889Y-67290511D01*
X137913713Y-67297652D01*
X138075438Y-67493143D01*
X138117872Y-67535282D01*
X138159735Y-67578031D01*
X138166836Y-67583904D01*
X138166839Y-67583907D01*
X138166843Y-67583909D01*
X138363450Y-67744260D01*
X138413238Y-67777339D01*
X138462634Y-67811161D01*
X138470741Y-67815544D01*
X138694759Y-67934656D01*
X138750062Y-67957450D01*
X138805044Y-67981016D01*
X138813847Y-67983741D01*
X139056733Y-68057073D01*
X139115418Y-68068693D01*
X139173926Y-68081129D01*
X139183089Y-68082092D01*
X139183091Y-68082092D01*
X139435596Y-68106850D01*
X139435598Y-68106850D01*
X139467581Y-68110000D01*
X140532419Y-68110000D01*
X140565683Y-68106724D01*
X140582555Y-68106724D01*
X140591720Y-68105760D01*
X140843853Y-68077479D01*
X140902354Y-68065044D01*
X140961046Y-68053423D01*
X140969849Y-68050698D01*
X141211688Y-67973982D01*
X141266685Y-67950410D01*
X141321974Y-67927622D01*
X141330080Y-67923239D01*
X141552414Y-67801011D01*
X141601794Y-67767199D01*
X141651598Y-67734110D01*
X141658699Y-67728236D01*
X141853056Y-67565150D01*
X141894899Y-67522420D01*
X141937352Y-67480264D01*
X141943176Y-67473122D01*
X142102156Y-67275392D01*
X142134916Y-67225330D01*
X142168362Y-67175744D01*
X142172688Y-67167607D01*
X142290234Y-66942764D01*
X142312653Y-66887274D01*
X142335823Y-66832155D01*
X142338487Y-66823333D01*
X142410121Y-66579940D01*
X142421333Y-66521166D01*
X142433358Y-66462585D01*
X142434257Y-66453414D01*
X142457252Y-66200742D01*
X142456834Y-66140925D01*
X142457252Y-66081108D01*
X142456353Y-66071936D01*
X142429833Y-65819611D01*
X142417794Y-65760962D01*
X142406595Y-65702253D01*
X142403932Y-65693431D01*
X142328906Y-65451062D01*
X142305716Y-65395898D01*
X142283317Y-65340456D01*
X142278991Y-65332319D01*
X142158318Y-65109138D01*
X142124865Y-65059543D01*
X142092111Y-65009489D01*
X142086287Y-65002348D01*
X141924562Y-64806857D01*
X141882128Y-64764718D01*
X141840265Y-64721969D01*
X141833164Y-64716095D01*
X141636549Y-64555740D01*
X141586733Y-64522642D01*
X141537366Y-64488839D01*
X141529259Y-64484456D01*
X141305241Y-64365344D01*
X141249950Y-64342555D01*
X141194956Y-64318984D01*
X141186153Y-64316259D01*
X140943267Y-64242927D01*
X140884582Y-64231307D01*
X140826074Y-64218871D01*
X140816911Y-64217908D01*
X140816909Y-64217908D01*
X140564404Y-64193150D01*
X140564402Y-64193150D01*
X140532419Y-64190000D01*
X139467581Y-64190000D01*
X139434309Y-64193277D01*
X139417445Y-64193277D01*
X139408280Y-64194240D01*
X139156146Y-64222521D01*
X139097638Y-64234957D01*
X139038953Y-64246577D01*
X139030150Y-64249302D01*
X138788312Y-64326018D01*
X138733315Y-64349590D01*
X138678026Y-64372378D01*
X138669920Y-64376761D01*
X138447587Y-64498989D01*
X138398224Y-64532789D01*
X138348402Y-64565890D01*
X138341302Y-64571764D01*
X138146944Y-64734850D01*
X138105118Y-64777563D01*
X138062648Y-64819736D01*
X138056824Y-64826878D01*
X137897844Y-65024608D01*
X137865084Y-65074670D01*
X137831638Y-65124256D01*
X137827312Y-65132393D01*
X137709767Y-65357236D01*
X137687371Y-65412668D01*
X137664177Y-65467844D01*
X137661514Y-65476666D01*
X137589879Y-65720060D01*
X137578666Y-65778841D01*
X137566642Y-65837415D01*
X137565743Y-65846587D01*
X137542748Y-66099258D01*
X128860000Y-66099258D01*
X128860000Y-63432419D01*
X128863193Y-63400000D01*
X128850450Y-63270617D01*
X128812710Y-63146207D01*
X128751425Y-63031550D01*
X128725561Y-63000034D01*
X132477367Y-63000034D01*
X132477367Y-63299966D01*
X132535881Y-63594136D01*
X132650660Y-63871237D01*
X132817294Y-64120622D01*
X133029378Y-64332706D01*
X133278763Y-64499340D01*
X133555864Y-64614119D01*
X133850034Y-64672633D01*
X134149966Y-64672633D01*
X134444136Y-64614119D01*
X134721237Y-64499340D01*
X134970622Y-64332706D01*
X135182706Y-64120622D01*
X135349340Y-63871237D01*
X135464119Y-63594136D01*
X135522633Y-63299966D01*
X135522633Y-63000034D01*
X135464119Y-62705864D01*
X135349340Y-62428763D01*
X135182706Y-62179378D01*
X134970622Y-61967294D01*
X134721237Y-61800660D01*
X134444136Y-61685881D01*
X134149966Y-61627367D01*
X133850034Y-61627367D01*
X133555864Y-61685881D01*
X133278763Y-61800660D01*
X133029378Y-61967294D01*
X132817294Y-62179378D01*
X132650660Y-62428763D01*
X132535881Y-62705864D01*
X132477367Y-63000034D01*
X128725561Y-63000034D01*
X128668948Y-62931052D01*
X128568450Y-62848575D01*
X128517419Y-62821298D01*
X128515831Y-62261352D01*
X128536421Y-62066901D01*
X128596136Y-61887992D01*
X128692912Y-61726106D01*
X128826980Y-61583759D01*
X129697667Y-60839898D01*
X129827729Y-60747313D01*
X129966959Y-60681447D01*
X130115589Y-60641091D01*
X130274615Y-60627000D01*
X131500000Y-60627000D01*
X131512448Y-60626388D01*
X131707538Y-60607173D01*
X131731956Y-60602317D01*
X131919549Y-60545412D01*
X131942550Y-60535884D01*
X132115437Y-60443474D01*
X132136138Y-60429642D01*
X132287675Y-60305279D01*
X132305279Y-60287675D01*
X132429642Y-60136138D01*
X132443474Y-60115437D01*
X132535884Y-59942550D01*
X132545412Y-59919549D01*
X132602317Y-59731956D01*
X132607173Y-59707538D01*
X132626388Y-59512448D01*
X132627000Y-59500000D01*
X132627000Y-59328934D01*
X132876250Y-59327000D01*
X132983000Y-59220250D01*
X132983000Y-58527000D01*
X133237000Y-58527000D01*
X133237000Y-59220250D01*
X133343750Y-59327000D01*
X133610000Y-59329066D01*
X133693707Y-59320822D01*
X133774196Y-59296405D01*
X133848376Y-59256755D01*
X133913395Y-59203395D01*
X133916382Y-59199755D01*
X133943001Y-59217542D01*
X134110916Y-59287087D01*
X134253000Y-59210359D01*
X134253000Y-58527000D01*
X134507000Y-58527000D01*
X134507000Y-59210359D01*
X134649084Y-59287087D01*
X134816999Y-59217542D01*
X134968097Y-59116579D01*
X135015000Y-59069675D01*
X135061903Y-59116579D01*
X135213001Y-59217542D01*
X135380916Y-59287087D01*
X135523000Y-59210359D01*
X135523000Y-58527000D01*
X135777000Y-58527000D01*
X135777000Y-59210359D01*
X135919084Y-59287087D01*
X136086999Y-59217542D01*
X136238097Y-59116579D01*
X136285000Y-59069675D01*
X136331903Y-59116579D01*
X136483001Y-59217542D01*
X136650916Y-59287087D01*
X136793000Y-59210359D01*
X136793000Y-58527000D01*
X137047000Y-58527000D01*
X137047000Y-59210359D01*
X137189084Y-59287087D01*
X137356999Y-59217542D01*
X137508097Y-59116579D01*
X137636594Y-58988078D01*
X137737553Y-58836978D01*
X137807094Y-58669085D01*
X137731517Y-58527000D01*
X137047000Y-58527000D01*
X136793000Y-58527000D01*
X135777000Y-58527000D01*
X135523000Y-58527000D01*
X134507000Y-58527000D01*
X134253000Y-58527000D01*
X133237000Y-58527000D01*
X132983000Y-58527000D01*
X132963000Y-58527000D01*
X132963000Y-58273000D01*
X132983000Y-58273000D01*
X132983000Y-57579750D01*
X133237000Y-57579750D01*
X133237000Y-58273000D01*
X134253000Y-58273000D01*
X134253000Y-57589641D01*
X134507000Y-57589641D01*
X134507000Y-58273000D01*
X135523000Y-58273000D01*
X135523000Y-57589641D01*
X135777000Y-57589641D01*
X135777000Y-58273000D01*
X136793000Y-58273000D01*
X136793000Y-57589641D01*
X137047000Y-57589641D01*
X137047000Y-58273000D01*
X137731517Y-58273000D01*
X137807094Y-58130915D01*
X137737553Y-57963022D01*
X137636594Y-57811922D01*
X137508097Y-57683421D01*
X137356999Y-57582458D01*
X137189084Y-57512913D01*
X137047000Y-57589641D01*
X136793000Y-57589641D01*
X136650916Y-57512913D01*
X136483001Y-57582458D01*
X136331903Y-57683421D01*
X136285000Y-57730325D01*
X136238097Y-57683421D01*
X136086999Y-57582458D01*
X135919084Y-57512913D01*
X135777000Y-57589641D01*
X135523000Y-57589641D01*
X135380916Y-57512913D01*
X135213001Y-57582458D01*
X135061903Y-57683421D01*
X135015000Y-57730325D01*
X134968097Y-57683421D01*
X134816999Y-57582458D01*
X134649084Y-57512913D01*
X134507000Y-57589641D01*
X134253000Y-57589641D01*
X134110916Y-57512913D01*
X133943001Y-57582458D01*
X133916382Y-57600245D01*
X133913395Y-57596605D01*
X133848376Y-57543245D01*
X133774196Y-57503595D01*
X133693707Y-57479178D01*
X133610000Y-57470934D01*
X133343750Y-57473000D01*
X133237000Y-57579750D01*
X132983000Y-57579750D01*
X132876250Y-57473000D01*
X132627680Y-57471071D01*
X132644939Y-57330300D01*
X132694899Y-57199938D01*
X132774238Y-57086412D01*
X132805605Y-57060000D01*
X142967721Y-57060000D01*
X143065424Y-57069580D01*
G37*
G04 #@! TD.AperFunction*
D20*
X127773942Y-57063845D02*
X127825159Y-57154904D01*
X127846572Y-57256467D01*
X127836193Y-57352974D01*
X127795803Y-57440492D01*
X127729564Y-57510513D01*
X127644422Y-57555696D01*
X127538958Y-57573000D01*
X127250000Y-57573000D01*
X127235781Y-57573799D01*
X127068890Y-57592603D01*
X127041164Y-57598931D01*
X126882642Y-57654400D01*
X126857019Y-57666739D01*
X126714815Y-57756092D01*
X126692580Y-57773823D01*
X126573823Y-57892580D01*
X126556092Y-57914815D01*
X126466739Y-58057019D01*
X126454400Y-58082642D01*
X126398931Y-58241164D01*
X126392603Y-58268890D01*
X126373799Y-58435781D01*
X126373000Y-58450000D01*
X126373000Y-59737491D01*
X126361338Y-59796119D01*
X126335215Y-59835215D01*
X126296119Y-59861338D01*
X126237491Y-59873000D01*
X115423898Y-59873000D01*
X115239906Y-59854085D01*
X115069849Y-59800111D01*
X114908624Y-59709459D01*
X114751515Y-59598557D01*
X114620599Y-59485969D01*
X114517247Y-59355326D01*
X114440613Y-59207430D01*
X114393485Y-59047659D01*
X114379324Y-58900000D01*
X114700934Y-58900000D01*
X114709178Y-58983707D01*
X114733595Y-59064196D01*
X114773245Y-59138376D01*
X114826605Y-59203395D01*
X114891624Y-59256755D01*
X114965804Y-59296405D01*
X115046293Y-59320822D01*
X115130000Y-59329066D01*
X115396250Y-59327000D01*
X115503000Y-59220250D01*
X115503000Y-58527000D01*
X115757000Y-58527000D01*
X115757000Y-59220250D01*
X115863750Y-59327000D01*
X116130000Y-59329066D01*
X116213707Y-59320822D01*
X116294196Y-59296405D01*
X116368376Y-59256755D01*
X116433395Y-59203395D01*
X116436382Y-59199755D01*
X116463001Y-59217542D01*
X116630916Y-59287087D01*
X116773000Y-59210359D01*
X116773000Y-58527000D01*
X117027000Y-58527000D01*
X117027000Y-59210359D01*
X117169084Y-59287087D01*
X117336999Y-59217542D01*
X117488097Y-59116579D01*
X117535000Y-59069675D01*
X117581903Y-59116579D01*
X117733001Y-59217542D01*
X117900916Y-59287087D01*
X118043000Y-59210359D01*
X118043000Y-58527000D01*
X118297000Y-58527000D01*
X118297000Y-59210359D01*
X118439084Y-59287087D01*
X118606999Y-59217542D01*
X118758097Y-59116579D01*
X118805000Y-59069675D01*
X118851903Y-59116579D01*
X119003001Y-59217542D01*
X119170916Y-59287087D01*
X119313000Y-59210359D01*
X119313000Y-58527000D01*
X119567000Y-58527000D01*
X119567000Y-59210359D01*
X119709084Y-59287087D01*
X119876999Y-59217542D01*
X120028097Y-59116579D01*
X120156594Y-58988078D01*
X120257553Y-58836978D01*
X120327094Y-58669085D01*
X120251517Y-58527000D01*
X119567000Y-58527000D01*
X119313000Y-58527000D01*
X118297000Y-58527000D01*
X118043000Y-58527000D01*
X117027000Y-58527000D01*
X116773000Y-58527000D01*
X115757000Y-58527000D01*
X115503000Y-58527000D01*
X114809750Y-58527000D01*
X114703000Y-58633750D01*
X114700934Y-58900000D01*
X114379324Y-58900000D01*
X114377000Y-58875768D01*
X114377000Y-57900000D01*
X114700934Y-57900000D01*
X114703000Y-58166250D01*
X114809750Y-58273000D01*
X115503000Y-58273000D01*
X115503000Y-57579750D01*
X115757000Y-57579750D01*
X115757000Y-58273000D01*
X116773000Y-58273000D01*
X116773000Y-57589641D01*
X117027000Y-57589641D01*
X117027000Y-58273000D01*
X118043000Y-58273000D01*
X118043000Y-57589641D01*
X118297000Y-57589641D01*
X118297000Y-58273000D01*
X119313000Y-58273000D01*
X119313000Y-57589641D01*
X119567000Y-57589641D01*
X119567000Y-58273000D01*
X120251517Y-58273000D01*
X120327094Y-58130915D01*
X120257553Y-57963022D01*
X120156594Y-57811922D01*
X120028097Y-57683421D01*
X119876999Y-57582458D01*
X119709084Y-57512913D01*
X119567000Y-57589641D01*
X119313000Y-57589641D01*
X119170916Y-57512913D01*
X119003001Y-57582458D01*
X118851903Y-57683421D01*
X118805000Y-57730325D01*
X118758097Y-57683421D01*
X118606999Y-57582458D01*
X118439084Y-57512913D01*
X118297000Y-57589641D01*
X118043000Y-57589641D01*
X117900916Y-57512913D01*
X117733001Y-57582458D01*
X117581903Y-57683421D01*
X117535000Y-57730325D01*
X117488097Y-57683421D01*
X117336999Y-57582458D01*
X117169084Y-57512913D01*
X117027000Y-57589641D01*
X116773000Y-57589641D01*
X116630916Y-57512913D01*
X116463001Y-57582458D01*
X116436382Y-57600245D01*
X116433395Y-57596605D01*
X116368376Y-57543245D01*
X116294196Y-57503595D01*
X116213707Y-57479178D01*
X116130000Y-57470934D01*
X115863750Y-57473000D01*
X115757000Y-57579750D01*
X115503000Y-57579750D01*
X115396250Y-57473000D01*
X115130000Y-57470934D01*
X115046293Y-57479178D01*
X114965804Y-57503595D01*
X114891624Y-57543245D01*
X114826605Y-57596605D01*
X114773245Y-57661624D01*
X114733595Y-57735804D01*
X114709178Y-57816293D01*
X114700934Y-57900000D01*
X114377000Y-57900000D01*
X114377000Y-57162509D01*
X114388662Y-57103881D01*
X114414785Y-57064785D01*
X114421946Y-57060000D01*
X127769847Y-57060000D01*
X127773942Y-57063845D01*
G04 #@! TA.AperFunction,Conductor*
D21*
G36*
X127773942Y-57063845D02*
G01*
X127825159Y-57154904D01*
X127846572Y-57256467D01*
X127836193Y-57352974D01*
X127795803Y-57440492D01*
X127729564Y-57510513D01*
X127644422Y-57555696D01*
X127538958Y-57573000D01*
X127250000Y-57573000D01*
X127235781Y-57573799D01*
X127068890Y-57592603D01*
X127041164Y-57598931D01*
X126882642Y-57654400D01*
X126857019Y-57666739D01*
X126714815Y-57756092D01*
X126692580Y-57773823D01*
X126573823Y-57892580D01*
X126556092Y-57914815D01*
X126466739Y-58057019D01*
X126454400Y-58082642D01*
X126398931Y-58241164D01*
X126392603Y-58268890D01*
X126373799Y-58435781D01*
X126373000Y-58450000D01*
X126373000Y-59737491D01*
X126361338Y-59796119D01*
X126335215Y-59835215D01*
X126296119Y-59861338D01*
X126237491Y-59873000D01*
X115423898Y-59873000D01*
X115239906Y-59854085D01*
X115069849Y-59800111D01*
X114908624Y-59709459D01*
X114751515Y-59598557D01*
X114620599Y-59485969D01*
X114517247Y-59355326D01*
X114440613Y-59207430D01*
X114393485Y-59047659D01*
X114379324Y-58900000D01*
X114700934Y-58900000D01*
X114709178Y-58983707D01*
X114733595Y-59064196D01*
X114773245Y-59138376D01*
X114826605Y-59203395D01*
X114891624Y-59256755D01*
X114965804Y-59296405D01*
X115046293Y-59320822D01*
X115130000Y-59329066D01*
X115396250Y-59327000D01*
X115503000Y-59220250D01*
X115503000Y-58527000D01*
X115757000Y-58527000D01*
X115757000Y-59220250D01*
X115863750Y-59327000D01*
X116130000Y-59329066D01*
X116213707Y-59320822D01*
X116294196Y-59296405D01*
X116368376Y-59256755D01*
X116433395Y-59203395D01*
X116436382Y-59199755D01*
X116463001Y-59217542D01*
X116630916Y-59287087D01*
X116773000Y-59210359D01*
X116773000Y-58527000D01*
X117027000Y-58527000D01*
X117027000Y-59210359D01*
X117169084Y-59287087D01*
X117336999Y-59217542D01*
X117488097Y-59116579D01*
X117535000Y-59069675D01*
X117581903Y-59116579D01*
X117733001Y-59217542D01*
X117900916Y-59287087D01*
X118043000Y-59210359D01*
X118043000Y-58527000D01*
X118297000Y-58527000D01*
X118297000Y-59210359D01*
X118439084Y-59287087D01*
X118606999Y-59217542D01*
X118758097Y-59116579D01*
X118805000Y-59069675D01*
X118851903Y-59116579D01*
X119003001Y-59217542D01*
X119170916Y-59287087D01*
X119313000Y-59210359D01*
X119313000Y-58527000D01*
X119567000Y-58527000D01*
X119567000Y-59210359D01*
X119709084Y-59287087D01*
X119876999Y-59217542D01*
X120028097Y-59116579D01*
X120156594Y-58988078D01*
X120257553Y-58836978D01*
X120327094Y-58669085D01*
X120251517Y-58527000D01*
X119567000Y-58527000D01*
X119313000Y-58527000D01*
X118297000Y-58527000D01*
X118043000Y-58527000D01*
X117027000Y-58527000D01*
X116773000Y-58527000D01*
X115757000Y-58527000D01*
X115503000Y-58527000D01*
X114809750Y-58527000D01*
X114703000Y-58633750D01*
X114700934Y-58900000D01*
X114379324Y-58900000D01*
X114377000Y-58875768D01*
X114377000Y-57900000D01*
X114700934Y-57900000D01*
X114703000Y-58166250D01*
X114809750Y-58273000D01*
X115503000Y-58273000D01*
X115503000Y-57579750D01*
X115757000Y-57579750D01*
X115757000Y-58273000D01*
X116773000Y-58273000D01*
X116773000Y-57589641D01*
X117027000Y-57589641D01*
X117027000Y-58273000D01*
X118043000Y-58273000D01*
X118043000Y-57589641D01*
X118297000Y-57589641D01*
X118297000Y-58273000D01*
X119313000Y-58273000D01*
X119313000Y-57589641D01*
X119567000Y-57589641D01*
X119567000Y-58273000D01*
X120251517Y-58273000D01*
X120327094Y-58130915D01*
X120257553Y-57963022D01*
X120156594Y-57811922D01*
X120028097Y-57683421D01*
X119876999Y-57582458D01*
X119709084Y-57512913D01*
X119567000Y-57589641D01*
X119313000Y-57589641D01*
X119170916Y-57512913D01*
X119003001Y-57582458D01*
X118851903Y-57683421D01*
X118805000Y-57730325D01*
X118758097Y-57683421D01*
X118606999Y-57582458D01*
X118439084Y-57512913D01*
X118297000Y-57589641D01*
X118043000Y-57589641D01*
X117900916Y-57512913D01*
X117733001Y-57582458D01*
X117581903Y-57683421D01*
X117535000Y-57730325D01*
X117488097Y-57683421D01*
X117336999Y-57582458D01*
X117169084Y-57512913D01*
X117027000Y-57589641D01*
X116773000Y-57589641D01*
X116630916Y-57512913D01*
X116463001Y-57582458D01*
X116436382Y-57600245D01*
X116433395Y-57596605D01*
X116368376Y-57543245D01*
X116294196Y-57503595D01*
X116213707Y-57479178D01*
X116130000Y-57470934D01*
X115863750Y-57473000D01*
X115757000Y-57579750D01*
X115503000Y-57579750D01*
X115396250Y-57473000D01*
X115130000Y-57470934D01*
X115046293Y-57479178D01*
X114965804Y-57503595D01*
X114891624Y-57543245D01*
X114826605Y-57596605D01*
X114773245Y-57661624D01*
X114733595Y-57735804D01*
X114709178Y-57816293D01*
X114700934Y-57900000D01*
X114377000Y-57900000D01*
X114377000Y-57162509D01*
X114388662Y-57103881D01*
X114414785Y-57064785D01*
X114421946Y-57060000D01*
X127769847Y-57060000D01*
X127773942Y-57063845D01*
G37*
G04 #@! TD.AperFunction*
D20*
X119238986Y-62493389D02*
X119371061Y-62539393D01*
X119489665Y-62613522D01*
X119588888Y-62712087D01*
X119610180Y-62745653D01*
X119570617Y-62749550D01*
X119446207Y-62787290D01*
X119331550Y-62848575D01*
X119231052Y-62931052D01*
X119148575Y-63031550D01*
X119087290Y-63146207D01*
X119049550Y-63270617D01*
X119036807Y-63400000D01*
X119040000Y-63432419D01*
X119040001Y-68867571D01*
X119036807Y-68900000D01*
X119049550Y-69029383D01*
X119087290Y-69153793D01*
X119148575Y-69268450D01*
X119231052Y-69368948D01*
X119331550Y-69451425D01*
X119446207Y-69512710D01*
X119570617Y-69550450D01*
X119571825Y-69550569D01*
X119536200Y-69586432D01*
X119418854Y-69660556D01*
X119287915Y-69706584D01*
X119149937Y-69722196D01*
X119011014Y-69706611D01*
X118878939Y-69660607D01*
X118760335Y-69586478D01*
X118661112Y-69487913D01*
X118586198Y-69369814D01*
X118539313Y-69238044D01*
X118521950Y-69092068D01*
X118482045Y-63106300D01*
X118497493Y-62961115D01*
X118542647Y-62829873D01*
X118615987Y-62712036D01*
X118713800Y-62613568D01*
X118831146Y-62539444D01*
X118962085Y-62493416D01*
X119100063Y-62477804D01*
X119238986Y-62493389D01*
G04 #@! TA.AperFunction,Conductor*
D21*
G36*
X119238986Y-62493389D02*
G01*
X119371061Y-62539393D01*
X119489665Y-62613522D01*
X119588888Y-62712087D01*
X119610180Y-62745653D01*
X119570617Y-62749550D01*
X119446207Y-62787290D01*
X119331550Y-62848575D01*
X119231052Y-62931052D01*
X119148575Y-63031550D01*
X119087290Y-63146207D01*
X119049550Y-63270617D01*
X119036807Y-63400000D01*
X119040000Y-63432419D01*
X119040001Y-68867571D01*
X119036807Y-68900000D01*
X119049550Y-69029383D01*
X119087290Y-69153793D01*
X119148575Y-69268450D01*
X119231052Y-69368948D01*
X119331550Y-69451425D01*
X119446207Y-69512710D01*
X119570617Y-69550450D01*
X119571825Y-69550569D01*
X119536200Y-69586432D01*
X119418854Y-69660556D01*
X119287915Y-69706584D01*
X119149937Y-69722196D01*
X119011014Y-69706611D01*
X118878939Y-69660607D01*
X118760335Y-69586478D01*
X118661112Y-69487913D01*
X118586198Y-69369814D01*
X118539313Y-69238044D01*
X118521950Y-69092068D01*
X118482045Y-63106300D01*
X118497493Y-62961115D01*
X118542647Y-62829873D01*
X118615987Y-62712036D01*
X118713800Y-62613568D01*
X118831146Y-62539444D01*
X118962085Y-62493416D01*
X119100063Y-62477804D01*
X119238986Y-62493389D01*
G37*
G04 #@! TD.AperFunction*
D20*
X129682093Y-62494083D02*
X129844479Y-62542896D01*
X129994352Y-62622198D01*
X130126057Y-62728998D01*
X130234612Y-62859254D01*
X130315920Y-63008053D01*
X130366907Y-63169765D01*
X130386337Y-63344466D01*
X130459048Y-68761445D01*
X130443346Y-68941795D01*
X130393849Y-69109272D01*
X130311985Y-69263532D01*
X130201029Y-69398402D01*
X130065440Y-69508462D01*
X129910644Y-69589311D01*
X129742845Y-69637706D01*
X129562390Y-69652222D01*
X129088698Y-69642748D01*
X128914856Y-69622329D01*
X128754100Y-69570697D01*
X128606294Y-69489061D01*
X128564186Y-69453704D01*
X128568450Y-69451425D01*
X128668948Y-69368948D01*
X128751425Y-69268450D01*
X128812710Y-69153793D01*
X128850450Y-69029383D01*
X128863193Y-68900000D01*
X128860000Y-68867581D01*
X128860000Y-63432419D01*
X128863193Y-63400000D01*
X128850450Y-63270617D01*
X128812710Y-63146207D01*
X128751425Y-63031550D01*
X128668948Y-62931052D01*
X128568450Y-62848575D01*
X128453793Y-62787290D01*
X128441694Y-62783620D01*
X128483130Y-62733130D01*
X128615328Y-62624638D01*
X128766150Y-62544022D01*
X128929811Y-62494376D01*
X129106234Y-62477000D01*
X129507146Y-62477000D01*
X129682093Y-62494083D01*
G04 #@! TA.AperFunction,Conductor*
D21*
G36*
X129682093Y-62494083D02*
G01*
X129844479Y-62542896D01*
X129994352Y-62622198D01*
X130126057Y-62728998D01*
X130234612Y-62859254D01*
X130315920Y-63008053D01*
X130366907Y-63169765D01*
X130386337Y-63344466D01*
X130459048Y-68761445D01*
X130443346Y-68941795D01*
X130393849Y-69109272D01*
X130311985Y-69263532D01*
X130201029Y-69398402D01*
X130065440Y-69508462D01*
X129910644Y-69589311D01*
X129742845Y-69637706D01*
X129562390Y-69652222D01*
X129088698Y-69642748D01*
X128914856Y-69622329D01*
X128754100Y-69570697D01*
X128606294Y-69489061D01*
X128564186Y-69453704D01*
X128568450Y-69451425D01*
X128668948Y-69368948D01*
X128751425Y-69268450D01*
X128812710Y-69153793D01*
X128850450Y-69029383D01*
X128863193Y-68900000D01*
X128860000Y-68867581D01*
X128860000Y-63432419D01*
X128863193Y-63400000D01*
X128850450Y-63270617D01*
X128812710Y-63146207D01*
X128751425Y-63031550D01*
X128668948Y-62931052D01*
X128568450Y-62848575D01*
X128453793Y-62787290D01*
X128441694Y-62783620D01*
X128483130Y-62733130D01*
X128615328Y-62624638D01*
X128766150Y-62544022D01*
X128929811Y-62494376D01*
X129106234Y-62477000D01*
X129507146Y-62477000D01*
X129682093Y-62494083D01*
G37*
G04 #@! TD.AperFunction*
D20*
X119049550Y-69029383D02*
X119087290Y-69153793D01*
X119148575Y-69268450D01*
X119231052Y-69368948D01*
X119331550Y-69451425D01*
X119446207Y-69512710D01*
X119570617Y-69550450D01*
X119667581Y-69560000D01*
X119700000Y-69563193D01*
X119732419Y-69560000D01*
X120987648Y-69560000D01*
X120987445Y-69562265D01*
X120949934Y-69662338D01*
X120887142Y-69748821D01*
X120803603Y-69815473D01*
X120705338Y-69857489D01*
X120590866Y-69873000D01*
X118308321Y-69873000D01*
X118190805Y-69857529D01*
X118089047Y-69815379D01*
X118001668Y-69748332D01*
X117934621Y-69660953D01*
X117892471Y-69559195D01*
X117878095Y-69450000D01*
X117892471Y-69340805D01*
X117934621Y-69239047D01*
X118001668Y-69151668D01*
X118089047Y-69084621D01*
X118190805Y-69042471D01*
X118308321Y-69027000D01*
X119049315Y-69027000D01*
X119049550Y-69029383D01*
G04 #@! TA.AperFunction,Conductor*
D21*
G36*
X119049550Y-69029383D02*
G01*
X119087290Y-69153793D01*
X119148575Y-69268450D01*
X119231052Y-69368948D01*
X119331550Y-69451425D01*
X119446207Y-69512710D01*
X119570617Y-69550450D01*
X119667581Y-69560000D01*
X119700000Y-69563193D01*
X119732419Y-69560000D01*
X120987648Y-69560000D01*
X120987445Y-69562265D01*
X120949934Y-69662338D01*
X120887142Y-69748821D01*
X120803603Y-69815473D01*
X120705338Y-69857489D01*
X120590866Y-69873000D01*
X118308321Y-69873000D01*
X118190805Y-69857529D01*
X118089047Y-69815379D01*
X118001668Y-69748332D01*
X117934621Y-69660953D01*
X117892471Y-69559195D01*
X117878095Y-69450000D01*
X117892471Y-69340805D01*
X117934621Y-69239047D01*
X118001668Y-69151668D01*
X118089047Y-69084621D01*
X118190805Y-69042471D01*
X118308321Y-69027000D01*
X119049315Y-69027000D01*
X119049550Y-69029383D01*
G37*
G04 #@! TD.AperFunction*
D20*
X119040001Y-68634485D02*
X119040001Y-68867571D01*
X119036807Y-68900000D01*
X119049550Y-69029383D01*
X119087290Y-69153793D01*
X119148575Y-69268450D01*
X119231052Y-69368948D01*
X119331550Y-69451425D01*
X119446207Y-69512710D01*
X119570617Y-69550450D01*
X119667581Y-69560000D01*
X119700000Y-69563193D01*
X119732419Y-69560000D01*
X128167581Y-69560000D01*
X128200000Y-69563193D01*
X128232419Y-69560000D01*
X128329383Y-69550450D01*
X128453793Y-69512710D01*
X128568450Y-69451425D01*
X128668948Y-69368948D01*
X128751425Y-69268450D01*
X128812710Y-69153793D01*
X128850450Y-69029383D01*
X128863193Y-68900000D01*
X128860000Y-68867581D01*
X128860000Y-68662866D01*
X132992510Y-68674810D01*
X133138272Y-68691631D01*
X133269895Y-68738023D01*
X133387923Y-68812491D01*
X133486465Y-68911319D01*
X133560591Y-69029559D01*
X133606603Y-69161317D01*
X133622189Y-69299904D01*
X133606564Y-69437052D01*
X133560524Y-69567075D01*
X133486415Y-69683412D01*
X133388040Y-69780098D01*
X133270430Y-69852180D01*
X133139630Y-69895958D01*
X132995106Y-69909890D01*
X117085337Y-69633999D01*
X116947415Y-69613605D01*
X116826936Y-69561856D01*
X116723721Y-69480985D01*
X116644650Y-69376382D01*
X116594999Y-69255027D01*
X116578085Y-69125107D01*
X116595031Y-68996632D01*
X116644669Y-68877039D01*
X116723618Y-68774406D01*
X116826472Y-68695760D01*
X116946209Y-68646466D01*
X117082974Y-68628829D01*
X119040001Y-68634485D01*
G04 #@! TA.AperFunction,Conductor*
D21*
G36*
X119040001Y-68634485D02*
G01*
X119040001Y-68867571D01*
X119036807Y-68900000D01*
X119049550Y-69029383D01*
X119087290Y-69153793D01*
X119148575Y-69268450D01*
X119231052Y-69368948D01*
X119331550Y-69451425D01*
X119446207Y-69512710D01*
X119570617Y-69550450D01*
X119667581Y-69560000D01*
X119700000Y-69563193D01*
X119732419Y-69560000D01*
X128167581Y-69560000D01*
X128200000Y-69563193D01*
X128232419Y-69560000D01*
X128329383Y-69550450D01*
X128453793Y-69512710D01*
X128568450Y-69451425D01*
X128668948Y-69368948D01*
X128751425Y-69268450D01*
X128812710Y-69153793D01*
X128850450Y-69029383D01*
X128863193Y-68900000D01*
X128860000Y-68867581D01*
X128860000Y-68662866D01*
X132992510Y-68674810D01*
X133138272Y-68691631D01*
X133269895Y-68738023D01*
X133387923Y-68812491D01*
X133486465Y-68911319D01*
X133560591Y-69029559D01*
X133606603Y-69161317D01*
X133622189Y-69299904D01*
X133606564Y-69437052D01*
X133560524Y-69567075D01*
X133486415Y-69683412D01*
X133388040Y-69780098D01*
X133270430Y-69852180D01*
X133139630Y-69895958D01*
X132995106Y-69909890D01*
X117085337Y-69633999D01*
X116947415Y-69613605D01*
X116826936Y-69561856D01*
X116723721Y-69480985D01*
X116644650Y-69376382D01*
X116594999Y-69255027D01*
X116578085Y-69125107D01*
X116595031Y-68996632D01*
X116644669Y-68877039D01*
X116723618Y-68774406D01*
X116826472Y-68695760D01*
X116946209Y-68646466D01*
X117082974Y-68628829D01*
X119040001Y-68634485D01*
G37*
G04 #@! TD.AperFunction*
D20*
X115888794Y-72776820D02*
X115889927Y-72776835D01*
X115907801Y-72776995D01*
X115908938Y-72777000D01*
X116445190Y-72777000D01*
X116453660Y-72777038D01*
X116793569Y-72780073D01*
X116794248Y-72780077D01*
X116804843Y-72780115D01*
X116805510Y-72780116D01*
X119542298Y-72775554D01*
X119718948Y-72792674D01*
X119882836Y-72842148D01*
X120033916Y-72922678D01*
X120166352Y-73031159D01*
X120275058Y-73163421D01*
X120355839Y-73314362D01*
X120405587Y-73478172D01*
X120423000Y-73654787D01*
X120423000Y-74943766D01*
X120405624Y-75120189D01*
X120369280Y-75240000D01*
X114580443Y-75240000D01*
X114544135Y-75120406D01*
X114526714Y-74944011D01*
X114526560Y-74400000D01*
X114680934Y-74400000D01*
X114689178Y-74483707D01*
X114713595Y-74564196D01*
X114753245Y-74638376D01*
X114806605Y-74703395D01*
X114871624Y-74756755D01*
X114945804Y-74796405D01*
X115026293Y-74820822D01*
X115110000Y-74829066D01*
X115430250Y-74827000D01*
X115537000Y-74720250D01*
X115537000Y-73973000D01*
X115683000Y-73973000D01*
X115683000Y-74720250D01*
X115789750Y-74827000D01*
X116110000Y-74829066D01*
X116193707Y-74820822D01*
X116274196Y-74796405D01*
X116348376Y-74756755D01*
X116413395Y-74703395D01*
X116415954Y-74700276D01*
X116559400Y-74769801D01*
X116663334Y-74801324D01*
X116807000Y-74716995D01*
X116807000Y-73973000D01*
X116953000Y-73973000D01*
X116953000Y-74716995D01*
X117096666Y-74801324D01*
X117200600Y-74769801D01*
X117364130Y-74690542D01*
X117509055Y-74580903D01*
X117515000Y-74574217D01*
X117520945Y-74580903D01*
X117665870Y-74690542D01*
X117829400Y-74769801D01*
X117933334Y-74801324D01*
X118077000Y-74716995D01*
X118077000Y-73973000D01*
X118223000Y-73973000D01*
X118223000Y-74716995D01*
X118366666Y-74801324D01*
X118470600Y-74769801D01*
X118634130Y-74690542D01*
X118779055Y-74580903D01*
X118785000Y-74574217D01*
X118790945Y-74580903D01*
X118935870Y-74690542D01*
X119099400Y-74769801D01*
X119203334Y-74801324D01*
X119347000Y-74716995D01*
X119347000Y-73973000D01*
X119493000Y-73973000D01*
X119493000Y-74716995D01*
X119636666Y-74801324D01*
X119740600Y-74769801D01*
X119904130Y-74690542D01*
X120049055Y-74580903D01*
X120169805Y-74445097D01*
X120261741Y-74288343D01*
X120321329Y-74116666D01*
X120237376Y-73973000D01*
X119493000Y-73973000D01*
X119347000Y-73973000D01*
X118223000Y-73973000D01*
X118077000Y-73973000D01*
X116953000Y-73973000D01*
X116807000Y-73973000D01*
X115683000Y-73973000D01*
X115537000Y-73973000D01*
X114789750Y-73973000D01*
X114683000Y-74079750D01*
X114680934Y-74400000D01*
X114526560Y-74400000D01*
X114526360Y-73695682D01*
X114541830Y-73534409D01*
X114581569Y-73400000D01*
X114680934Y-73400000D01*
X114683000Y-73720250D01*
X114789750Y-73827000D01*
X115537000Y-73827000D01*
X115537000Y-73079750D01*
X115683000Y-73079750D01*
X115683000Y-73827000D01*
X116807000Y-73827000D01*
X116807000Y-73083005D01*
X116953000Y-73083005D01*
X116953000Y-73827000D01*
X118077000Y-73827000D01*
X118077000Y-73083005D01*
X118223000Y-73083005D01*
X118223000Y-73827000D01*
X119347000Y-73827000D01*
X119347000Y-73083005D01*
X119493000Y-73083005D01*
X119493000Y-73827000D01*
X120237376Y-73827000D01*
X120321329Y-73683334D01*
X120261741Y-73511657D01*
X120169805Y-73354903D01*
X120049055Y-73219097D01*
X119904130Y-73109458D01*
X119740600Y-73030199D01*
X119636666Y-72998676D01*
X119493000Y-73083005D01*
X119347000Y-73083005D01*
X119203334Y-72998676D01*
X119099400Y-73030199D01*
X118935870Y-73109458D01*
X118790945Y-73219097D01*
X118785000Y-73225783D01*
X118779055Y-73219097D01*
X118634130Y-73109458D01*
X118470600Y-73030199D01*
X118366666Y-72998676D01*
X118223000Y-73083005D01*
X118077000Y-73083005D01*
X117933334Y-72998676D01*
X117829400Y-73030199D01*
X117665870Y-73109458D01*
X117520945Y-73219097D01*
X117515000Y-73225783D01*
X117509055Y-73219097D01*
X117364130Y-73109458D01*
X117200600Y-73030199D01*
X117096666Y-72998676D01*
X116953000Y-73083005D01*
X116807000Y-73083005D01*
X116663334Y-72998676D01*
X116559400Y-73030199D01*
X116415954Y-73099724D01*
X116413395Y-73096605D01*
X116348376Y-73043245D01*
X116274196Y-73003595D01*
X116193707Y-72979178D01*
X116110000Y-72970934D01*
X115789750Y-72973000D01*
X115683000Y-73079750D01*
X115537000Y-73079750D01*
X115430250Y-72973000D01*
X115110000Y-72970934D01*
X115026293Y-72979178D01*
X114945804Y-73003595D01*
X114871624Y-73043245D01*
X114806605Y-73096605D01*
X114753245Y-73161624D01*
X114713595Y-73235804D01*
X114689178Y-73316293D01*
X114680934Y-73400000D01*
X114581569Y-73400000D01*
X114586025Y-73384930D01*
X114657914Y-73246610D01*
X114754852Y-73124538D01*
X114877940Y-73019207D01*
X115001646Y-72932395D01*
X115167307Y-72840396D01*
X115342082Y-72786902D01*
X115530856Y-72770421D01*
X115888794Y-72776820D01*
G04 #@! TA.AperFunction,Conductor*
D21*
G36*
X115888794Y-72776820D02*
G01*
X115889927Y-72776835D01*
X115907801Y-72776995D01*
X115908938Y-72777000D01*
X116445190Y-72777000D01*
X116453660Y-72777038D01*
X116793569Y-72780073D01*
X116794248Y-72780077D01*
X116804843Y-72780115D01*
X116805510Y-72780116D01*
X119542298Y-72775554D01*
X119718948Y-72792674D01*
X119882836Y-72842148D01*
X120033916Y-72922678D01*
X120166352Y-73031159D01*
X120275058Y-73163421D01*
X120355839Y-73314362D01*
X120405587Y-73478172D01*
X120423000Y-73654787D01*
X120423000Y-74943766D01*
X120405624Y-75120189D01*
X120369280Y-75240000D01*
X114580443Y-75240000D01*
X114544135Y-75120406D01*
X114526714Y-74944011D01*
X114526560Y-74400000D01*
X114680934Y-74400000D01*
X114689178Y-74483707D01*
X114713595Y-74564196D01*
X114753245Y-74638376D01*
X114806605Y-74703395D01*
X114871624Y-74756755D01*
X114945804Y-74796405D01*
X115026293Y-74820822D01*
X115110000Y-74829066D01*
X115430250Y-74827000D01*
X115537000Y-74720250D01*
X115537000Y-73973000D01*
X115683000Y-73973000D01*
X115683000Y-74720250D01*
X115789750Y-74827000D01*
X116110000Y-74829066D01*
X116193707Y-74820822D01*
X116274196Y-74796405D01*
X116348376Y-74756755D01*
X116413395Y-74703395D01*
X116415954Y-74700276D01*
X116559400Y-74769801D01*
X116663334Y-74801324D01*
X116807000Y-74716995D01*
X116807000Y-73973000D01*
X116953000Y-73973000D01*
X116953000Y-74716995D01*
X117096666Y-74801324D01*
X117200600Y-74769801D01*
X117364130Y-74690542D01*
X117509055Y-74580903D01*
X117515000Y-74574217D01*
X117520945Y-74580903D01*
X117665870Y-74690542D01*
X117829400Y-74769801D01*
X117933334Y-74801324D01*
X118077000Y-74716995D01*
X118077000Y-73973000D01*
X118223000Y-73973000D01*
X118223000Y-74716995D01*
X118366666Y-74801324D01*
X118470600Y-74769801D01*
X118634130Y-74690542D01*
X118779055Y-74580903D01*
X118785000Y-74574217D01*
X118790945Y-74580903D01*
X118935870Y-74690542D01*
X119099400Y-74769801D01*
X119203334Y-74801324D01*
X119347000Y-74716995D01*
X119347000Y-73973000D01*
X119493000Y-73973000D01*
X119493000Y-74716995D01*
X119636666Y-74801324D01*
X119740600Y-74769801D01*
X119904130Y-74690542D01*
X120049055Y-74580903D01*
X120169805Y-74445097D01*
X120261741Y-74288343D01*
X120321329Y-74116666D01*
X120237376Y-73973000D01*
X119493000Y-73973000D01*
X119347000Y-73973000D01*
X118223000Y-73973000D01*
X118077000Y-73973000D01*
X116953000Y-73973000D01*
X116807000Y-73973000D01*
X115683000Y-73973000D01*
X115537000Y-73973000D01*
X114789750Y-73973000D01*
X114683000Y-74079750D01*
X114680934Y-74400000D01*
X114526560Y-74400000D01*
X114526360Y-73695682D01*
X114541830Y-73534409D01*
X114581569Y-73400000D01*
X114680934Y-73400000D01*
X114683000Y-73720250D01*
X114789750Y-73827000D01*
X115537000Y-73827000D01*
X115537000Y-73079750D01*
X115683000Y-73079750D01*
X115683000Y-73827000D01*
X116807000Y-73827000D01*
X116807000Y-73083005D01*
X116953000Y-73083005D01*
X116953000Y-73827000D01*
X118077000Y-73827000D01*
X118077000Y-73083005D01*
X118223000Y-73083005D01*
X118223000Y-73827000D01*
X119347000Y-73827000D01*
X119347000Y-73083005D01*
X119493000Y-73083005D01*
X119493000Y-73827000D01*
X120237376Y-73827000D01*
X120321329Y-73683334D01*
X120261741Y-73511657D01*
X120169805Y-73354903D01*
X120049055Y-73219097D01*
X119904130Y-73109458D01*
X119740600Y-73030199D01*
X119636666Y-72998676D01*
X119493000Y-73083005D01*
X119347000Y-73083005D01*
X119203334Y-72998676D01*
X119099400Y-73030199D01*
X118935870Y-73109458D01*
X118790945Y-73219097D01*
X118785000Y-73225783D01*
X118779055Y-73219097D01*
X118634130Y-73109458D01*
X118470600Y-73030199D01*
X118366666Y-72998676D01*
X118223000Y-73083005D01*
X118077000Y-73083005D01*
X117933334Y-72998676D01*
X117829400Y-73030199D01*
X117665870Y-73109458D01*
X117520945Y-73219097D01*
X117515000Y-73225783D01*
X117509055Y-73219097D01*
X117364130Y-73109458D01*
X117200600Y-73030199D01*
X117096666Y-72998676D01*
X116953000Y-73083005D01*
X116807000Y-73083005D01*
X116663334Y-72998676D01*
X116559400Y-73030199D01*
X116415954Y-73099724D01*
X116413395Y-73096605D01*
X116348376Y-73043245D01*
X116274196Y-73003595D01*
X116193707Y-72979178D01*
X116110000Y-72970934D01*
X115789750Y-72973000D01*
X115683000Y-73079750D01*
X115537000Y-73079750D01*
X115430250Y-72973000D01*
X115110000Y-72970934D01*
X115026293Y-72979178D01*
X114945804Y-73003595D01*
X114871624Y-73043245D01*
X114806605Y-73096605D01*
X114753245Y-73161624D01*
X114713595Y-73235804D01*
X114689178Y-73316293D01*
X114680934Y-73400000D01*
X114581569Y-73400000D01*
X114586025Y-73384930D01*
X114657914Y-73246610D01*
X114754852Y-73124538D01*
X114877940Y-73019207D01*
X115001646Y-72932395D01*
X115167307Y-72840396D01*
X115342082Y-72786902D01*
X115530856Y-72770421D01*
X115888794Y-72776820D01*
G37*
G04 #@! TD.AperFunction*
D20*
X128814373Y-62394520D02*
X128978637Y-62444568D01*
X129129918Y-62525824D01*
X129262351Y-62635141D01*
X129370805Y-62768280D01*
X129451077Y-62920085D01*
X129500056Y-63084668D01*
X129516426Y-63261938D01*
X129479494Y-68949456D01*
X129461120Y-69125053D01*
X129410822Y-69287768D01*
X129329865Y-69437614D01*
X129221337Y-69568876D01*
X129089379Y-69676544D01*
X128939013Y-69756525D01*
X128775972Y-69805766D01*
X128600264Y-69823000D01*
X119362775Y-69823000D01*
X119185627Y-69805480D01*
X119021363Y-69755432D01*
X118870082Y-69674176D01*
X118737649Y-69564859D01*
X118629195Y-69431720D01*
X118548923Y-69279915D01*
X118499944Y-69115332D01*
X118483574Y-68938062D01*
X118519535Y-63400000D01*
X119036807Y-63400000D01*
X119040000Y-63432419D01*
X119040001Y-68867571D01*
X119036807Y-68900000D01*
X119049550Y-69029383D01*
X119087290Y-69153793D01*
X119148575Y-69268450D01*
X119231052Y-69368948D01*
X119331550Y-69451425D01*
X119446207Y-69512710D01*
X119570617Y-69550450D01*
X119667581Y-69560000D01*
X119700000Y-69563193D01*
X119732419Y-69560000D01*
X128167581Y-69560000D01*
X128200000Y-69563193D01*
X128232419Y-69560000D01*
X128329383Y-69550450D01*
X128453793Y-69512710D01*
X128568450Y-69451425D01*
X128668948Y-69368948D01*
X128751425Y-69268450D01*
X128812710Y-69153793D01*
X128850450Y-69029383D01*
X128863193Y-68900000D01*
X128860000Y-68867581D01*
X128860000Y-63432419D01*
X128863193Y-63400000D01*
X128850450Y-63270617D01*
X128812710Y-63146207D01*
X128751425Y-63031550D01*
X128668948Y-62931052D01*
X128568450Y-62848575D01*
X128453793Y-62787290D01*
X128329383Y-62749550D01*
X128232419Y-62740000D01*
X128200000Y-62736807D01*
X128167581Y-62740000D01*
X119732419Y-62740000D01*
X119700000Y-62736807D01*
X119667581Y-62740000D01*
X119570617Y-62749550D01*
X119446207Y-62787290D01*
X119331550Y-62848575D01*
X119231052Y-62931052D01*
X119148575Y-63031550D01*
X119087290Y-63146207D01*
X119049550Y-63270617D01*
X119036807Y-63400000D01*
X118519535Y-63400000D01*
X118520506Y-63250544D01*
X118538880Y-63074947D01*
X118589178Y-62912232D01*
X118670135Y-62762386D01*
X118778663Y-62631124D01*
X118910621Y-62523456D01*
X119060987Y-62443475D01*
X119224028Y-62394234D01*
X119399736Y-62377000D01*
X128637225Y-62377000D01*
X128814373Y-62394520D01*
G04 #@! TA.AperFunction,Conductor*
D21*
G36*
X128814373Y-62394520D02*
G01*
X128978637Y-62444568D01*
X129129918Y-62525824D01*
X129262351Y-62635141D01*
X129370805Y-62768280D01*
X129451077Y-62920085D01*
X129500056Y-63084668D01*
X129516426Y-63261938D01*
X129479494Y-68949456D01*
X129461120Y-69125053D01*
X129410822Y-69287768D01*
X129329865Y-69437614D01*
X129221337Y-69568876D01*
X129089379Y-69676544D01*
X128939013Y-69756525D01*
X128775972Y-69805766D01*
X128600264Y-69823000D01*
X119362775Y-69823000D01*
X119185627Y-69805480D01*
X119021363Y-69755432D01*
X118870082Y-69674176D01*
X118737649Y-69564859D01*
X118629195Y-69431720D01*
X118548923Y-69279915D01*
X118499944Y-69115332D01*
X118483574Y-68938062D01*
X118519535Y-63400000D01*
X119036807Y-63400000D01*
X119040000Y-63432419D01*
X119040001Y-68867571D01*
X119036807Y-68900000D01*
X119049550Y-69029383D01*
X119087290Y-69153793D01*
X119148575Y-69268450D01*
X119231052Y-69368948D01*
X119331550Y-69451425D01*
X119446207Y-69512710D01*
X119570617Y-69550450D01*
X119667581Y-69560000D01*
X119700000Y-69563193D01*
X119732419Y-69560000D01*
X128167581Y-69560000D01*
X128200000Y-69563193D01*
X128232419Y-69560000D01*
X128329383Y-69550450D01*
X128453793Y-69512710D01*
X128568450Y-69451425D01*
X128668948Y-69368948D01*
X128751425Y-69268450D01*
X128812710Y-69153793D01*
X128850450Y-69029383D01*
X128863193Y-68900000D01*
X128860000Y-68867581D01*
X128860000Y-63432419D01*
X128863193Y-63400000D01*
X128850450Y-63270617D01*
X128812710Y-63146207D01*
X128751425Y-63031550D01*
X128668948Y-62931052D01*
X128568450Y-62848575D01*
X128453793Y-62787290D01*
X128329383Y-62749550D01*
X128232419Y-62740000D01*
X128200000Y-62736807D01*
X128167581Y-62740000D01*
X119732419Y-62740000D01*
X119700000Y-62736807D01*
X119667581Y-62740000D01*
X119570617Y-62749550D01*
X119446207Y-62787290D01*
X119331550Y-62848575D01*
X119231052Y-62931052D01*
X119148575Y-63031550D01*
X119087290Y-63146207D01*
X119049550Y-63270617D01*
X119036807Y-63400000D01*
X118519535Y-63400000D01*
X118520506Y-63250544D01*
X118538880Y-63074947D01*
X118589178Y-62912232D01*
X118670135Y-62762386D01*
X118778663Y-62631124D01*
X118910621Y-62523456D01*
X119060987Y-62443475D01*
X119224028Y-62394234D01*
X119399736Y-62377000D01*
X128637225Y-62377000D01*
X128814373Y-62394520D01*
G37*
G04 #@! TD.AperFunction*
D20*
X127540000Y-68240000D02*
X120360000Y-68240000D01*
X120360000Y-64060000D01*
X127540001Y-64060000D01*
X127540000Y-68240000D01*
G04 #@! TA.AperFunction,Conductor*
D21*
G36*
X127540000Y-68240000D02*
G01*
X120360000Y-68240000D01*
X120360000Y-64060000D01*
X127540001Y-64060000D01*
X127540000Y-68240000D01*
G37*
G04 #@! TD.AperFunction*
M02*
