G04 #@! TF.GenerationSoftware,KiCad,Pcbnew,5.1.9-73d0e3b20d~88~ubuntu20.04.1*
G04 #@! TF.CreationDate,2021-02-03T01:27:43+08:00*
G04 #@! TF.ProjectId,ic7000_drive,69633730-3030-45f6-9472-6976652e6b69,B*
G04 #@! TF.SameCoordinates,Original*
G04 #@! TF.FileFunction,Soldermask,Top*
G04 #@! TF.FilePolarity,Negative*
%FSLAX46Y46*%
G04 Gerber Fmt 4.6, Leading zero omitted, Abs format (unit mm)*
G04 Created by KiCad (PCBNEW 5.1.9-73d0e3b20d~88~ubuntu20.04.1) date 2021-02-03 01:27:43*
%MOMM*%
%LPD*%
G01*
G04 APERTURE LIST*
%ADD10C,2.750000*%
%ADD11R,9.601200X7.493000*%
%ADD12R,5.688800X2.775699*%
%ADD13O,1.600000X1.600000*%
%ADD14C,1.600000*%
%ADD15O,1.000000X1.000000*%
%ADD16R,1.000000X1.000000*%
G04 APERTURE END LIST*
D10*
X142600000Y-66150000D02*
G75*
G03*
X142600000Y-66150000I-2600000J0D01*
G01*
X110600000Y-66150000D02*
G75*
G03*
X110600000Y-66150000I-2600000J0D01*
G01*
D11*
X124000000Y-66100000D03*
D12*
X124000000Y-59962349D03*
X124000000Y-72237651D03*
G36*
G01*
X118137500Y-71806250D02*
X118137500Y-70893750D01*
G75*
G02*
X118381250Y-70650000I243750J0D01*
G01*
X118868750Y-70650000D01*
G75*
G02*
X119112500Y-70893750I0J-243750D01*
G01*
X119112500Y-71806250D01*
G75*
G02*
X118868750Y-72050000I-243750J0D01*
G01*
X118381250Y-72050000D01*
G75*
G02*
X118137500Y-71806250I0J243750D01*
G01*
G37*
G36*
G01*
X116262500Y-71806250D02*
X116262500Y-70893750D01*
G75*
G02*
X116506250Y-70650000I243750J0D01*
G01*
X116993750Y-70650000D01*
G75*
G02*
X117237500Y-70893750I0J-243750D01*
G01*
X117237500Y-71806250D01*
G75*
G02*
X116993750Y-72050000I-243750J0D01*
G01*
X116506250Y-72050000D01*
G75*
G02*
X116262500Y-71806250I0J243750D01*
G01*
G37*
D13*
X130800000Y-58760000D03*
D14*
X130800000Y-74000000D03*
D15*
X111910000Y-73900000D03*
X110640000Y-73900000D03*
X109370000Y-73900000D03*
D16*
X108100000Y-73900000D03*
D15*
X136920000Y-58400000D03*
X135650000Y-58400000D03*
X134380000Y-58400000D03*
D16*
X133110000Y-58400000D03*
D15*
X136920000Y-73900000D03*
X135650000Y-73900000D03*
X134380000Y-73900000D03*
D16*
X133110000Y-73900000D03*
D15*
X119440000Y-58400000D03*
X118170000Y-58400000D03*
X116900000Y-58400000D03*
D16*
X115630000Y-58400000D03*
X115610000Y-73900000D03*
D15*
X116880000Y-73900000D03*
X118150000Y-73900000D03*
X119420000Y-73900000D03*
G36*
G01*
X112475000Y-70875000D02*
X112475000Y-72125000D01*
G75*
G02*
X112225000Y-72375000I-250000J0D01*
G01*
X111475000Y-72375000D01*
G75*
G02*
X111225000Y-72125000I0J250000D01*
G01*
X111225000Y-70875000D01*
G75*
G02*
X111475000Y-70625000I250000J0D01*
G01*
X112225000Y-70625000D01*
G75*
G02*
X112475000Y-70875000I0J-250000D01*
G01*
G37*
G36*
G01*
X115275000Y-70875000D02*
X115275000Y-72125000D01*
G75*
G02*
X115025000Y-72375000I-250000J0D01*
G01*
X114275000Y-72375000D01*
G75*
G02*
X114025000Y-72125000I0J250000D01*
G01*
X114025000Y-70875000D01*
G75*
G02*
X114275000Y-70625000I250000J0D01*
G01*
X115025000Y-70625000D01*
G75*
G02*
X115275000Y-70875000I0J-250000D01*
G01*
G37*
G36*
G01*
X127950000Y-57093750D02*
X127950000Y-58006250D01*
G75*
G02*
X127706250Y-58250000I-243750J0D01*
G01*
X127218750Y-58250000D01*
G75*
G02*
X126975000Y-58006250I0J243750D01*
G01*
X126975000Y-57093750D01*
G75*
G02*
X127218750Y-56850000I243750J0D01*
G01*
X127706250Y-56850000D01*
G75*
G02*
X127950000Y-57093750I0J-243750D01*
G01*
G37*
G36*
G01*
X129825000Y-57093750D02*
X129825000Y-58006250D01*
G75*
G02*
X129581250Y-58250000I-243750J0D01*
G01*
X129093750Y-58250000D01*
G75*
G02*
X128850000Y-58006250I0J243750D01*
G01*
X128850000Y-57093750D01*
G75*
G02*
X129093750Y-56850000I243750J0D01*
G01*
X129581250Y-56850000D01*
G75*
G02*
X129825000Y-57093750I0J-243750D01*
G01*
G37*
M02*
