%FSLAX45Y45*%
G04 Gerber Fmt 4.5, Leading zero omitted, Abs format (unit mm)*
G04 Created by KiCad (PCBNEW 5.1.9-73d0e3b20d~88~ubuntu20.04.1) date 2021-02-03 01:27:32*
%MOMM*%
%LPD*%
G01*
G04 APERTURE LIST*
%TA.AperFunction,Profile*%
%ADD10C,0.050000*%
%TD*%
%ADD11C,0.200000*%
%ADD12C,0.300000*%
G04 APERTURE END LIST*
D10*
X14400000Y-7420000D02*
X14400000Y-6960000D01*
X14400000Y-6280000D02*
X14400000Y-5820000D01*
X10400000Y-6910000D02*
X10400000Y-7370000D01*
X10400000Y-7370000D02*
X10400000Y-7490000D01*
X14400000Y-7490000D02*
X14400000Y-7420000D01*
X14400000Y-5820000D02*
X14400000Y-5740000D01*
X10400000Y-6565000D02*
G75*
G02*
X10400000Y-6665000I0J-50000D01*
G01*
X10400000Y-6910000D02*
X10400000Y-6665000D01*
X14400000Y-6665000D02*
G75*
G02*
X14400000Y-6565000I0J50000D01*
G01*
X14400000Y-6960000D02*
X14400000Y-6665000D01*
X11485000Y-6915000D02*
G75*
G03*
X11485000Y-6915000I-85000J0D01*
G01*
X13485000Y-6315000D02*
G75*
G03*
X13485000Y-6315000I-85000J0D01*
G01*
X10930000Y-6615000D02*
G75*
G03*
X10930000Y-6615000I-130000J0D01*
G01*
X13950000Y-6745000D02*
G75*
G02*
X13950000Y-6485000I0J130000D01*
G01*
X14050000Y-6485000D02*
G75*
G02*
X14050000Y-6745000I0J-130000D01*
G01*
X13950000Y-6485000D02*
X14050000Y-6485000D01*
X13950000Y-6745000D02*
X14050000Y-6745000D01*
X10750000Y-5640000D02*
X10400000Y-5990000D01*
X14300000Y-5640000D02*
G75*
G02*
X14400000Y-5740000I0J-100000D01*
G01*
X14400000Y-7490000D02*
G75*
G02*
X14300000Y-7590000I-100000J0D01*
G01*
X14300000Y-5640000D02*
X10750000Y-5640000D01*
X14400000Y-6565000D02*
X14400000Y-6280000D01*
X10500000Y-7590000D02*
G75*
G02*
X10400000Y-7490000I0J100000D01*
G01*
X10500000Y-7590000D02*
X14300000Y-7590000D01*
X10400000Y-6565000D02*
X10400000Y-5990000D01*
X11970000Y-6890000D02*
X12820000Y-6890000D01*
X11970000Y-6340000D02*
X11970000Y-6890000D01*
X12820000Y-6340000D02*
X11970000Y-6340000D01*
X12820000Y-6890000D02*
X12820000Y-6340000D01*
D11*
D12*
X10683928Y-8058214D02*
X10683928Y-7758214D01*
X10755357Y-7758214D01*
X10798214Y-7772500D01*
X10826786Y-7801071D01*
X10841071Y-7829643D01*
X10855357Y-7886786D01*
X10855357Y-7929643D01*
X10841071Y-7986786D01*
X10826786Y-8015357D01*
X10798214Y-8043929D01*
X10755357Y-8058214D01*
X10683928Y-8058214D01*
X10983928Y-8058214D02*
X10983928Y-7858214D01*
X10983928Y-7915357D02*
X10998214Y-7886786D01*
X11012500Y-7872500D01*
X11041071Y-7858214D01*
X11069643Y-7858214D01*
X11169643Y-8058214D02*
X11169643Y-7858214D01*
X11169643Y-7758214D02*
X11155357Y-7772500D01*
X11169643Y-7786786D01*
X11183928Y-7772500D01*
X11169643Y-7758214D01*
X11169643Y-7786786D01*
X11355357Y-8058214D02*
X11326786Y-8043929D01*
X11312500Y-8015357D01*
X11312500Y-7758214D01*
X11512500Y-8058214D02*
X11483928Y-8043929D01*
X11469643Y-8015357D01*
X11469643Y-7758214D01*
X11855357Y-8058214D02*
X11855357Y-7758214D01*
X11955357Y-7972500D01*
X12055357Y-7758214D01*
X12055357Y-8058214D01*
X12326786Y-8058214D02*
X12326786Y-7901071D01*
X12312500Y-7872500D01*
X12283928Y-7858214D01*
X12226786Y-7858214D01*
X12198214Y-7872500D01*
X12326786Y-8043929D02*
X12298214Y-8058214D01*
X12226786Y-8058214D01*
X12198214Y-8043929D01*
X12183928Y-8015357D01*
X12183928Y-7986786D01*
X12198214Y-7958214D01*
X12226786Y-7943929D01*
X12298214Y-7943929D01*
X12326786Y-7929643D01*
X12469643Y-7858214D02*
X12469643Y-8158214D01*
X12469643Y-7872500D02*
X12498214Y-7858214D01*
X12555357Y-7858214D01*
X12583928Y-7872500D01*
X12598214Y-7886786D01*
X12612500Y-7915357D01*
X12612500Y-8001071D01*
X12598214Y-8029643D01*
X12583928Y-8043929D01*
X12555357Y-8058214D01*
X12498214Y-8058214D01*
X12469643Y-8043929D01*
X12741071Y-8029643D02*
X12755357Y-8043929D01*
X12741071Y-8058214D01*
X12726786Y-8043929D01*
X12741071Y-8029643D01*
X12741071Y-8058214D01*
X12741071Y-7872500D02*
X12755357Y-7886786D01*
X12741071Y-7901071D01*
X12726786Y-7886786D01*
X12741071Y-7872500D01*
X12741071Y-7901071D01*
M02*
