G04 #@! TF.GenerationSoftware,KiCad,Pcbnew,5.1.9-73d0e3b20d~88~ubuntu20.04.1*
G04 #@! TF.CreationDate,2021-02-03T01:27:43+08:00*
G04 #@! TF.ProjectId,ic7000_drive,69633730-3030-45f6-9472-6976652e6b69,B*
G04 #@! TF.SameCoordinates,Original*
G04 #@! TF.FileFunction,Legend,Top*
G04 #@! TF.FilePolarity,Positive*
%FSLAX46Y46*%
G04 Gerber Fmt 4.6, Leading zero omitted, Abs format (unit mm)*
G04 Created by KiCad (PCBNEW 5.1.9-73d0e3b20d~88~ubuntu20.04.1) date 2021-02-03 01:27:43*
%MOMM*%
%LPD*%
G01*
G04 APERTURE LIST*
%ADD10C,0.120000*%
%ADD11C,0.100000*%
%ADD12C,0.200000*%
%ADD13C,0.152400*%
%ADD14C,0.150000*%
G04 APERTURE END LIST*
D10*
X110800000Y-62550000D02*
X110650000Y-62700000D01*
X110550000Y-62700000D02*
X110950000Y-62850000D01*
X110800000Y-62450000D02*
X110550000Y-62700000D01*
X110950000Y-62850000D02*
X110800000Y-62450000D01*
X109950000Y-61850000D02*
X110950000Y-62850000D01*
D11*
X134700000Y-66650000D02*
X134700000Y-66050000D01*
X134700000Y-65600000D02*
X134700000Y-65000000D01*
X134700000Y-67700000D02*
X134700000Y-67100000D01*
X134700000Y-64500000D02*
X134700000Y-63900000D01*
X134700000Y-68800000D02*
X134700000Y-68200000D01*
X113250000Y-64100000D02*
X113250000Y-63500000D01*
X113250000Y-65200000D02*
X113250000Y-64600000D01*
X113250000Y-66250000D02*
X113250000Y-65650000D01*
X113250000Y-67300000D02*
X113250000Y-66700000D01*
X113250000Y-68400000D02*
X113250000Y-67800000D01*
D12*
X137000000Y-69150000D02*
X129000000Y-69150000D01*
X119000000Y-69150000D02*
X111000000Y-69150000D01*
X119000000Y-63150000D02*
X111000000Y-63150000D01*
X137000000Y-63150000D02*
X129000000Y-63150000D01*
D11*
X134507053Y-60607142D02*
X134589196Y-60635714D01*
X134614196Y-60664285D01*
X134635625Y-60721428D01*
X134624910Y-60807142D01*
X134589196Y-60864285D01*
X134557053Y-60892857D01*
X134496339Y-60921428D01*
X134267767Y-60921428D01*
X134342767Y-60321428D01*
X134542767Y-60321428D01*
X134596339Y-60350000D01*
X134621339Y-60378571D01*
X134642767Y-60435714D01*
X134635625Y-60492857D01*
X134599910Y-60550000D01*
X134567767Y-60578571D01*
X134507053Y-60607142D01*
X134307053Y-60607142D01*
X134867767Y-60921428D02*
X134942767Y-60321428D01*
X135467767Y-60921428D02*
X135124910Y-60921428D01*
X135296339Y-60921428D02*
X135371339Y-60321428D01*
X135303482Y-60407142D01*
X135239196Y-60464285D01*
X135178482Y-60492857D01*
X135764196Y-60607142D02*
X135964196Y-60607142D01*
X136010625Y-60921428D02*
X135724910Y-60921428D01*
X135799910Y-60321428D01*
X136085625Y-60321428D01*
X136267767Y-60921428D02*
X136342767Y-60321428D01*
X136553482Y-60921428D02*
X136628482Y-60321428D01*
X136592767Y-60607142D02*
X136935625Y-60607142D01*
X136896339Y-60921428D02*
X136971339Y-60321428D01*
X138439196Y-60921428D02*
X138274910Y-60635714D01*
X138096339Y-60921428D02*
X138171339Y-60321428D01*
X138399910Y-60321428D01*
X138453482Y-60350000D01*
X138478482Y-60378571D01*
X138499910Y-60435714D01*
X138489196Y-60521428D01*
X138453482Y-60578571D01*
X138421339Y-60607142D01*
X138360625Y-60635714D01*
X138132053Y-60635714D01*
X138928482Y-60892857D02*
X138867767Y-60921428D01*
X138753482Y-60921428D01*
X138699910Y-60892857D01*
X138678482Y-60835714D01*
X138707053Y-60607142D01*
X138742767Y-60550000D01*
X138803482Y-60521428D01*
X138917767Y-60521428D01*
X138971339Y-60550000D01*
X138992767Y-60607142D01*
X138985625Y-60664285D01*
X138692767Y-60721428D01*
X139203482Y-60521428D02*
X139296339Y-60921428D01*
X139489196Y-60521428D01*
X139674910Y-60864285D02*
X139699910Y-60892857D01*
X139667767Y-60921428D01*
X139642767Y-60892857D01*
X139674910Y-60864285D01*
X139667767Y-60921428D01*
X140192767Y-60607142D02*
X140274910Y-60635714D01*
X140299910Y-60664285D01*
X140321339Y-60721428D01*
X140310625Y-60807142D01*
X140274910Y-60864285D01*
X140242767Y-60892857D01*
X140182053Y-60921428D01*
X139953482Y-60921428D01*
X140028482Y-60321428D01*
X140228482Y-60321428D01*
X140282053Y-60350000D01*
X140307053Y-60378571D01*
X140328482Y-60435714D01*
X140321339Y-60492857D01*
X140285625Y-60550000D01*
X140253482Y-60578571D01*
X140192767Y-60607142D01*
X139992767Y-60607142D01*
X141049910Y-60378571D02*
X141082053Y-60350000D01*
X141142767Y-60321428D01*
X141285625Y-60321428D01*
X141339196Y-60350000D01*
X141364196Y-60378571D01*
X141385625Y-60435714D01*
X141378482Y-60492857D01*
X141339196Y-60578571D01*
X140953482Y-60921428D01*
X141324910Y-60921428D01*
X141896339Y-60921428D02*
X141553482Y-60921428D01*
X141724910Y-60921428D02*
X141799910Y-60321428D01*
X141732053Y-60407142D01*
X141667767Y-60464285D01*
X141607053Y-60492857D01*
X142342767Y-60321428D02*
X142399910Y-60321428D01*
X142453482Y-60350000D01*
X142478482Y-60378571D01*
X142499910Y-60435714D01*
X142514196Y-60550000D01*
X142496339Y-60692857D01*
X142453482Y-60807142D01*
X142417767Y-60864285D01*
X142385625Y-60892857D01*
X142324910Y-60921428D01*
X142267767Y-60921428D01*
X142214196Y-60892857D01*
X142189196Y-60864285D01*
X142167767Y-60807142D01*
X142153482Y-60692857D01*
X142171339Y-60550000D01*
X142214196Y-60435714D01*
X142249910Y-60378571D01*
X142282053Y-60350000D01*
X142342767Y-60321428D01*
X143057053Y-60321428D02*
X142942767Y-60321428D01*
X142882053Y-60350000D01*
X142849910Y-60378571D01*
X142782053Y-60464285D01*
X142739196Y-60578571D01*
X142710625Y-60807142D01*
X142732053Y-60864285D01*
X142757053Y-60892857D01*
X142810625Y-60921428D01*
X142924910Y-60921428D01*
X142985625Y-60892857D01*
X143017767Y-60864285D01*
X143053482Y-60807142D01*
X143071339Y-60664285D01*
X143049910Y-60607142D01*
X143024910Y-60578571D01*
X142971339Y-60550000D01*
X142857053Y-60550000D01*
X142796339Y-60578571D01*
X142764196Y-60607142D01*
X142728482Y-60664285D01*
D12*
X137857142Y-71542857D02*
X137857142Y-70342857D01*
X138257142Y-71200000D01*
X138657142Y-70342857D01*
X138657142Y-71542857D01*
X139228571Y-71542857D02*
X139228571Y-70342857D01*
X139685714Y-70342857D01*
X139800000Y-70400000D01*
X139857142Y-70457142D01*
X139914285Y-70571428D01*
X139914285Y-70742857D01*
X139857142Y-70857142D01*
X139800000Y-70914285D01*
X139685714Y-70971428D01*
X139228571Y-70971428D01*
X140942857Y-70742857D02*
X140942857Y-71542857D01*
X140657142Y-70285714D02*
X140371428Y-71142857D01*
X141114285Y-71142857D01*
X142200000Y-71542857D02*
X141514285Y-71542857D01*
X141857142Y-71542857D02*
X141857142Y-70342857D01*
X141742857Y-70514285D01*
X141628571Y-70628571D01*
X141514285Y-70685714D01*
X105007142Y-61642857D02*
X105007142Y-60442857D01*
X105407142Y-61300000D01*
X105807142Y-60442857D01*
X105807142Y-61642857D01*
X106378571Y-61642857D02*
X106378571Y-60442857D01*
X106835714Y-60442857D01*
X106950000Y-60500000D01*
X107007142Y-60557142D01*
X107064285Y-60671428D01*
X107064285Y-60842857D01*
X107007142Y-60957142D01*
X106950000Y-61014285D01*
X106835714Y-61071428D01*
X106378571Y-61071428D01*
X107464285Y-60442857D02*
X108207142Y-60442857D01*
X107807142Y-60900000D01*
X107978571Y-60900000D01*
X108092857Y-60957142D01*
X108150000Y-61014285D01*
X108207142Y-61128571D01*
X108207142Y-61414285D01*
X108150000Y-61528571D01*
X108092857Y-61585714D01*
X107978571Y-61642857D01*
X107635714Y-61642857D01*
X107521428Y-61585714D01*
X107464285Y-61528571D01*
X108892857Y-60957142D02*
X108778571Y-60900000D01*
X108721428Y-60842857D01*
X108664285Y-60728571D01*
X108664285Y-60671428D01*
X108721428Y-60557142D01*
X108778571Y-60500000D01*
X108892857Y-60442857D01*
X109121428Y-60442857D01*
X109235714Y-60500000D01*
X109292857Y-60557142D01*
X109350000Y-60671428D01*
X109350000Y-60728571D01*
X109292857Y-60842857D01*
X109235714Y-60900000D01*
X109121428Y-60957142D01*
X108892857Y-60957142D01*
X108778571Y-61014285D01*
X108721428Y-61071428D01*
X108664285Y-61185714D01*
X108664285Y-61414285D01*
X108721428Y-61528571D01*
X108778571Y-61585714D01*
X108892857Y-61642857D01*
X109121428Y-61642857D01*
X109235714Y-61585714D01*
X109292857Y-61528571D01*
X109350000Y-61414285D01*
X109350000Y-61185714D01*
X109292857Y-61071428D01*
X109235714Y-61014285D01*
X109121428Y-60957142D01*
D13*
X127924300Y-70976800D02*
X127924300Y-70179240D01*
X127924300Y-61223200D02*
X127177140Y-61223200D01*
X120075700Y-61223200D02*
X120075700Y-62020760D01*
X120075700Y-70976800D02*
X120822860Y-70976800D01*
X127177140Y-70976800D02*
X127924300Y-70976800D01*
X120822860Y-61223200D02*
X120075700Y-61223200D01*
X127924300Y-62020760D02*
X127924300Y-61223200D01*
X120075700Y-70179240D02*
X120075700Y-70976800D01*
D10*
X117428922Y-70640000D02*
X117946078Y-70640000D01*
X117428922Y-72060000D02*
X117946078Y-72060000D01*
X129080000Y-71000000D02*
X132520000Y-71000000D01*
X132520000Y-71000000D02*
X132520000Y-61760000D01*
X132520000Y-61760000D02*
X129080000Y-61760000D01*
X129080000Y-61760000D02*
X129080000Y-71000000D01*
X130800000Y-72960000D02*
X130800000Y-71000000D01*
X130800000Y-59800000D02*
X130800000Y-61760000D01*
X112605000Y-75010000D02*
X112605000Y-74207530D01*
X112605000Y-73592470D02*
X112605000Y-72790000D01*
X108860000Y-75010000D02*
X112605000Y-75010000D01*
X108860000Y-72790000D02*
X112605000Y-72790000D01*
X108860000Y-75010000D02*
X108860000Y-74463471D01*
X108860000Y-73336529D02*
X108860000Y-72790000D01*
X108100000Y-75010000D02*
X107340000Y-75010000D01*
X107340000Y-75010000D02*
X107340000Y-73900000D01*
X137615000Y-59510000D02*
X137615000Y-58707530D01*
X137615000Y-58092470D02*
X137615000Y-57290000D01*
X133870000Y-59510000D02*
X137615000Y-59510000D01*
X133870000Y-57290000D02*
X137615000Y-57290000D01*
X133870000Y-59510000D02*
X133870000Y-58963471D01*
X133870000Y-57836529D02*
X133870000Y-57290000D01*
X133110000Y-59510000D02*
X132350000Y-59510000D01*
X132350000Y-59510000D02*
X132350000Y-58400000D01*
X137615000Y-75010000D02*
X137615000Y-74207530D01*
X137615000Y-73592470D02*
X137615000Y-72790000D01*
X133870000Y-75010000D02*
X137615000Y-75010000D01*
X133870000Y-72790000D02*
X137615000Y-72790000D01*
X133870000Y-75010000D02*
X133870000Y-74463471D01*
X133870000Y-73336529D02*
X133870000Y-72790000D01*
X133110000Y-75010000D02*
X132350000Y-75010000D01*
X132350000Y-75010000D02*
X132350000Y-73900000D01*
X120135000Y-59510000D02*
X120135000Y-58707530D01*
X120135000Y-58092470D02*
X120135000Y-57290000D01*
X116390000Y-59510000D02*
X120135000Y-59510000D01*
X116390000Y-57290000D02*
X120135000Y-57290000D01*
X116390000Y-59510000D02*
X116390000Y-58963471D01*
X116390000Y-57836529D02*
X116390000Y-57290000D01*
X115630000Y-59510000D02*
X114870000Y-59510000D01*
X114870000Y-59510000D02*
X114870000Y-58400000D01*
X114850000Y-75010000D02*
X114850000Y-73900000D01*
X115610000Y-75010000D02*
X114850000Y-75010000D01*
X116370000Y-73336529D02*
X116370000Y-72790000D01*
X116370000Y-75010000D02*
X116370000Y-74463471D01*
X116370000Y-72790000D02*
X120115000Y-72790000D01*
X116370000Y-75010000D02*
X120115000Y-75010000D01*
X120115000Y-73592470D02*
X120115000Y-72790000D01*
X120115000Y-75010000D02*
X120115000Y-74207530D01*
X113852064Y-72410000D02*
X112647936Y-72410000D01*
X113852064Y-70590000D02*
X112647936Y-70590000D01*
X128658578Y-58260000D02*
X128141422Y-58260000D01*
X128658578Y-56840000D02*
X128141422Y-56840000D01*
D14*
X118788095Y-66988095D02*
X118750000Y-67064285D01*
X118673809Y-67140476D01*
X118559523Y-67254761D01*
X118521428Y-67330952D01*
X118521428Y-67407142D01*
X118711904Y-67369047D02*
X118673809Y-67445238D01*
X118597619Y-67521428D01*
X118445238Y-67559523D01*
X118178571Y-67559523D01*
X118026190Y-67521428D01*
X117950000Y-67445238D01*
X117911904Y-67369047D01*
X117911904Y-67216666D01*
X117950000Y-67140476D01*
X118026190Y-67064285D01*
X118178571Y-67026190D01*
X118445238Y-67026190D01*
X118597619Y-67064285D01*
X118673809Y-67140476D01*
X118711904Y-67216666D01*
X118711904Y-67369047D01*
X117911904Y-66302380D02*
X117911904Y-66683333D01*
X118292857Y-66721428D01*
X118254761Y-66683333D01*
X118216666Y-66607142D01*
X118216666Y-66416666D01*
X118254761Y-66340476D01*
X118292857Y-66302380D01*
X118369047Y-66264285D01*
X118559523Y-66264285D01*
X118635714Y-66302380D01*
X118673809Y-66340476D01*
X118711904Y-66416666D01*
X118711904Y-66607142D01*
X118673809Y-66683333D01*
X118635714Y-66721428D01*
X117911904Y-65769047D02*
X117911904Y-65692857D01*
X117950000Y-65616666D01*
X117988095Y-65578571D01*
X118064285Y-65540476D01*
X118216666Y-65502380D01*
X118407142Y-65502380D01*
X118559523Y-65540476D01*
X118635714Y-65578571D01*
X118673809Y-65616666D01*
X118711904Y-65692857D01*
X118711904Y-65769047D01*
X118673809Y-65845238D01*
X118635714Y-65883333D01*
X118559523Y-65921428D01*
X118407142Y-65959523D01*
X118216666Y-65959523D01*
X118064285Y-65921428D01*
X117988095Y-65883333D01*
X117950000Y-65845238D01*
X117911904Y-65769047D01*
X118178571Y-64816666D02*
X118711904Y-64816666D01*
X117873809Y-65007142D02*
X118445238Y-65197619D01*
X118445238Y-64702380D01*
X116620580Y-72491650D02*
X116858676Y-72491650D01*
X116763438Y-72729745D02*
X116858676Y-72491650D01*
X116763438Y-72253554D01*
X117049152Y-72634507D02*
X116858676Y-72491650D01*
X117049152Y-72348792D01*
X116620580Y-72491650D02*
X116858676Y-72491650D01*
X116763438Y-72729745D02*
X116858676Y-72491650D01*
X116763438Y-72253554D01*
X117049152Y-72634507D02*
X116858676Y-72491650D01*
X117049152Y-72348792D01*
X116442261Y-70261904D02*
X116175595Y-69880952D01*
X115985119Y-70261904D02*
X115985119Y-69461904D01*
X116289880Y-69461904D01*
X116366071Y-69500000D01*
X116404166Y-69538095D01*
X116442261Y-69614285D01*
X116442261Y-69728571D01*
X116404166Y-69804761D01*
X116366071Y-69842857D01*
X116289880Y-69880952D01*
X115985119Y-69880952D01*
X117204166Y-70261904D02*
X116747023Y-70261904D01*
X116975595Y-70261904D02*
X116975595Y-69461904D01*
X116899404Y-69576190D01*
X116823214Y-69652380D01*
X116747023Y-69690476D01*
X117699404Y-69461904D02*
X117775595Y-69461904D01*
X117851785Y-69500000D01*
X117889880Y-69538095D01*
X117927976Y-69614285D01*
X117966071Y-69766666D01*
X117966071Y-69957142D01*
X117927976Y-70109523D01*
X117889880Y-70185714D01*
X117851785Y-70223809D01*
X117775595Y-70261904D01*
X117699404Y-70261904D01*
X117623214Y-70223809D01*
X117585119Y-70185714D01*
X117547023Y-70109523D01*
X117508928Y-69957142D01*
X117508928Y-69766666D01*
X117547023Y-69614285D01*
X117585119Y-69538095D01*
X117623214Y-69500000D01*
X117699404Y-69461904D01*
X118232738Y-69461904D02*
X118727976Y-69461904D01*
X118461309Y-69766666D01*
X118575595Y-69766666D01*
X118651785Y-69804761D01*
X118689880Y-69842857D01*
X118727976Y-69919047D01*
X118727976Y-70109523D01*
X118689880Y-70185714D01*
X118651785Y-70223809D01*
X118575595Y-70261904D01*
X118347023Y-70261904D01*
X118270833Y-70223809D01*
X118232738Y-70185714D01*
X133611904Y-67595238D02*
X133230952Y-67861904D01*
X133611904Y-68052380D02*
X132811904Y-68052380D01*
X132811904Y-67747619D01*
X132850000Y-67671428D01*
X132888095Y-67633333D01*
X132964285Y-67595238D01*
X133078571Y-67595238D01*
X133154761Y-67633333D01*
X133192857Y-67671428D01*
X133230952Y-67747619D01*
X133230952Y-68052380D01*
X133611904Y-66833333D02*
X133611904Y-67290476D01*
X133611904Y-67061904D02*
X132811904Y-67061904D01*
X132926190Y-67138095D01*
X133002380Y-67214285D01*
X133040476Y-67290476D01*
X132811904Y-66338095D02*
X132811904Y-66261904D01*
X132850000Y-66185714D01*
X132888095Y-66147619D01*
X132964285Y-66109523D01*
X133116666Y-66071428D01*
X133307142Y-66071428D01*
X133459523Y-66109523D01*
X133535714Y-66147619D01*
X133573809Y-66185714D01*
X133611904Y-66261904D01*
X133611904Y-66338095D01*
X133573809Y-66414285D01*
X133535714Y-66452380D01*
X133459523Y-66490476D01*
X133307142Y-66528571D01*
X133116666Y-66528571D01*
X132964285Y-66490476D01*
X132888095Y-66452380D01*
X132850000Y-66414285D01*
X132811904Y-66338095D01*
X132888095Y-65766666D02*
X132850000Y-65728571D01*
X132811904Y-65652380D01*
X132811904Y-65461904D01*
X132850000Y-65385714D01*
X132888095Y-65347619D01*
X132964285Y-65309523D01*
X133040476Y-65309523D01*
X133154761Y-65347619D01*
X133611904Y-65804761D01*
X133611904Y-65309523D01*
X105921428Y-71361904D02*
X105921428Y-71933333D01*
X105883333Y-72047619D01*
X105807142Y-72123809D01*
X105692857Y-72161904D01*
X105616666Y-72161904D01*
X106721428Y-72161904D02*
X106264285Y-72161904D01*
X106492857Y-72161904D02*
X106492857Y-71361904D01*
X106416666Y-71476190D01*
X106340476Y-71552380D01*
X106264285Y-71590476D01*
X107216666Y-71361904D02*
X107292857Y-71361904D01*
X107369047Y-71400000D01*
X107407142Y-71438095D01*
X107445238Y-71514285D01*
X107483333Y-71666666D01*
X107483333Y-71857142D01*
X107445238Y-72009523D01*
X107407142Y-72085714D01*
X107369047Y-72123809D01*
X107292857Y-72161904D01*
X107216666Y-72161904D01*
X107140476Y-72123809D01*
X107102380Y-72085714D01*
X107064285Y-72009523D01*
X107026190Y-71857142D01*
X107026190Y-71666666D01*
X107064285Y-71514285D01*
X107102380Y-71438095D01*
X107140476Y-71400000D01*
X107216666Y-71361904D01*
X107750000Y-71361904D02*
X108283333Y-71361904D01*
X107940476Y-72161904D01*
X138871428Y-57911904D02*
X138871428Y-58483333D01*
X138833333Y-58597619D01*
X138757142Y-58673809D01*
X138642857Y-58711904D01*
X138566666Y-58711904D01*
X139671428Y-58711904D02*
X139214285Y-58711904D01*
X139442857Y-58711904D02*
X139442857Y-57911904D01*
X139366666Y-58026190D01*
X139290476Y-58102380D01*
X139214285Y-58140476D01*
X140166666Y-57911904D02*
X140242857Y-57911904D01*
X140319047Y-57950000D01*
X140357142Y-57988095D01*
X140395238Y-58064285D01*
X140433333Y-58216666D01*
X140433333Y-58407142D01*
X140395238Y-58559523D01*
X140357142Y-58635714D01*
X140319047Y-58673809D01*
X140242857Y-58711904D01*
X140166666Y-58711904D01*
X140090476Y-58673809D01*
X140052380Y-58635714D01*
X140014285Y-58559523D01*
X139976190Y-58407142D01*
X139976190Y-58216666D01*
X140014285Y-58064285D01*
X140052380Y-57988095D01*
X140090476Y-57950000D01*
X140166666Y-57911904D01*
X141119047Y-58178571D02*
X141119047Y-58711904D01*
X140928571Y-57873809D02*
X140738095Y-58445238D01*
X141233333Y-58445238D01*
X138971428Y-73611904D02*
X138971428Y-74183333D01*
X138933333Y-74297619D01*
X138857142Y-74373809D01*
X138742857Y-74411904D01*
X138666666Y-74411904D01*
X139771428Y-74411904D02*
X139314285Y-74411904D01*
X139542857Y-74411904D02*
X139542857Y-73611904D01*
X139466666Y-73726190D01*
X139390476Y-73802380D01*
X139314285Y-73840476D01*
X140266666Y-73611904D02*
X140342857Y-73611904D01*
X140419047Y-73650000D01*
X140457142Y-73688095D01*
X140495238Y-73764285D01*
X140533333Y-73916666D01*
X140533333Y-74107142D01*
X140495238Y-74259523D01*
X140457142Y-74335714D01*
X140419047Y-74373809D01*
X140342857Y-74411904D01*
X140266666Y-74411904D01*
X140190476Y-74373809D01*
X140152380Y-74335714D01*
X140114285Y-74259523D01*
X140076190Y-74107142D01*
X140076190Y-73916666D01*
X140114285Y-73764285D01*
X140152380Y-73688095D01*
X140190476Y-73650000D01*
X140266666Y-73611904D01*
X140800000Y-73611904D02*
X141295238Y-73611904D01*
X141028571Y-73916666D01*
X141142857Y-73916666D01*
X141219047Y-73954761D01*
X141257142Y-73992857D01*
X141295238Y-74069047D01*
X141295238Y-74259523D01*
X141257142Y-74335714D01*
X141219047Y-74373809D01*
X141142857Y-74411904D01*
X140914285Y-74411904D01*
X140838095Y-74373809D01*
X140800000Y-74335714D01*
X111771428Y-57161904D02*
X111771428Y-57733333D01*
X111733333Y-57847619D01*
X111657142Y-57923809D01*
X111542857Y-57961904D01*
X111466666Y-57961904D01*
X112571428Y-57961904D02*
X112114285Y-57961904D01*
X112342857Y-57961904D02*
X112342857Y-57161904D01*
X112266666Y-57276190D01*
X112190476Y-57352380D01*
X112114285Y-57390476D01*
X113066666Y-57161904D02*
X113142857Y-57161904D01*
X113219047Y-57200000D01*
X113257142Y-57238095D01*
X113295238Y-57314285D01*
X113333333Y-57466666D01*
X113333333Y-57657142D01*
X113295238Y-57809523D01*
X113257142Y-57885714D01*
X113219047Y-57923809D01*
X113142857Y-57961904D01*
X113066666Y-57961904D01*
X112990476Y-57923809D01*
X112952380Y-57885714D01*
X112914285Y-57809523D01*
X112876190Y-57657142D01*
X112876190Y-57466666D01*
X112914285Y-57314285D01*
X112952380Y-57238095D01*
X112990476Y-57200000D01*
X113066666Y-57161904D01*
X113638095Y-57238095D02*
X113676190Y-57200000D01*
X113752380Y-57161904D01*
X113942857Y-57161904D01*
X114019047Y-57200000D01*
X114057142Y-57238095D01*
X114095238Y-57314285D01*
X114095238Y-57390476D01*
X114057142Y-57504761D01*
X113600000Y-57961904D01*
X114095238Y-57961904D01*
X121171428Y-74361904D02*
X121171428Y-74933333D01*
X121133333Y-75047619D01*
X121057142Y-75123809D01*
X120942857Y-75161904D01*
X120866666Y-75161904D01*
X121971428Y-75161904D02*
X121514285Y-75161904D01*
X121742857Y-75161904D02*
X121742857Y-74361904D01*
X121666666Y-74476190D01*
X121590476Y-74552380D01*
X121514285Y-74590476D01*
X122466666Y-74361904D02*
X122542857Y-74361904D01*
X122619047Y-74400000D01*
X122657142Y-74438095D01*
X122695238Y-74514285D01*
X122733333Y-74666666D01*
X122733333Y-74857142D01*
X122695238Y-75009523D01*
X122657142Y-75085714D01*
X122619047Y-75123809D01*
X122542857Y-75161904D01*
X122466666Y-75161904D01*
X122390476Y-75123809D01*
X122352380Y-75085714D01*
X122314285Y-75009523D01*
X122276190Y-74857142D01*
X122276190Y-74666666D01*
X122314285Y-74514285D01*
X122352380Y-74438095D01*
X122390476Y-74400000D01*
X122466666Y-74361904D01*
X123495238Y-75161904D02*
X123038095Y-75161904D01*
X123266666Y-75161904D02*
X123266666Y-74361904D01*
X123190476Y-74476190D01*
X123114285Y-74552380D01*
X123038095Y-74590476D01*
X110704761Y-70185714D02*
X110666666Y-70223809D01*
X110552380Y-70261904D01*
X110476190Y-70261904D01*
X110361904Y-70223809D01*
X110285714Y-70147619D01*
X110247619Y-70071428D01*
X110209523Y-69919047D01*
X110209523Y-69804761D01*
X110247619Y-69652380D01*
X110285714Y-69576190D01*
X110361904Y-69500000D01*
X110476190Y-69461904D01*
X110552380Y-69461904D01*
X110666666Y-69500000D01*
X110704761Y-69538095D01*
X111466666Y-70261904D02*
X111009523Y-70261904D01*
X111238095Y-70261904D02*
X111238095Y-69461904D01*
X111161904Y-69576190D01*
X111085714Y-69652380D01*
X111009523Y-69690476D01*
X111961904Y-69461904D02*
X112038095Y-69461904D01*
X112114285Y-69500000D01*
X112152380Y-69538095D01*
X112190476Y-69614285D01*
X112228571Y-69766666D01*
X112228571Y-69957142D01*
X112190476Y-70109523D01*
X112152380Y-70185714D01*
X112114285Y-70223809D01*
X112038095Y-70261904D01*
X111961904Y-70261904D01*
X111885714Y-70223809D01*
X111847619Y-70185714D01*
X111809523Y-70109523D01*
X111771428Y-69957142D01*
X111771428Y-69766666D01*
X111809523Y-69614285D01*
X111847619Y-69538095D01*
X111885714Y-69500000D01*
X111961904Y-69461904D01*
X112533333Y-69538095D02*
X112571428Y-69500000D01*
X112647619Y-69461904D01*
X112838095Y-69461904D01*
X112914285Y-69500000D01*
X112952380Y-69538095D01*
X112990476Y-69614285D01*
X112990476Y-69690476D01*
X112952380Y-69804761D01*
X112495238Y-70261904D01*
X112990476Y-70261904D01*
X124204761Y-57785714D02*
X124166666Y-57823809D01*
X124052380Y-57861904D01*
X123976190Y-57861904D01*
X123861904Y-57823809D01*
X123785714Y-57747619D01*
X123747619Y-57671428D01*
X123709523Y-57519047D01*
X123709523Y-57404761D01*
X123747619Y-57252380D01*
X123785714Y-57176190D01*
X123861904Y-57100000D01*
X123976190Y-57061904D01*
X124052380Y-57061904D01*
X124166666Y-57100000D01*
X124204761Y-57138095D01*
X124966666Y-57861904D02*
X124509523Y-57861904D01*
X124738095Y-57861904D02*
X124738095Y-57061904D01*
X124661904Y-57176190D01*
X124585714Y-57252380D01*
X124509523Y-57290476D01*
X125461904Y-57061904D02*
X125538095Y-57061904D01*
X125614285Y-57100000D01*
X125652380Y-57138095D01*
X125690476Y-57214285D01*
X125728571Y-57366666D01*
X125728571Y-57557142D01*
X125690476Y-57709523D01*
X125652380Y-57785714D01*
X125614285Y-57823809D01*
X125538095Y-57861904D01*
X125461904Y-57861904D01*
X125385714Y-57823809D01*
X125347619Y-57785714D01*
X125309523Y-57709523D01*
X125271428Y-57557142D01*
X125271428Y-57366666D01*
X125309523Y-57214285D01*
X125347619Y-57138095D01*
X125385714Y-57100000D01*
X125461904Y-57061904D01*
X126490476Y-57861904D02*
X126033333Y-57861904D01*
X126261904Y-57861904D02*
X126261904Y-57061904D01*
X126185714Y-57176190D01*
X126109523Y-57252380D01*
X126033333Y-57290476D01*
M02*
