G04 #@! TF.GenerationSoftware,KiCad,Pcbnew,5.1.9-73d0e3b20d~88~ubuntu20.04.1*
G04 #@! TF.CreationDate,2021-02-03T01:27:43+08:00*
G04 #@! TF.ProjectId,ic7000_drive,69633730-3030-45f6-9472-6976652e6b69,B*
G04 #@! TF.SameCoordinates,Original*
G04 #@! TF.FileFunction,Profile,NP*
%FSLAX46Y46*%
G04 Gerber Fmt 4.6, Leading zero omitted, Abs format (unit mm)*
G04 Created by KiCad (PCBNEW 5.1.9-73d0e3b20d~88~ubuntu20.04.1) date 2021-02-03 01:27:43*
%MOMM*%
%LPD*%
G01*
G04 APERTURE LIST*
G04 #@! TA.AperFunction,Profile*
%ADD10C,0.050000*%
G04 #@! TD*
G04 APERTURE END LIST*
D10*
X144000000Y-74200000D02*
X144000000Y-69600000D01*
X144000000Y-62800000D02*
X144000000Y-58200000D01*
X104000000Y-69100000D02*
X104000000Y-73700000D01*
X104000000Y-73700000D02*
X104000000Y-74900000D01*
X144000000Y-74900000D02*
X144000000Y-74200000D01*
X144000000Y-58200000D02*
X144000000Y-57400000D01*
X104000000Y-65650000D02*
G75*
G02*
X104000000Y-66650000I0J-500000D01*
G01*
X104000000Y-69100000D02*
X104000000Y-66650000D01*
X144000000Y-66650000D02*
G75*
G02*
X144000000Y-65650000I0J500000D01*
G01*
X144000000Y-69600000D02*
X144000000Y-66650000D01*
X114850000Y-69150000D02*
G75*
G03*
X114850000Y-69150000I-850000J0D01*
G01*
X134850000Y-63150000D02*
G75*
G03*
X134850000Y-63150000I-850000J0D01*
G01*
X109300000Y-66150000D02*
G75*
G03*
X109300000Y-66150000I-1300000J0D01*
G01*
X139500000Y-67450000D02*
G75*
G02*
X139500000Y-64850000I0J1300000D01*
G01*
X140500000Y-64850000D02*
G75*
G02*
X140500000Y-67450000I0J-1300000D01*
G01*
X139500000Y-64850000D02*
X140500000Y-64850000D01*
X139500000Y-67450000D02*
X140500000Y-67450000D01*
X107500000Y-56400000D02*
X104000000Y-59900000D01*
X143000000Y-56400000D02*
G75*
G02*
X144000000Y-57400000I0J-1000000D01*
G01*
X144000000Y-74900000D02*
G75*
G02*
X143000000Y-75900000I-1000000J0D01*
G01*
X143000000Y-56400000D02*
X107500000Y-56400000D01*
X144000000Y-65650000D02*
X144000000Y-62800000D01*
X105000000Y-75900000D02*
G75*
G02*
X104000000Y-74900000I0J1000000D01*
G01*
X105000000Y-75900000D02*
X143000000Y-75900000D01*
X104000000Y-65650000D02*
X104000000Y-59900000D01*
X119700000Y-68900000D02*
X128200000Y-68900000D01*
X119700000Y-63400000D02*
X119700000Y-68900000D01*
X128200000Y-63400000D02*
X119700000Y-63400000D01*
X128200000Y-68900000D02*
X128200000Y-63400000D01*
M02*
