G04 #@! TF.GenerationSoftware,KiCad,Pcbnew,5.1.9-73d0e3b20d~88~ubuntu20.04.1*
G04 #@! TF.CreationDate,2021-02-03T01:27:43+08:00*
G04 #@! TF.ProjectId,ic7000_drive,69633730-3030-45f6-9472-6976652e6b69,B*
G04 #@! TF.SameCoordinates,Original*
G04 #@! TF.FileFunction,Copper,L2,Bot*
G04 #@! TF.FilePolarity,Positive*
%FSLAX46Y46*%
G04 Gerber Fmt 4.6, Leading zero omitted, Abs format (unit mm)*
G04 Created by KiCad (PCBNEW 5.1.9-73d0e3b20d~88~ubuntu20.04.1) date 2021-02-03 01:27:43*
%MOMM*%
%LPD*%
G01*
G04 APERTURE LIST*
G04 #@! TA.AperFunction,ComponentPad*
%ADD10O,1.600000X1.600000*%
G04 #@! TD*
G04 #@! TA.AperFunction,ComponentPad*
%ADD11C,1.600000*%
G04 #@! TD*
G04 #@! TA.AperFunction,ComponentPad*
%ADD12O,1.000000X1.000000*%
G04 #@! TD*
G04 #@! TA.AperFunction,ComponentPad*
%ADD13R,1.000000X1.000000*%
G04 #@! TD*
G04 #@! TA.AperFunction,ViaPad*
%ADD14C,0.800000*%
G04 #@! TD*
G04 #@! TA.AperFunction,Conductor*
%ADD15C,0.500000*%
G04 #@! TD*
G04 #@! TA.AperFunction,Conductor*
%ADD16C,0.254000*%
G04 #@! TD*
G04 #@! TA.AperFunction,Conductor*
%ADD17C,0.100000*%
G04 #@! TD*
G04 APERTURE END LIST*
D10*
X130800000Y-58760000D03*
D11*
X130800000Y-74000000D03*
D12*
X111910000Y-73900000D03*
X110640000Y-73900000D03*
X109370000Y-73900000D03*
D13*
X108100000Y-73900000D03*
D12*
X136920000Y-58400000D03*
X135650000Y-58400000D03*
X134380000Y-58400000D03*
D13*
X133110000Y-58400000D03*
D12*
X136920000Y-73900000D03*
X135650000Y-73900000D03*
X134380000Y-73900000D03*
D13*
X133110000Y-73900000D03*
D12*
X119440000Y-58400000D03*
X118170000Y-58400000D03*
X116900000Y-58400000D03*
D13*
X115630000Y-58400000D03*
X115610000Y-73900000D03*
D12*
X116880000Y-73900000D03*
X118150000Y-73900000D03*
X119420000Y-73900000D03*
D14*
X107500000Y-59000000D03*
X108450000Y-59000000D03*
X109400000Y-59000000D03*
X110350000Y-59000000D03*
X111300000Y-59000000D03*
X112250000Y-59000000D03*
X133700000Y-60150000D03*
X134800000Y-60150000D03*
X135950000Y-60150000D03*
X137050000Y-60150000D03*
X138100000Y-60150000D03*
X135150000Y-72050000D03*
X136200000Y-72050000D03*
X137250000Y-72050000D03*
X138250000Y-72050000D03*
X139250000Y-72050000D03*
X105950000Y-72000000D03*
X109950000Y-72000000D03*
X108950000Y-72000000D03*
X107950000Y-72000000D03*
X106950000Y-72000000D03*
D15*
X115630000Y-58400000D02*
X116900000Y-58400000D01*
X116900000Y-58400000D02*
X118170000Y-58400000D01*
X118170000Y-58400000D02*
X119440000Y-58400000D01*
X115610000Y-73900000D02*
X116880000Y-73900000D01*
X116880000Y-73900000D02*
X118150000Y-73900000D01*
X118150000Y-73900000D02*
X119420000Y-73900000D01*
D16*
X143065424Y-57069580D02*
X143128356Y-57088580D01*
X143186405Y-57119445D01*
X143237343Y-57160989D01*
X143279248Y-57211644D01*
X143310515Y-57269471D01*
X143329956Y-57332272D01*
X143340000Y-57427835D01*
X143340000Y-58232418D01*
X143340001Y-58232428D01*
X143340000Y-62832418D01*
X143340001Y-62832428D01*
X143340000Y-65199654D01*
X143300374Y-65225982D01*
X143293274Y-65231856D01*
X143218522Y-65294581D01*
X143176695Y-65337294D01*
X143134226Y-65379467D01*
X143128402Y-65386609D01*
X143067256Y-65462659D01*
X143034535Y-65512661D01*
X143001049Y-65562306D01*
X142996723Y-65570443D01*
X142951513Y-65656922D01*
X142929104Y-65712388D01*
X142905925Y-65767527D01*
X142903262Y-65776349D01*
X142875710Y-65869961D01*
X142864508Y-65928682D01*
X142852471Y-65987322D01*
X142851572Y-65996493D01*
X142842728Y-66093675D01*
X142843146Y-66153492D01*
X142842728Y-66213308D01*
X142843627Y-66222479D01*
X142853827Y-66319527D01*
X142865861Y-66378152D01*
X142877064Y-66436884D01*
X142879728Y-66445706D01*
X142908584Y-66538925D01*
X142931767Y-66594075D01*
X142954175Y-66649537D01*
X142958502Y-66657673D01*
X143004914Y-66743511D01*
X143038362Y-66793098D01*
X143071119Y-66843156D01*
X143076943Y-66850297D01*
X143139145Y-66925486D01*
X143181594Y-66967639D01*
X143223439Y-67010371D01*
X143230540Y-67016245D01*
X143306160Y-67077921D01*
X143340001Y-67100405D01*
X143340000Y-69632418D01*
X143340001Y-69632428D01*
X143340000Y-74167581D01*
X143340000Y-74867721D01*
X143330420Y-74965424D01*
X143311420Y-75028357D01*
X143280554Y-75086406D01*
X143239011Y-75137343D01*
X143188356Y-75179248D01*
X143130529Y-75210515D01*
X143067728Y-75229956D01*
X142972165Y-75240000D01*
X131527140Y-75240000D01*
X131714759Y-75114637D01*
X131914637Y-74914759D01*
X132053801Y-74706485D01*
X132079463Y-74754494D01*
X132158815Y-74851185D01*
X132255506Y-74930537D01*
X132365820Y-74989502D01*
X132485518Y-75025812D01*
X132610000Y-75038072D01*
X132824250Y-75035000D01*
X132983000Y-74876250D01*
X132983000Y-74027000D01*
X133237000Y-74027000D01*
X133237000Y-74876250D01*
X133395750Y-75035000D01*
X133610000Y-75038072D01*
X133734482Y-75025812D01*
X133854180Y-74989502D01*
X133943180Y-74941930D01*
X134023136Y-74977446D01*
X134078126Y-74994119D01*
X134253000Y-74867954D01*
X134253000Y-74027000D01*
X134507000Y-74027000D01*
X134507000Y-74867954D01*
X134681874Y-74994119D01*
X134736864Y-74977446D01*
X134940206Y-74887123D01*
X135015000Y-74834361D01*
X135089794Y-74887123D01*
X135293136Y-74977446D01*
X135348126Y-74994119D01*
X135523000Y-74867954D01*
X135523000Y-74027000D01*
X135777000Y-74027000D01*
X135777000Y-74867954D01*
X135951874Y-74994119D01*
X136006864Y-74977446D01*
X136210206Y-74887123D01*
X136285000Y-74834361D01*
X136359794Y-74887123D01*
X136563136Y-74977446D01*
X136618126Y-74994119D01*
X136793000Y-74867954D01*
X136793000Y-74027000D01*
X137047000Y-74027000D01*
X137047000Y-74867954D01*
X137221874Y-74994119D01*
X137276864Y-74977446D01*
X137480206Y-74887123D01*
X137662020Y-74758865D01*
X137815318Y-74597601D01*
X137934210Y-74409529D01*
X138014126Y-74201876D01*
X137889129Y-74027000D01*
X137047000Y-74027000D01*
X136793000Y-74027000D01*
X135777000Y-74027000D01*
X135523000Y-74027000D01*
X134507000Y-74027000D01*
X134253000Y-74027000D01*
X133237000Y-74027000D01*
X132983000Y-74027000D01*
X132963000Y-74027000D01*
X132963000Y-73773000D01*
X132983000Y-73773000D01*
X132983000Y-72923750D01*
X133237000Y-72923750D01*
X133237000Y-73773000D01*
X134253000Y-73773000D01*
X134253000Y-72932046D01*
X134507000Y-72932046D01*
X134507000Y-73773000D01*
X135523000Y-73773000D01*
X135523000Y-72932046D01*
X135777000Y-72932046D01*
X135777000Y-73773000D01*
X136793000Y-73773000D01*
X136793000Y-72932046D01*
X137047000Y-72932046D01*
X137047000Y-73773000D01*
X137889129Y-73773000D01*
X138014126Y-73598124D01*
X137934210Y-73390471D01*
X137815318Y-73202399D01*
X137662020Y-73041135D01*
X137480206Y-72912877D01*
X137276864Y-72822554D01*
X137221874Y-72805881D01*
X137047000Y-72932046D01*
X136793000Y-72932046D01*
X136618126Y-72805881D01*
X136563136Y-72822554D01*
X136359794Y-72912877D01*
X136285000Y-72965639D01*
X136210206Y-72912877D01*
X136006864Y-72822554D01*
X135951874Y-72805881D01*
X135777000Y-72932046D01*
X135523000Y-72932046D01*
X135348126Y-72805881D01*
X135293136Y-72822554D01*
X135089794Y-72912877D01*
X135015000Y-72965639D01*
X134940206Y-72912877D01*
X134736864Y-72822554D01*
X134681874Y-72805881D01*
X134507000Y-72932046D01*
X134253000Y-72932046D01*
X134078126Y-72805881D01*
X134023136Y-72822554D01*
X133943180Y-72858070D01*
X133854180Y-72810498D01*
X133734482Y-72774188D01*
X133610000Y-72761928D01*
X133395750Y-72765000D01*
X133237000Y-72923750D01*
X132983000Y-72923750D01*
X132824250Y-72765000D01*
X132610000Y-72761928D01*
X132485518Y-72774188D01*
X132365820Y-72810498D01*
X132255506Y-72869463D01*
X132158815Y-72948815D01*
X132079463Y-73045506D01*
X132020498Y-73155820D01*
X132002169Y-73216242D01*
X131914637Y-73085241D01*
X131714759Y-72885363D01*
X131479727Y-72728320D01*
X131218574Y-72620147D01*
X130941335Y-72565000D01*
X130658665Y-72565000D01*
X130381426Y-72620147D01*
X130120273Y-72728320D01*
X129885241Y-72885363D01*
X129685363Y-73085241D01*
X129528320Y-73320273D01*
X129420147Y-73581426D01*
X129365000Y-73858665D01*
X129365000Y-74141335D01*
X129420147Y-74418574D01*
X129528320Y-74679727D01*
X129685363Y-74914759D01*
X129885241Y-75114637D01*
X130072860Y-75240000D01*
X105032279Y-75240000D01*
X104934576Y-75230420D01*
X104871643Y-75211420D01*
X104813594Y-75180554D01*
X104762657Y-75139011D01*
X104720752Y-75088356D01*
X104689485Y-75030529D01*
X104670044Y-74967728D01*
X104660000Y-74872165D01*
X104660000Y-74400000D01*
X106961928Y-74400000D01*
X106974188Y-74524482D01*
X107010498Y-74644180D01*
X107069463Y-74754494D01*
X107148815Y-74851185D01*
X107245506Y-74930537D01*
X107355820Y-74989502D01*
X107475518Y-75025812D01*
X107600000Y-75038072D01*
X107814250Y-75035000D01*
X107973000Y-74876250D01*
X107973000Y-74027000D01*
X108227000Y-74027000D01*
X108227000Y-74876250D01*
X108385750Y-75035000D01*
X108600000Y-75038072D01*
X108724482Y-75025812D01*
X108844180Y-74989502D01*
X108933180Y-74941930D01*
X109013136Y-74977446D01*
X109068126Y-74994119D01*
X109243000Y-74867954D01*
X109243000Y-74027000D01*
X109497000Y-74027000D01*
X109497000Y-74867954D01*
X109671874Y-74994119D01*
X109726864Y-74977446D01*
X109930206Y-74887123D01*
X110005000Y-74834361D01*
X110079794Y-74887123D01*
X110283136Y-74977446D01*
X110338126Y-74994119D01*
X110513000Y-74867954D01*
X110513000Y-74027000D01*
X110767000Y-74027000D01*
X110767000Y-74867954D01*
X110941874Y-74994119D01*
X110996864Y-74977446D01*
X111200206Y-74887123D01*
X111275000Y-74834361D01*
X111349794Y-74887123D01*
X111553136Y-74977446D01*
X111608126Y-74994119D01*
X111783000Y-74867954D01*
X111783000Y-74027000D01*
X112037000Y-74027000D01*
X112037000Y-74867954D01*
X112211874Y-74994119D01*
X112266864Y-74977446D01*
X112470206Y-74887123D01*
X112652020Y-74758865D01*
X112805318Y-74597601D01*
X112924210Y-74409529D01*
X113004126Y-74201876D01*
X112879129Y-74027000D01*
X112037000Y-74027000D01*
X111783000Y-74027000D01*
X110767000Y-74027000D01*
X110513000Y-74027000D01*
X109497000Y-74027000D01*
X109243000Y-74027000D01*
X108227000Y-74027000D01*
X107973000Y-74027000D01*
X107123750Y-74027000D01*
X106965000Y-74185750D01*
X106961928Y-74400000D01*
X104660000Y-74400000D01*
X104660000Y-73400000D01*
X106961928Y-73400000D01*
X106965000Y-73614250D01*
X107123750Y-73773000D01*
X107973000Y-73773000D01*
X107973000Y-72923750D01*
X108227000Y-72923750D01*
X108227000Y-73773000D01*
X109243000Y-73773000D01*
X109243000Y-72932046D01*
X109497000Y-72932046D01*
X109497000Y-73773000D01*
X110513000Y-73773000D01*
X110513000Y-72932046D01*
X110767000Y-72932046D01*
X110767000Y-73773000D01*
X111783000Y-73773000D01*
X111783000Y-72932046D01*
X112037000Y-72932046D01*
X112037000Y-73773000D01*
X112879129Y-73773000D01*
X113004126Y-73598124D01*
X112927878Y-73400000D01*
X114471928Y-73400000D01*
X114471928Y-74400000D01*
X114484188Y-74524482D01*
X114520498Y-74644180D01*
X114579463Y-74754494D01*
X114658815Y-74851185D01*
X114755506Y-74930537D01*
X114865820Y-74989502D01*
X114985518Y-75025812D01*
X115110000Y-75038072D01*
X116110000Y-75038072D01*
X116234482Y-75025812D01*
X116354180Y-74989502D01*
X116437226Y-74945112D01*
X116548933Y-74991383D01*
X116768212Y-75035000D01*
X116991788Y-75035000D01*
X117211067Y-74991383D01*
X117417624Y-74905824D01*
X117515000Y-74840759D01*
X117612376Y-74905824D01*
X117818933Y-74991383D01*
X118038212Y-75035000D01*
X118261788Y-75035000D01*
X118481067Y-74991383D01*
X118687624Y-74905824D01*
X118785000Y-74840759D01*
X118882376Y-74905824D01*
X119088933Y-74991383D01*
X119308212Y-75035000D01*
X119531788Y-75035000D01*
X119751067Y-74991383D01*
X119957624Y-74905824D01*
X120143520Y-74781612D01*
X120301612Y-74623520D01*
X120425824Y-74437624D01*
X120511383Y-74231067D01*
X120555000Y-74011788D01*
X120555000Y-73788212D01*
X120511383Y-73568933D01*
X120425824Y-73362376D01*
X120301612Y-73176480D01*
X120143520Y-73018388D01*
X119957624Y-72894176D01*
X119751067Y-72808617D01*
X119531788Y-72765000D01*
X119308212Y-72765000D01*
X119088933Y-72808617D01*
X118882376Y-72894176D01*
X118785000Y-72959241D01*
X118687624Y-72894176D01*
X118481067Y-72808617D01*
X118261788Y-72765000D01*
X118038212Y-72765000D01*
X117818933Y-72808617D01*
X117612376Y-72894176D01*
X117515000Y-72959241D01*
X117417624Y-72894176D01*
X117211067Y-72808617D01*
X116991788Y-72765000D01*
X116768212Y-72765000D01*
X116548933Y-72808617D01*
X116437226Y-72854888D01*
X116354180Y-72810498D01*
X116234482Y-72774188D01*
X116110000Y-72761928D01*
X115110000Y-72761928D01*
X114985518Y-72774188D01*
X114865820Y-72810498D01*
X114755506Y-72869463D01*
X114658815Y-72948815D01*
X114579463Y-73045506D01*
X114520498Y-73155820D01*
X114484188Y-73275518D01*
X114471928Y-73400000D01*
X112927878Y-73400000D01*
X112924210Y-73390471D01*
X112805318Y-73202399D01*
X112652020Y-73041135D01*
X112470206Y-72912877D01*
X112266864Y-72822554D01*
X112211874Y-72805881D01*
X112037000Y-72932046D01*
X111783000Y-72932046D01*
X111608126Y-72805881D01*
X111553136Y-72822554D01*
X111349794Y-72912877D01*
X111275000Y-72965639D01*
X111200206Y-72912877D01*
X110996864Y-72822554D01*
X110941874Y-72805881D01*
X110767000Y-72932046D01*
X110513000Y-72932046D01*
X110338126Y-72805881D01*
X110283136Y-72822554D01*
X110079794Y-72912877D01*
X110005000Y-72965639D01*
X109930206Y-72912877D01*
X109726864Y-72822554D01*
X109671874Y-72805881D01*
X109497000Y-72932046D01*
X109243000Y-72932046D01*
X109068126Y-72805881D01*
X109013136Y-72822554D01*
X108933180Y-72858070D01*
X108844180Y-72810498D01*
X108724482Y-72774188D01*
X108600000Y-72761928D01*
X108385750Y-72765000D01*
X108227000Y-72923750D01*
X107973000Y-72923750D01*
X107814250Y-72765000D01*
X107600000Y-72761928D01*
X107475518Y-72774188D01*
X107355820Y-72810498D01*
X107245506Y-72869463D01*
X107148815Y-72948815D01*
X107069463Y-73045506D01*
X107010498Y-73155820D01*
X106974188Y-73275518D01*
X106961928Y-73400000D01*
X104660000Y-73400000D01*
X104660000Y-69000034D01*
X112477367Y-69000034D01*
X112477367Y-69299966D01*
X112535881Y-69594136D01*
X112650660Y-69871237D01*
X112817294Y-70120622D01*
X113029378Y-70332706D01*
X113278763Y-70499340D01*
X113555864Y-70614119D01*
X113850034Y-70672633D01*
X114149966Y-70672633D01*
X114444136Y-70614119D01*
X114721237Y-70499340D01*
X114970622Y-70332706D01*
X115182706Y-70120622D01*
X115349340Y-69871237D01*
X115464119Y-69594136D01*
X115522633Y-69299966D01*
X115522633Y-69000034D01*
X115464119Y-68705864D01*
X115349340Y-68428763D01*
X115182706Y-68179378D01*
X114970622Y-67967294D01*
X114721237Y-67800660D01*
X114444136Y-67685881D01*
X114149966Y-67627367D01*
X113850034Y-67627367D01*
X113555864Y-67685881D01*
X113278763Y-67800660D01*
X113029378Y-67967294D01*
X112817294Y-68179378D01*
X112650660Y-68428763D01*
X112535881Y-68705864D01*
X112477367Y-69000034D01*
X104660000Y-69000034D01*
X104660000Y-67100346D01*
X104699626Y-67074019D01*
X104706719Y-67068149D01*
X104706723Y-67068147D01*
X104706726Y-67068144D01*
X104781478Y-67005419D01*
X104823321Y-66962690D01*
X104865774Y-66920533D01*
X104871598Y-66913391D01*
X104871601Y-66913388D01*
X104871604Y-66913384D01*
X104932744Y-66837341D01*
X104965487Y-66787305D01*
X104998951Y-66737693D01*
X105003277Y-66729557D01*
X105048487Y-66643077D01*
X105070890Y-66587626D01*
X105094075Y-66532473D01*
X105096738Y-66523651D01*
X105124290Y-66430040D01*
X105135496Y-66371297D01*
X105147529Y-66312678D01*
X105148428Y-66303507D01*
X105157272Y-66206324D01*
X105156854Y-66146509D01*
X105157272Y-66086693D01*
X105156373Y-66077522D01*
X105146173Y-65980473D01*
X105141135Y-65955926D01*
X106029534Y-65955926D01*
X106029534Y-66344074D01*
X106105258Y-66724764D01*
X106253796Y-67083366D01*
X106469439Y-67406099D01*
X106743901Y-67680561D01*
X107066634Y-67896204D01*
X107425236Y-68044742D01*
X107805926Y-68120466D01*
X108194074Y-68120466D01*
X108574764Y-68044742D01*
X108933366Y-67896204D01*
X109256099Y-67680561D01*
X109530561Y-67406099D01*
X109746204Y-67083366D01*
X109894742Y-66724764D01*
X109970466Y-66344074D01*
X109970466Y-65955926D01*
X109894742Y-65575236D01*
X109746204Y-65216634D01*
X109530561Y-64893901D01*
X109256099Y-64619439D01*
X108933366Y-64403796D01*
X108574764Y-64255258D01*
X108194074Y-64179534D01*
X107805926Y-64179534D01*
X107425236Y-64255258D01*
X107066634Y-64403796D01*
X106743901Y-64619439D01*
X106469439Y-64893901D01*
X106253796Y-65216634D01*
X106105258Y-65575236D01*
X106029534Y-65955926D01*
X105141135Y-65955926D01*
X105134140Y-65921854D01*
X105122936Y-65863116D01*
X105120272Y-65854294D01*
X105091416Y-65761075D01*
X105068238Y-65705937D01*
X105045825Y-65650463D01*
X105041498Y-65642327D01*
X104995085Y-65556489D01*
X104961645Y-65506913D01*
X104928881Y-65456844D01*
X104923057Y-65449703D01*
X104860855Y-65374514D01*
X104818406Y-65332361D01*
X104776561Y-65289629D01*
X104769460Y-65283755D01*
X104693839Y-65222079D01*
X104660000Y-65199596D01*
X104660000Y-63400000D01*
X119036807Y-63400000D01*
X119040000Y-63432419D01*
X119040001Y-68867571D01*
X119036807Y-68900000D01*
X119049550Y-69029383D01*
X119087290Y-69153793D01*
X119148575Y-69268450D01*
X119231052Y-69368948D01*
X119331550Y-69451425D01*
X119446207Y-69512710D01*
X119570617Y-69550450D01*
X119667581Y-69560000D01*
X119700000Y-69563193D01*
X119732419Y-69560000D01*
X128167581Y-69560000D01*
X128200000Y-69563193D01*
X128232419Y-69560000D01*
X128329383Y-69550450D01*
X128453793Y-69512710D01*
X128568450Y-69451425D01*
X128668948Y-69368948D01*
X128751425Y-69268450D01*
X128812710Y-69153793D01*
X128850450Y-69029383D01*
X128863193Y-68900000D01*
X128860000Y-68867581D01*
X128860000Y-66099258D01*
X137542748Y-66099258D01*
X137543166Y-66159075D01*
X137542748Y-66218892D01*
X137543647Y-66228064D01*
X137570167Y-66480389D01*
X137582196Y-66538988D01*
X137593405Y-66597747D01*
X137596068Y-66606569D01*
X137671095Y-66848938D01*
X137694265Y-66904056D01*
X137716683Y-66959545D01*
X137721009Y-66967681D01*
X137841682Y-67190862D01*
X137875150Y-67240480D01*
X137907889Y-67290511D01*
X137913713Y-67297652D01*
X138075438Y-67493143D01*
X138117872Y-67535282D01*
X138159735Y-67578031D01*
X138166836Y-67583904D01*
X138166839Y-67583907D01*
X138166843Y-67583909D01*
X138363450Y-67744260D01*
X138413238Y-67777339D01*
X138462634Y-67811161D01*
X138470741Y-67815544D01*
X138694759Y-67934656D01*
X138750062Y-67957450D01*
X138805044Y-67981016D01*
X138813847Y-67983741D01*
X139056733Y-68057073D01*
X139115418Y-68068693D01*
X139173926Y-68081129D01*
X139183089Y-68082092D01*
X139183091Y-68082092D01*
X139435596Y-68106850D01*
X139435598Y-68106850D01*
X139467581Y-68110000D01*
X140532419Y-68110000D01*
X140565683Y-68106724D01*
X140582555Y-68106724D01*
X140591720Y-68105760D01*
X140843853Y-68077479D01*
X140902354Y-68065044D01*
X140961046Y-68053423D01*
X140969849Y-68050698D01*
X141211688Y-67973982D01*
X141266685Y-67950410D01*
X141321974Y-67927622D01*
X141330080Y-67923239D01*
X141552414Y-67801011D01*
X141601794Y-67767199D01*
X141651598Y-67734110D01*
X141658699Y-67728236D01*
X141853056Y-67565150D01*
X141894899Y-67522420D01*
X141937352Y-67480264D01*
X141943176Y-67473122D01*
X142102156Y-67275392D01*
X142134916Y-67225330D01*
X142168362Y-67175744D01*
X142172688Y-67167607D01*
X142290234Y-66942764D01*
X142312653Y-66887274D01*
X142335823Y-66832155D01*
X142338487Y-66823333D01*
X142410121Y-66579940D01*
X142421333Y-66521166D01*
X142433358Y-66462585D01*
X142434257Y-66453414D01*
X142457252Y-66200742D01*
X142456834Y-66140925D01*
X142457252Y-66081108D01*
X142456353Y-66071936D01*
X142429833Y-65819611D01*
X142417794Y-65760962D01*
X142406595Y-65702253D01*
X142403932Y-65693431D01*
X142328906Y-65451062D01*
X142305716Y-65395898D01*
X142283317Y-65340456D01*
X142278991Y-65332319D01*
X142158318Y-65109138D01*
X142124865Y-65059543D01*
X142092111Y-65009489D01*
X142086287Y-65002348D01*
X141924562Y-64806857D01*
X141882128Y-64764718D01*
X141840265Y-64721969D01*
X141833164Y-64716095D01*
X141636549Y-64555740D01*
X141586733Y-64522642D01*
X141537366Y-64488839D01*
X141529259Y-64484456D01*
X141305241Y-64365344D01*
X141249950Y-64342555D01*
X141194956Y-64318984D01*
X141186153Y-64316259D01*
X140943267Y-64242927D01*
X140884582Y-64231307D01*
X140826074Y-64218871D01*
X140816911Y-64217908D01*
X140816909Y-64217908D01*
X140564404Y-64193150D01*
X140564402Y-64193150D01*
X140532419Y-64190000D01*
X139467581Y-64190000D01*
X139434309Y-64193277D01*
X139417445Y-64193277D01*
X139408280Y-64194240D01*
X139156146Y-64222521D01*
X139097638Y-64234957D01*
X139038953Y-64246577D01*
X139030150Y-64249302D01*
X138788312Y-64326018D01*
X138733315Y-64349590D01*
X138678026Y-64372378D01*
X138669920Y-64376761D01*
X138447587Y-64498989D01*
X138398224Y-64532789D01*
X138348402Y-64565890D01*
X138341302Y-64571764D01*
X138146944Y-64734850D01*
X138105118Y-64777563D01*
X138062648Y-64819736D01*
X138056824Y-64826878D01*
X137897844Y-65024608D01*
X137865084Y-65074670D01*
X137831638Y-65124256D01*
X137827312Y-65132393D01*
X137709767Y-65357236D01*
X137687371Y-65412668D01*
X137664177Y-65467844D01*
X137661514Y-65476666D01*
X137589879Y-65720060D01*
X137578666Y-65778841D01*
X137566642Y-65837415D01*
X137565743Y-65846587D01*
X137542748Y-66099258D01*
X128860000Y-66099258D01*
X128860000Y-63432419D01*
X128863193Y-63400000D01*
X128850450Y-63270617D01*
X128812710Y-63146207D01*
X128751425Y-63031550D01*
X128725561Y-63000034D01*
X132477367Y-63000034D01*
X132477367Y-63299966D01*
X132535881Y-63594136D01*
X132650660Y-63871237D01*
X132817294Y-64120622D01*
X133029378Y-64332706D01*
X133278763Y-64499340D01*
X133555864Y-64614119D01*
X133850034Y-64672633D01*
X134149966Y-64672633D01*
X134444136Y-64614119D01*
X134721237Y-64499340D01*
X134970622Y-64332706D01*
X135182706Y-64120622D01*
X135349340Y-63871237D01*
X135464119Y-63594136D01*
X135522633Y-63299966D01*
X135522633Y-63000034D01*
X135464119Y-62705864D01*
X135349340Y-62428763D01*
X135182706Y-62179378D01*
X134970622Y-61967294D01*
X134721237Y-61800660D01*
X134444136Y-61685881D01*
X134149966Y-61627367D01*
X133850034Y-61627367D01*
X133555864Y-61685881D01*
X133278763Y-61800660D01*
X133029378Y-61967294D01*
X132817294Y-62179378D01*
X132650660Y-62428763D01*
X132535881Y-62705864D01*
X132477367Y-63000034D01*
X128725561Y-63000034D01*
X128668948Y-62931052D01*
X128568450Y-62848575D01*
X128453793Y-62787290D01*
X128329383Y-62749550D01*
X128232419Y-62740000D01*
X128200000Y-62736807D01*
X128167581Y-62740000D01*
X119732419Y-62740000D01*
X119700000Y-62736807D01*
X119667581Y-62740000D01*
X119570617Y-62749550D01*
X119446207Y-62787290D01*
X119331550Y-62848575D01*
X119231052Y-62931052D01*
X119148575Y-63031550D01*
X119087290Y-63146207D01*
X119049550Y-63270617D01*
X119036807Y-63400000D01*
X104660000Y-63400000D01*
X104660000Y-60173380D01*
X106933380Y-57900000D01*
X114491928Y-57900000D01*
X114491928Y-58900000D01*
X114504188Y-59024482D01*
X114540498Y-59144180D01*
X114599463Y-59254494D01*
X114678815Y-59351185D01*
X114775506Y-59430537D01*
X114885820Y-59489502D01*
X115005518Y-59525812D01*
X115130000Y-59538072D01*
X116130000Y-59538072D01*
X116254482Y-59525812D01*
X116374180Y-59489502D01*
X116457226Y-59445112D01*
X116568933Y-59491383D01*
X116788212Y-59535000D01*
X117011788Y-59535000D01*
X117231067Y-59491383D01*
X117437624Y-59405824D01*
X117535000Y-59340759D01*
X117632376Y-59405824D01*
X117838933Y-59491383D01*
X118058212Y-59535000D01*
X118281788Y-59535000D01*
X118501067Y-59491383D01*
X118707624Y-59405824D01*
X118805000Y-59340759D01*
X118902376Y-59405824D01*
X119108933Y-59491383D01*
X119328212Y-59535000D01*
X119551788Y-59535000D01*
X119771067Y-59491383D01*
X119977624Y-59405824D01*
X120163520Y-59281612D01*
X120321612Y-59123520D01*
X120445824Y-58937624D01*
X120531383Y-58731067D01*
X120553740Y-58618665D01*
X129365000Y-58618665D01*
X129365000Y-58901335D01*
X129420147Y-59178574D01*
X129528320Y-59439727D01*
X129685363Y-59674759D01*
X129885241Y-59874637D01*
X130120273Y-60031680D01*
X130381426Y-60139853D01*
X130658665Y-60195000D01*
X130941335Y-60195000D01*
X131218574Y-60139853D01*
X131479727Y-60031680D01*
X131714759Y-59874637D01*
X131914637Y-59674759D01*
X132071680Y-59439727D01*
X132125281Y-59310323D01*
X132158815Y-59351185D01*
X132255506Y-59430537D01*
X132365820Y-59489502D01*
X132485518Y-59525812D01*
X132610000Y-59538072D01*
X132824250Y-59535000D01*
X132983000Y-59376250D01*
X132983000Y-58527000D01*
X133237000Y-58527000D01*
X133237000Y-59376250D01*
X133395750Y-59535000D01*
X133610000Y-59538072D01*
X133734482Y-59525812D01*
X133854180Y-59489502D01*
X133943180Y-59441930D01*
X134023136Y-59477446D01*
X134078126Y-59494119D01*
X134253000Y-59367954D01*
X134253000Y-58527000D01*
X134507000Y-58527000D01*
X134507000Y-59367954D01*
X134681874Y-59494119D01*
X134736864Y-59477446D01*
X134940206Y-59387123D01*
X135015000Y-59334361D01*
X135089794Y-59387123D01*
X135293136Y-59477446D01*
X135348126Y-59494119D01*
X135523000Y-59367954D01*
X135523000Y-58527000D01*
X135777000Y-58527000D01*
X135777000Y-59367954D01*
X135951874Y-59494119D01*
X136006864Y-59477446D01*
X136210206Y-59387123D01*
X136285000Y-59334361D01*
X136359794Y-59387123D01*
X136563136Y-59477446D01*
X136618126Y-59494119D01*
X136793000Y-59367954D01*
X136793000Y-58527000D01*
X137047000Y-58527000D01*
X137047000Y-59367954D01*
X137221874Y-59494119D01*
X137276864Y-59477446D01*
X137480206Y-59387123D01*
X137662020Y-59258865D01*
X137815318Y-59097601D01*
X137934210Y-58909529D01*
X138014126Y-58701876D01*
X137889129Y-58527000D01*
X137047000Y-58527000D01*
X136793000Y-58527000D01*
X135777000Y-58527000D01*
X135523000Y-58527000D01*
X134507000Y-58527000D01*
X134253000Y-58527000D01*
X133237000Y-58527000D01*
X132983000Y-58527000D01*
X132963000Y-58527000D01*
X132963000Y-58273000D01*
X132983000Y-58273000D01*
X132983000Y-57423750D01*
X133237000Y-57423750D01*
X133237000Y-58273000D01*
X134253000Y-58273000D01*
X134253000Y-57432046D01*
X134507000Y-57432046D01*
X134507000Y-58273000D01*
X135523000Y-58273000D01*
X135523000Y-57432046D01*
X135777000Y-57432046D01*
X135777000Y-58273000D01*
X136793000Y-58273000D01*
X136793000Y-57432046D01*
X137047000Y-57432046D01*
X137047000Y-58273000D01*
X137889129Y-58273000D01*
X138014126Y-58098124D01*
X137934210Y-57890471D01*
X137815318Y-57702399D01*
X137662020Y-57541135D01*
X137480206Y-57412877D01*
X137276864Y-57322554D01*
X137221874Y-57305881D01*
X137047000Y-57432046D01*
X136793000Y-57432046D01*
X136618126Y-57305881D01*
X136563136Y-57322554D01*
X136359794Y-57412877D01*
X136285000Y-57465639D01*
X136210206Y-57412877D01*
X136006864Y-57322554D01*
X135951874Y-57305881D01*
X135777000Y-57432046D01*
X135523000Y-57432046D01*
X135348126Y-57305881D01*
X135293136Y-57322554D01*
X135089794Y-57412877D01*
X135015000Y-57465639D01*
X134940206Y-57412877D01*
X134736864Y-57322554D01*
X134681874Y-57305881D01*
X134507000Y-57432046D01*
X134253000Y-57432046D01*
X134078126Y-57305881D01*
X134023136Y-57322554D01*
X133943180Y-57358070D01*
X133854180Y-57310498D01*
X133734482Y-57274188D01*
X133610000Y-57261928D01*
X133395750Y-57265000D01*
X133237000Y-57423750D01*
X132983000Y-57423750D01*
X132824250Y-57265000D01*
X132610000Y-57261928D01*
X132485518Y-57274188D01*
X132365820Y-57310498D01*
X132255506Y-57369463D01*
X132158815Y-57448815D01*
X132079463Y-57545506D01*
X132020498Y-57655820D01*
X131984188Y-57775518D01*
X131971928Y-57900000D01*
X131972382Y-57931663D01*
X131914637Y-57845241D01*
X131714759Y-57645363D01*
X131479727Y-57488320D01*
X131218574Y-57380147D01*
X130941335Y-57325000D01*
X130658665Y-57325000D01*
X130381426Y-57380147D01*
X130120273Y-57488320D01*
X129885241Y-57645363D01*
X129685363Y-57845241D01*
X129528320Y-58080273D01*
X129420147Y-58341426D01*
X129365000Y-58618665D01*
X120553740Y-58618665D01*
X120575000Y-58511788D01*
X120575000Y-58288212D01*
X120531383Y-58068933D01*
X120445824Y-57862376D01*
X120321612Y-57676480D01*
X120163520Y-57518388D01*
X119977624Y-57394176D01*
X119771067Y-57308617D01*
X119551788Y-57265000D01*
X119328212Y-57265000D01*
X119108933Y-57308617D01*
X118902376Y-57394176D01*
X118805000Y-57459241D01*
X118707624Y-57394176D01*
X118501067Y-57308617D01*
X118281788Y-57265000D01*
X118058212Y-57265000D01*
X117838933Y-57308617D01*
X117632376Y-57394176D01*
X117535000Y-57459241D01*
X117437624Y-57394176D01*
X117231067Y-57308617D01*
X117011788Y-57265000D01*
X116788212Y-57265000D01*
X116568933Y-57308617D01*
X116457226Y-57354888D01*
X116374180Y-57310498D01*
X116254482Y-57274188D01*
X116130000Y-57261928D01*
X115130000Y-57261928D01*
X115005518Y-57274188D01*
X114885820Y-57310498D01*
X114775506Y-57369463D01*
X114678815Y-57448815D01*
X114599463Y-57545506D01*
X114540498Y-57655820D01*
X114504188Y-57775518D01*
X114491928Y-57900000D01*
X106933380Y-57900000D01*
X107773381Y-57060000D01*
X142967721Y-57060000D01*
X143065424Y-57069580D01*
G04 #@! TA.AperFunction,Conductor*
D17*
G36*
X143065424Y-57069580D02*
G01*
X143128356Y-57088580D01*
X143186405Y-57119445D01*
X143237343Y-57160989D01*
X143279248Y-57211644D01*
X143310515Y-57269471D01*
X143329956Y-57332272D01*
X143340000Y-57427835D01*
X143340000Y-58232418D01*
X143340001Y-58232428D01*
X143340000Y-62832418D01*
X143340001Y-62832428D01*
X143340000Y-65199654D01*
X143300374Y-65225982D01*
X143293274Y-65231856D01*
X143218522Y-65294581D01*
X143176695Y-65337294D01*
X143134226Y-65379467D01*
X143128402Y-65386609D01*
X143067256Y-65462659D01*
X143034535Y-65512661D01*
X143001049Y-65562306D01*
X142996723Y-65570443D01*
X142951513Y-65656922D01*
X142929104Y-65712388D01*
X142905925Y-65767527D01*
X142903262Y-65776349D01*
X142875710Y-65869961D01*
X142864508Y-65928682D01*
X142852471Y-65987322D01*
X142851572Y-65996493D01*
X142842728Y-66093675D01*
X142843146Y-66153492D01*
X142842728Y-66213308D01*
X142843627Y-66222479D01*
X142853827Y-66319527D01*
X142865861Y-66378152D01*
X142877064Y-66436884D01*
X142879728Y-66445706D01*
X142908584Y-66538925D01*
X142931767Y-66594075D01*
X142954175Y-66649537D01*
X142958502Y-66657673D01*
X143004914Y-66743511D01*
X143038362Y-66793098D01*
X143071119Y-66843156D01*
X143076943Y-66850297D01*
X143139145Y-66925486D01*
X143181594Y-66967639D01*
X143223439Y-67010371D01*
X143230540Y-67016245D01*
X143306160Y-67077921D01*
X143340001Y-67100405D01*
X143340000Y-69632418D01*
X143340001Y-69632428D01*
X143340000Y-74167581D01*
X143340000Y-74867721D01*
X143330420Y-74965424D01*
X143311420Y-75028357D01*
X143280554Y-75086406D01*
X143239011Y-75137343D01*
X143188356Y-75179248D01*
X143130529Y-75210515D01*
X143067728Y-75229956D01*
X142972165Y-75240000D01*
X131527140Y-75240000D01*
X131714759Y-75114637D01*
X131914637Y-74914759D01*
X132053801Y-74706485D01*
X132079463Y-74754494D01*
X132158815Y-74851185D01*
X132255506Y-74930537D01*
X132365820Y-74989502D01*
X132485518Y-75025812D01*
X132610000Y-75038072D01*
X132824250Y-75035000D01*
X132983000Y-74876250D01*
X132983000Y-74027000D01*
X133237000Y-74027000D01*
X133237000Y-74876250D01*
X133395750Y-75035000D01*
X133610000Y-75038072D01*
X133734482Y-75025812D01*
X133854180Y-74989502D01*
X133943180Y-74941930D01*
X134023136Y-74977446D01*
X134078126Y-74994119D01*
X134253000Y-74867954D01*
X134253000Y-74027000D01*
X134507000Y-74027000D01*
X134507000Y-74867954D01*
X134681874Y-74994119D01*
X134736864Y-74977446D01*
X134940206Y-74887123D01*
X135015000Y-74834361D01*
X135089794Y-74887123D01*
X135293136Y-74977446D01*
X135348126Y-74994119D01*
X135523000Y-74867954D01*
X135523000Y-74027000D01*
X135777000Y-74027000D01*
X135777000Y-74867954D01*
X135951874Y-74994119D01*
X136006864Y-74977446D01*
X136210206Y-74887123D01*
X136285000Y-74834361D01*
X136359794Y-74887123D01*
X136563136Y-74977446D01*
X136618126Y-74994119D01*
X136793000Y-74867954D01*
X136793000Y-74027000D01*
X137047000Y-74027000D01*
X137047000Y-74867954D01*
X137221874Y-74994119D01*
X137276864Y-74977446D01*
X137480206Y-74887123D01*
X137662020Y-74758865D01*
X137815318Y-74597601D01*
X137934210Y-74409529D01*
X138014126Y-74201876D01*
X137889129Y-74027000D01*
X137047000Y-74027000D01*
X136793000Y-74027000D01*
X135777000Y-74027000D01*
X135523000Y-74027000D01*
X134507000Y-74027000D01*
X134253000Y-74027000D01*
X133237000Y-74027000D01*
X132983000Y-74027000D01*
X132963000Y-74027000D01*
X132963000Y-73773000D01*
X132983000Y-73773000D01*
X132983000Y-72923750D01*
X133237000Y-72923750D01*
X133237000Y-73773000D01*
X134253000Y-73773000D01*
X134253000Y-72932046D01*
X134507000Y-72932046D01*
X134507000Y-73773000D01*
X135523000Y-73773000D01*
X135523000Y-72932046D01*
X135777000Y-72932046D01*
X135777000Y-73773000D01*
X136793000Y-73773000D01*
X136793000Y-72932046D01*
X137047000Y-72932046D01*
X137047000Y-73773000D01*
X137889129Y-73773000D01*
X138014126Y-73598124D01*
X137934210Y-73390471D01*
X137815318Y-73202399D01*
X137662020Y-73041135D01*
X137480206Y-72912877D01*
X137276864Y-72822554D01*
X137221874Y-72805881D01*
X137047000Y-72932046D01*
X136793000Y-72932046D01*
X136618126Y-72805881D01*
X136563136Y-72822554D01*
X136359794Y-72912877D01*
X136285000Y-72965639D01*
X136210206Y-72912877D01*
X136006864Y-72822554D01*
X135951874Y-72805881D01*
X135777000Y-72932046D01*
X135523000Y-72932046D01*
X135348126Y-72805881D01*
X135293136Y-72822554D01*
X135089794Y-72912877D01*
X135015000Y-72965639D01*
X134940206Y-72912877D01*
X134736864Y-72822554D01*
X134681874Y-72805881D01*
X134507000Y-72932046D01*
X134253000Y-72932046D01*
X134078126Y-72805881D01*
X134023136Y-72822554D01*
X133943180Y-72858070D01*
X133854180Y-72810498D01*
X133734482Y-72774188D01*
X133610000Y-72761928D01*
X133395750Y-72765000D01*
X133237000Y-72923750D01*
X132983000Y-72923750D01*
X132824250Y-72765000D01*
X132610000Y-72761928D01*
X132485518Y-72774188D01*
X132365820Y-72810498D01*
X132255506Y-72869463D01*
X132158815Y-72948815D01*
X132079463Y-73045506D01*
X132020498Y-73155820D01*
X132002169Y-73216242D01*
X131914637Y-73085241D01*
X131714759Y-72885363D01*
X131479727Y-72728320D01*
X131218574Y-72620147D01*
X130941335Y-72565000D01*
X130658665Y-72565000D01*
X130381426Y-72620147D01*
X130120273Y-72728320D01*
X129885241Y-72885363D01*
X129685363Y-73085241D01*
X129528320Y-73320273D01*
X129420147Y-73581426D01*
X129365000Y-73858665D01*
X129365000Y-74141335D01*
X129420147Y-74418574D01*
X129528320Y-74679727D01*
X129685363Y-74914759D01*
X129885241Y-75114637D01*
X130072860Y-75240000D01*
X105032279Y-75240000D01*
X104934576Y-75230420D01*
X104871643Y-75211420D01*
X104813594Y-75180554D01*
X104762657Y-75139011D01*
X104720752Y-75088356D01*
X104689485Y-75030529D01*
X104670044Y-74967728D01*
X104660000Y-74872165D01*
X104660000Y-74400000D01*
X106961928Y-74400000D01*
X106974188Y-74524482D01*
X107010498Y-74644180D01*
X107069463Y-74754494D01*
X107148815Y-74851185D01*
X107245506Y-74930537D01*
X107355820Y-74989502D01*
X107475518Y-75025812D01*
X107600000Y-75038072D01*
X107814250Y-75035000D01*
X107973000Y-74876250D01*
X107973000Y-74027000D01*
X108227000Y-74027000D01*
X108227000Y-74876250D01*
X108385750Y-75035000D01*
X108600000Y-75038072D01*
X108724482Y-75025812D01*
X108844180Y-74989502D01*
X108933180Y-74941930D01*
X109013136Y-74977446D01*
X109068126Y-74994119D01*
X109243000Y-74867954D01*
X109243000Y-74027000D01*
X109497000Y-74027000D01*
X109497000Y-74867954D01*
X109671874Y-74994119D01*
X109726864Y-74977446D01*
X109930206Y-74887123D01*
X110005000Y-74834361D01*
X110079794Y-74887123D01*
X110283136Y-74977446D01*
X110338126Y-74994119D01*
X110513000Y-74867954D01*
X110513000Y-74027000D01*
X110767000Y-74027000D01*
X110767000Y-74867954D01*
X110941874Y-74994119D01*
X110996864Y-74977446D01*
X111200206Y-74887123D01*
X111275000Y-74834361D01*
X111349794Y-74887123D01*
X111553136Y-74977446D01*
X111608126Y-74994119D01*
X111783000Y-74867954D01*
X111783000Y-74027000D01*
X112037000Y-74027000D01*
X112037000Y-74867954D01*
X112211874Y-74994119D01*
X112266864Y-74977446D01*
X112470206Y-74887123D01*
X112652020Y-74758865D01*
X112805318Y-74597601D01*
X112924210Y-74409529D01*
X113004126Y-74201876D01*
X112879129Y-74027000D01*
X112037000Y-74027000D01*
X111783000Y-74027000D01*
X110767000Y-74027000D01*
X110513000Y-74027000D01*
X109497000Y-74027000D01*
X109243000Y-74027000D01*
X108227000Y-74027000D01*
X107973000Y-74027000D01*
X107123750Y-74027000D01*
X106965000Y-74185750D01*
X106961928Y-74400000D01*
X104660000Y-74400000D01*
X104660000Y-73400000D01*
X106961928Y-73400000D01*
X106965000Y-73614250D01*
X107123750Y-73773000D01*
X107973000Y-73773000D01*
X107973000Y-72923750D01*
X108227000Y-72923750D01*
X108227000Y-73773000D01*
X109243000Y-73773000D01*
X109243000Y-72932046D01*
X109497000Y-72932046D01*
X109497000Y-73773000D01*
X110513000Y-73773000D01*
X110513000Y-72932046D01*
X110767000Y-72932046D01*
X110767000Y-73773000D01*
X111783000Y-73773000D01*
X111783000Y-72932046D01*
X112037000Y-72932046D01*
X112037000Y-73773000D01*
X112879129Y-73773000D01*
X113004126Y-73598124D01*
X112927878Y-73400000D01*
X114471928Y-73400000D01*
X114471928Y-74400000D01*
X114484188Y-74524482D01*
X114520498Y-74644180D01*
X114579463Y-74754494D01*
X114658815Y-74851185D01*
X114755506Y-74930537D01*
X114865820Y-74989502D01*
X114985518Y-75025812D01*
X115110000Y-75038072D01*
X116110000Y-75038072D01*
X116234482Y-75025812D01*
X116354180Y-74989502D01*
X116437226Y-74945112D01*
X116548933Y-74991383D01*
X116768212Y-75035000D01*
X116991788Y-75035000D01*
X117211067Y-74991383D01*
X117417624Y-74905824D01*
X117515000Y-74840759D01*
X117612376Y-74905824D01*
X117818933Y-74991383D01*
X118038212Y-75035000D01*
X118261788Y-75035000D01*
X118481067Y-74991383D01*
X118687624Y-74905824D01*
X118785000Y-74840759D01*
X118882376Y-74905824D01*
X119088933Y-74991383D01*
X119308212Y-75035000D01*
X119531788Y-75035000D01*
X119751067Y-74991383D01*
X119957624Y-74905824D01*
X120143520Y-74781612D01*
X120301612Y-74623520D01*
X120425824Y-74437624D01*
X120511383Y-74231067D01*
X120555000Y-74011788D01*
X120555000Y-73788212D01*
X120511383Y-73568933D01*
X120425824Y-73362376D01*
X120301612Y-73176480D01*
X120143520Y-73018388D01*
X119957624Y-72894176D01*
X119751067Y-72808617D01*
X119531788Y-72765000D01*
X119308212Y-72765000D01*
X119088933Y-72808617D01*
X118882376Y-72894176D01*
X118785000Y-72959241D01*
X118687624Y-72894176D01*
X118481067Y-72808617D01*
X118261788Y-72765000D01*
X118038212Y-72765000D01*
X117818933Y-72808617D01*
X117612376Y-72894176D01*
X117515000Y-72959241D01*
X117417624Y-72894176D01*
X117211067Y-72808617D01*
X116991788Y-72765000D01*
X116768212Y-72765000D01*
X116548933Y-72808617D01*
X116437226Y-72854888D01*
X116354180Y-72810498D01*
X116234482Y-72774188D01*
X116110000Y-72761928D01*
X115110000Y-72761928D01*
X114985518Y-72774188D01*
X114865820Y-72810498D01*
X114755506Y-72869463D01*
X114658815Y-72948815D01*
X114579463Y-73045506D01*
X114520498Y-73155820D01*
X114484188Y-73275518D01*
X114471928Y-73400000D01*
X112927878Y-73400000D01*
X112924210Y-73390471D01*
X112805318Y-73202399D01*
X112652020Y-73041135D01*
X112470206Y-72912877D01*
X112266864Y-72822554D01*
X112211874Y-72805881D01*
X112037000Y-72932046D01*
X111783000Y-72932046D01*
X111608126Y-72805881D01*
X111553136Y-72822554D01*
X111349794Y-72912877D01*
X111275000Y-72965639D01*
X111200206Y-72912877D01*
X110996864Y-72822554D01*
X110941874Y-72805881D01*
X110767000Y-72932046D01*
X110513000Y-72932046D01*
X110338126Y-72805881D01*
X110283136Y-72822554D01*
X110079794Y-72912877D01*
X110005000Y-72965639D01*
X109930206Y-72912877D01*
X109726864Y-72822554D01*
X109671874Y-72805881D01*
X109497000Y-72932046D01*
X109243000Y-72932046D01*
X109068126Y-72805881D01*
X109013136Y-72822554D01*
X108933180Y-72858070D01*
X108844180Y-72810498D01*
X108724482Y-72774188D01*
X108600000Y-72761928D01*
X108385750Y-72765000D01*
X108227000Y-72923750D01*
X107973000Y-72923750D01*
X107814250Y-72765000D01*
X107600000Y-72761928D01*
X107475518Y-72774188D01*
X107355820Y-72810498D01*
X107245506Y-72869463D01*
X107148815Y-72948815D01*
X107069463Y-73045506D01*
X107010498Y-73155820D01*
X106974188Y-73275518D01*
X106961928Y-73400000D01*
X104660000Y-73400000D01*
X104660000Y-69000034D01*
X112477367Y-69000034D01*
X112477367Y-69299966D01*
X112535881Y-69594136D01*
X112650660Y-69871237D01*
X112817294Y-70120622D01*
X113029378Y-70332706D01*
X113278763Y-70499340D01*
X113555864Y-70614119D01*
X113850034Y-70672633D01*
X114149966Y-70672633D01*
X114444136Y-70614119D01*
X114721237Y-70499340D01*
X114970622Y-70332706D01*
X115182706Y-70120622D01*
X115349340Y-69871237D01*
X115464119Y-69594136D01*
X115522633Y-69299966D01*
X115522633Y-69000034D01*
X115464119Y-68705864D01*
X115349340Y-68428763D01*
X115182706Y-68179378D01*
X114970622Y-67967294D01*
X114721237Y-67800660D01*
X114444136Y-67685881D01*
X114149966Y-67627367D01*
X113850034Y-67627367D01*
X113555864Y-67685881D01*
X113278763Y-67800660D01*
X113029378Y-67967294D01*
X112817294Y-68179378D01*
X112650660Y-68428763D01*
X112535881Y-68705864D01*
X112477367Y-69000034D01*
X104660000Y-69000034D01*
X104660000Y-67100346D01*
X104699626Y-67074019D01*
X104706719Y-67068149D01*
X104706723Y-67068147D01*
X104706726Y-67068144D01*
X104781478Y-67005419D01*
X104823321Y-66962690D01*
X104865774Y-66920533D01*
X104871598Y-66913391D01*
X104871601Y-66913388D01*
X104871604Y-66913384D01*
X104932744Y-66837341D01*
X104965487Y-66787305D01*
X104998951Y-66737693D01*
X105003277Y-66729557D01*
X105048487Y-66643077D01*
X105070890Y-66587626D01*
X105094075Y-66532473D01*
X105096738Y-66523651D01*
X105124290Y-66430040D01*
X105135496Y-66371297D01*
X105147529Y-66312678D01*
X105148428Y-66303507D01*
X105157272Y-66206324D01*
X105156854Y-66146509D01*
X105157272Y-66086693D01*
X105156373Y-66077522D01*
X105146173Y-65980473D01*
X105141135Y-65955926D01*
X106029534Y-65955926D01*
X106029534Y-66344074D01*
X106105258Y-66724764D01*
X106253796Y-67083366D01*
X106469439Y-67406099D01*
X106743901Y-67680561D01*
X107066634Y-67896204D01*
X107425236Y-68044742D01*
X107805926Y-68120466D01*
X108194074Y-68120466D01*
X108574764Y-68044742D01*
X108933366Y-67896204D01*
X109256099Y-67680561D01*
X109530561Y-67406099D01*
X109746204Y-67083366D01*
X109894742Y-66724764D01*
X109970466Y-66344074D01*
X109970466Y-65955926D01*
X109894742Y-65575236D01*
X109746204Y-65216634D01*
X109530561Y-64893901D01*
X109256099Y-64619439D01*
X108933366Y-64403796D01*
X108574764Y-64255258D01*
X108194074Y-64179534D01*
X107805926Y-64179534D01*
X107425236Y-64255258D01*
X107066634Y-64403796D01*
X106743901Y-64619439D01*
X106469439Y-64893901D01*
X106253796Y-65216634D01*
X106105258Y-65575236D01*
X106029534Y-65955926D01*
X105141135Y-65955926D01*
X105134140Y-65921854D01*
X105122936Y-65863116D01*
X105120272Y-65854294D01*
X105091416Y-65761075D01*
X105068238Y-65705937D01*
X105045825Y-65650463D01*
X105041498Y-65642327D01*
X104995085Y-65556489D01*
X104961645Y-65506913D01*
X104928881Y-65456844D01*
X104923057Y-65449703D01*
X104860855Y-65374514D01*
X104818406Y-65332361D01*
X104776561Y-65289629D01*
X104769460Y-65283755D01*
X104693839Y-65222079D01*
X104660000Y-65199596D01*
X104660000Y-63400000D01*
X119036807Y-63400000D01*
X119040000Y-63432419D01*
X119040001Y-68867571D01*
X119036807Y-68900000D01*
X119049550Y-69029383D01*
X119087290Y-69153793D01*
X119148575Y-69268450D01*
X119231052Y-69368948D01*
X119331550Y-69451425D01*
X119446207Y-69512710D01*
X119570617Y-69550450D01*
X119667581Y-69560000D01*
X119700000Y-69563193D01*
X119732419Y-69560000D01*
X128167581Y-69560000D01*
X128200000Y-69563193D01*
X128232419Y-69560000D01*
X128329383Y-69550450D01*
X128453793Y-69512710D01*
X128568450Y-69451425D01*
X128668948Y-69368948D01*
X128751425Y-69268450D01*
X128812710Y-69153793D01*
X128850450Y-69029383D01*
X128863193Y-68900000D01*
X128860000Y-68867581D01*
X128860000Y-66099258D01*
X137542748Y-66099258D01*
X137543166Y-66159075D01*
X137542748Y-66218892D01*
X137543647Y-66228064D01*
X137570167Y-66480389D01*
X137582196Y-66538988D01*
X137593405Y-66597747D01*
X137596068Y-66606569D01*
X137671095Y-66848938D01*
X137694265Y-66904056D01*
X137716683Y-66959545D01*
X137721009Y-66967681D01*
X137841682Y-67190862D01*
X137875150Y-67240480D01*
X137907889Y-67290511D01*
X137913713Y-67297652D01*
X138075438Y-67493143D01*
X138117872Y-67535282D01*
X138159735Y-67578031D01*
X138166836Y-67583904D01*
X138166839Y-67583907D01*
X138166843Y-67583909D01*
X138363450Y-67744260D01*
X138413238Y-67777339D01*
X138462634Y-67811161D01*
X138470741Y-67815544D01*
X138694759Y-67934656D01*
X138750062Y-67957450D01*
X138805044Y-67981016D01*
X138813847Y-67983741D01*
X139056733Y-68057073D01*
X139115418Y-68068693D01*
X139173926Y-68081129D01*
X139183089Y-68082092D01*
X139183091Y-68082092D01*
X139435596Y-68106850D01*
X139435598Y-68106850D01*
X139467581Y-68110000D01*
X140532419Y-68110000D01*
X140565683Y-68106724D01*
X140582555Y-68106724D01*
X140591720Y-68105760D01*
X140843853Y-68077479D01*
X140902354Y-68065044D01*
X140961046Y-68053423D01*
X140969849Y-68050698D01*
X141211688Y-67973982D01*
X141266685Y-67950410D01*
X141321974Y-67927622D01*
X141330080Y-67923239D01*
X141552414Y-67801011D01*
X141601794Y-67767199D01*
X141651598Y-67734110D01*
X141658699Y-67728236D01*
X141853056Y-67565150D01*
X141894899Y-67522420D01*
X141937352Y-67480264D01*
X141943176Y-67473122D01*
X142102156Y-67275392D01*
X142134916Y-67225330D01*
X142168362Y-67175744D01*
X142172688Y-67167607D01*
X142290234Y-66942764D01*
X142312653Y-66887274D01*
X142335823Y-66832155D01*
X142338487Y-66823333D01*
X142410121Y-66579940D01*
X142421333Y-66521166D01*
X142433358Y-66462585D01*
X142434257Y-66453414D01*
X142457252Y-66200742D01*
X142456834Y-66140925D01*
X142457252Y-66081108D01*
X142456353Y-66071936D01*
X142429833Y-65819611D01*
X142417794Y-65760962D01*
X142406595Y-65702253D01*
X142403932Y-65693431D01*
X142328906Y-65451062D01*
X142305716Y-65395898D01*
X142283317Y-65340456D01*
X142278991Y-65332319D01*
X142158318Y-65109138D01*
X142124865Y-65059543D01*
X142092111Y-65009489D01*
X142086287Y-65002348D01*
X141924562Y-64806857D01*
X141882128Y-64764718D01*
X141840265Y-64721969D01*
X141833164Y-64716095D01*
X141636549Y-64555740D01*
X141586733Y-64522642D01*
X141537366Y-64488839D01*
X141529259Y-64484456D01*
X141305241Y-64365344D01*
X141249950Y-64342555D01*
X141194956Y-64318984D01*
X141186153Y-64316259D01*
X140943267Y-64242927D01*
X140884582Y-64231307D01*
X140826074Y-64218871D01*
X140816911Y-64217908D01*
X140816909Y-64217908D01*
X140564404Y-64193150D01*
X140564402Y-64193150D01*
X140532419Y-64190000D01*
X139467581Y-64190000D01*
X139434309Y-64193277D01*
X139417445Y-64193277D01*
X139408280Y-64194240D01*
X139156146Y-64222521D01*
X139097638Y-64234957D01*
X139038953Y-64246577D01*
X139030150Y-64249302D01*
X138788312Y-64326018D01*
X138733315Y-64349590D01*
X138678026Y-64372378D01*
X138669920Y-64376761D01*
X138447587Y-64498989D01*
X138398224Y-64532789D01*
X138348402Y-64565890D01*
X138341302Y-64571764D01*
X138146944Y-64734850D01*
X138105118Y-64777563D01*
X138062648Y-64819736D01*
X138056824Y-64826878D01*
X137897844Y-65024608D01*
X137865084Y-65074670D01*
X137831638Y-65124256D01*
X137827312Y-65132393D01*
X137709767Y-65357236D01*
X137687371Y-65412668D01*
X137664177Y-65467844D01*
X137661514Y-65476666D01*
X137589879Y-65720060D01*
X137578666Y-65778841D01*
X137566642Y-65837415D01*
X137565743Y-65846587D01*
X137542748Y-66099258D01*
X128860000Y-66099258D01*
X128860000Y-63432419D01*
X128863193Y-63400000D01*
X128850450Y-63270617D01*
X128812710Y-63146207D01*
X128751425Y-63031550D01*
X128725561Y-63000034D01*
X132477367Y-63000034D01*
X132477367Y-63299966D01*
X132535881Y-63594136D01*
X132650660Y-63871237D01*
X132817294Y-64120622D01*
X133029378Y-64332706D01*
X133278763Y-64499340D01*
X133555864Y-64614119D01*
X133850034Y-64672633D01*
X134149966Y-64672633D01*
X134444136Y-64614119D01*
X134721237Y-64499340D01*
X134970622Y-64332706D01*
X135182706Y-64120622D01*
X135349340Y-63871237D01*
X135464119Y-63594136D01*
X135522633Y-63299966D01*
X135522633Y-63000034D01*
X135464119Y-62705864D01*
X135349340Y-62428763D01*
X135182706Y-62179378D01*
X134970622Y-61967294D01*
X134721237Y-61800660D01*
X134444136Y-61685881D01*
X134149966Y-61627367D01*
X133850034Y-61627367D01*
X133555864Y-61685881D01*
X133278763Y-61800660D01*
X133029378Y-61967294D01*
X132817294Y-62179378D01*
X132650660Y-62428763D01*
X132535881Y-62705864D01*
X132477367Y-63000034D01*
X128725561Y-63000034D01*
X128668948Y-62931052D01*
X128568450Y-62848575D01*
X128453793Y-62787290D01*
X128329383Y-62749550D01*
X128232419Y-62740000D01*
X128200000Y-62736807D01*
X128167581Y-62740000D01*
X119732419Y-62740000D01*
X119700000Y-62736807D01*
X119667581Y-62740000D01*
X119570617Y-62749550D01*
X119446207Y-62787290D01*
X119331550Y-62848575D01*
X119231052Y-62931052D01*
X119148575Y-63031550D01*
X119087290Y-63146207D01*
X119049550Y-63270617D01*
X119036807Y-63400000D01*
X104660000Y-63400000D01*
X104660000Y-60173380D01*
X106933380Y-57900000D01*
X114491928Y-57900000D01*
X114491928Y-58900000D01*
X114504188Y-59024482D01*
X114540498Y-59144180D01*
X114599463Y-59254494D01*
X114678815Y-59351185D01*
X114775506Y-59430537D01*
X114885820Y-59489502D01*
X115005518Y-59525812D01*
X115130000Y-59538072D01*
X116130000Y-59538072D01*
X116254482Y-59525812D01*
X116374180Y-59489502D01*
X116457226Y-59445112D01*
X116568933Y-59491383D01*
X116788212Y-59535000D01*
X117011788Y-59535000D01*
X117231067Y-59491383D01*
X117437624Y-59405824D01*
X117535000Y-59340759D01*
X117632376Y-59405824D01*
X117838933Y-59491383D01*
X118058212Y-59535000D01*
X118281788Y-59535000D01*
X118501067Y-59491383D01*
X118707624Y-59405824D01*
X118805000Y-59340759D01*
X118902376Y-59405824D01*
X119108933Y-59491383D01*
X119328212Y-59535000D01*
X119551788Y-59535000D01*
X119771067Y-59491383D01*
X119977624Y-59405824D01*
X120163520Y-59281612D01*
X120321612Y-59123520D01*
X120445824Y-58937624D01*
X120531383Y-58731067D01*
X120553740Y-58618665D01*
X129365000Y-58618665D01*
X129365000Y-58901335D01*
X129420147Y-59178574D01*
X129528320Y-59439727D01*
X129685363Y-59674759D01*
X129885241Y-59874637D01*
X130120273Y-60031680D01*
X130381426Y-60139853D01*
X130658665Y-60195000D01*
X130941335Y-60195000D01*
X131218574Y-60139853D01*
X131479727Y-60031680D01*
X131714759Y-59874637D01*
X131914637Y-59674759D01*
X132071680Y-59439727D01*
X132125281Y-59310323D01*
X132158815Y-59351185D01*
X132255506Y-59430537D01*
X132365820Y-59489502D01*
X132485518Y-59525812D01*
X132610000Y-59538072D01*
X132824250Y-59535000D01*
X132983000Y-59376250D01*
X132983000Y-58527000D01*
X133237000Y-58527000D01*
X133237000Y-59376250D01*
X133395750Y-59535000D01*
X133610000Y-59538072D01*
X133734482Y-59525812D01*
X133854180Y-59489502D01*
X133943180Y-59441930D01*
X134023136Y-59477446D01*
X134078126Y-59494119D01*
X134253000Y-59367954D01*
X134253000Y-58527000D01*
X134507000Y-58527000D01*
X134507000Y-59367954D01*
X134681874Y-59494119D01*
X134736864Y-59477446D01*
X134940206Y-59387123D01*
X135015000Y-59334361D01*
X135089794Y-59387123D01*
X135293136Y-59477446D01*
X135348126Y-59494119D01*
X135523000Y-59367954D01*
X135523000Y-58527000D01*
X135777000Y-58527000D01*
X135777000Y-59367954D01*
X135951874Y-59494119D01*
X136006864Y-59477446D01*
X136210206Y-59387123D01*
X136285000Y-59334361D01*
X136359794Y-59387123D01*
X136563136Y-59477446D01*
X136618126Y-59494119D01*
X136793000Y-59367954D01*
X136793000Y-58527000D01*
X137047000Y-58527000D01*
X137047000Y-59367954D01*
X137221874Y-59494119D01*
X137276864Y-59477446D01*
X137480206Y-59387123D01*
X137662020Y-59258865D01*
X137815318Y-59097601D01*
X137934210Y-58909529D01*
X138014126Y-58701876D01*
X137889129Y-58527000D01*
X137047000Y-58527000D01*
X136793000Y-58527000D01*
X135777000Y-58527000D01*
X135523000Y-58527000D01*
X134507000Y-58527000D01*
X134253000Y-58527000D01*
X133237000Y-58527000D01*
X132983000Y-58527000D01*
X132963000Y-58527000D01*
X132963000Y-58273000D01*
X132983000Y-58273000D01*
X132983000Y-57423750D01*
X133237000Y-57423750D01*
X133237000Y-58273000D01*
X134253000Y-58273000D01*
X134253000Y-57432046D01*
X134507000Y-57432046D01*
X134507000Y-58273000D01*
X135523000Y-58273000D01*
X135523000Y-57432046D01*
X135777000Y-57432046D01*
X135777000Y-58273000D01*
X136793000Y-58273000D01*
X136793000Y-57432046D01*
X137047000Y-57432046D01*
X137047000Y-58273000D01*
X137889129Y-58273000D01*
X138014126Y-58098124D01*
X137934210Y-57890471D01*
X137815318Y-57702399D01*
X137662020Y-57541135D01*
X137480206Y-57412877D01*
X137276864Y-57322554D01*
X137221874Y-57305881D01*
X137047000Y-57432046D01*
X136793000Y-57432046D01*
X136618126Y-57305881D01*
X136563136Y-57322554D01*
X136359794Y-57412877D01*
X136285000Y-57465639D01*
X136210206Y-57412877D01*
X136006864Y-57322554D01*
X135951874Y-57305881D01*
X135777000Y-57432046D01*
X135523000Y-57432046D01*
X135348126Y-57305881D01*
X135293136Y-57322554D01*
X135089794Y-57412877D01*
X135015000Y-57465639D01*
X134940206Y-57412877D01*
X134736864Y-57322554D01*
X134681874Y-57305881D01*
X134507000Y-57432046D01*
X134253000Y-57432046D01*
X134078126Y-57305881D01*
X134023136Y-57322554D01*
X133943180Y-57358070D01*
X133854180Y-57310498D01*
X133734482Y-57274188D01*
X133610000Y-57261928D01*
X133395750Y-57265000D01*
X133237000Y-57423750D01*
X132983000Y-57423750D01*
X132824250Y-57265000D01*
X132610000Y-57261928D01*
X132485518Y-57274188D01*
X132365820Y-57310498D01*
X132255506Y-57369463D01*
X132158815Y-57448815D01*
X132079463Y-57545506D01*
X132020498Y-57655820D01*
X131984188Y-57775518D01*
X131971928Y-57900000D01*
X131972382Y-57931663D01*
X131914637Y-57845241D01*
X131714759Y-57645363D01*
X131479727Y-57488320D01*
X131218574Y-57380147D01*
X130941335Y-57325000D01*
X130658665Y-57325000D01*
X130381426Y-57380147D01*
X130120273Y-57488320D01*
X129885241Y-57645363D01*
X129685363Y-57845241D01*
X129528320Y-58080273D01*
X129420147Y-58341426D01*
X129365000Y-58618665D01*
X120553740Y-58618665D01*
X120575000Y-58511788D01*
X120575000Y-58288212D01*
X120531383Y-58068933D01*
X120445824Y-57862376D01*
X120321612Y-57676480D01*
X120163520Y-57518388D01*
X119977624Y-57394176D01*
X119771067Y-57308617D01*
X119551788Y-57265000D01*
X119328212Y-57265000D01*
X119108933Y-57308617D01*
X118902376Y-57394176D01*
X118805000Y-57459241D01*
X118707624Y-57394176D01*
X118501067Y-57308617D01*
X118281788Y-57265000D01*
X118058212Y-57265000D01*
X117838933Y-57308617D01*
X117632376Y-57394176D01*
X117535000Y-57459241D01*
X117437624Y-57394176D01*
X117231067Y-57308617D01*
X117011788Y-57265000D01*
X116788212Y-57265000D01*
X116568933Y-57308617D01*
X116457226Y-57354888D01*
X116374180Y-57310498D01*
X116254482Y-57274188D01*
X116130000Y-57261928D01*
X115130000Y-57261928D01*
X115005518Y-57274188D01*
X114885820Y-57310498D01*
X114775506Y-57369463D01*
X114678815Y-57448815D01*
X114599463Y-57545506D01*
X114540498Y-57655820D01*
X114504188Y-57775518D01*
X114491928Y-57900000D01*
X106933380Y-57900000D01*
X107773381Y-57060000D01*
X142967721Y-57060000D01*
X143065424Y-57069580D01*
G37*
G04 #@! TD.AperFunction*
M02*
