M48
; DRILL file {KiCad 5.1.9-73d0e3b20d~88~ubuntu20.04.1} date Wed Feb  3 01:27:34 2021
; FORMAT={-:-/ absolute / metric / decimal}
; #@! TF.CreationDate,2021-02-03T01:27:34+08:00
; #@! TF.GenerationSoftware,Kicad,Pcbnew,5.1.9-73d0e3b20d~88~ubuntu20.04.1
; #@! TF.FileFunction,Plated,1,2,PTH
FMAT,2
METRIC
T1C0.400
T2C0.650
T3C0.800
%
G90
G05
T1
X105.95Y-72.0
X106.95Y-72.0
X107.5Y-59.0
X107.95Y-72.0
X108.45Y-59.0
X108.95Y-72.0
X109.4Y-59.0
X109.95Y-72.0
X110.35Y-59.0
X111.3Y-59.0
X112.25Y-59.0
X133.7Y-60.15
X134.8Y-60.15
X135.15Y-72.05
X135.95Y-60.15
X136.2Y-72.05
X137.05Y-60.15
X137.25Y-72.05
X138.1Y-60.15
X138.25Y-72.05
X139.25Y-72.05
T2
X108.1Y-73.9
X109.37Y-73.9
X110.64Y-73.9
X111.91Y-73.9
X115.61Y-73.9
X115.63Y-58.4
X116.88Y-73.9
X116.9Y-58.4
X118.15Y-73.9
X118.17Y-58.4
X119.42Y-73.9
X119.44Y-58.4
X133.11Y-58.4
X133.11Y-73.9
X134.38Y-58.4
X134.38Y-73.9
X135.65Y-58.4
X135.65Y-73.9
X136.92Y-58.4
X136.92Y-73.9
T3
X130.8Y-58.76
X130.8Y-74.0
T0
M30
